<?xml version="1.0" standalone="no"?>
<!DOCTYPE svg PUBLIC "-//W3C//DTD SVG 1.1//EN" "http://www.w3.org/Graphics/SVG/1.1/DTD/svg11.dtd" >
<svg xmlns="http://www.w3.org/2000/svg" xmlns:xlink="http://www.w3.org/1999/xlink" version="1.1">
<metadata></metadata>
<defs>
<font id="livory_boldregular" horiz-adv-x="1544" >
<font-face units-per-em="2048" ascent="1536" descent="-512" />
<missing-glyph horiz-adv-x="593" />
<glyph horiz-adv-x="0" />
<glyph unicode="&#xd;" horiz-adv-x="681" />
<glyph unicode=" "  horiz-adv-x="593" />
<glyph unicode="&#x09;" horiz-adv-x="593" />
<glyph unicode="&#xa0;" horiz-adv-x="593" />
<glyph unicode="!" horiz-adv-x="630" d="M106 1221q0 86 56.5 140t148.5 54q88 0 151.5 -54t63.5 -144q0 -45 -24.5 -111t-53 -130.5t-53 -182t-24.5 -256.5q0 -47 -60 -48q-27 0 -41 13.5t-14 29.5q0 186 -38 323.5t-75 222.5t-37 143zM131 152q0 84 51 131t133 47q180 0 181 -170q0 -80 -47.5 -132.5 t-133.5 -52.5t-135 49.5t-49 127.5z" />
<glyph unicode="&#x22;" horiz-adv-x="702" d="M61 1407q0 61 39 92t97 31q102 0 102 -105q0 -53 -28.5 -187t-37.5 -263q0 -37 -55 -37q-37 0 -37 39q0 104 -40 249.5t-40 180.5zM406 1415q0 53 34.5 84t87.5 31q49 0 81 -27.5t32 -81.5q0 -41 -36 -175t-40 -269q0 -16 -14 -27.5t-39 -11.5q-39 0 -39 37 q0 102 -33.5 245.5t-33.5 194.5z" />
<glyph unicode="#" horiz-adv-x="1300" d="M61 485q0 29 14.5 48.5t41.5 17.5q25 -2 205 -2q23 0 36 26q8 27 22.5 115t12.5 107q-2 12 -4 16t-7 6t-17 4q-57 2 -97.5 1t-89.5 -2t-59 -1q-25 0 -25 56q0 70 51 69q6 0 94.5 -1t139.5 -1q33 0 41 31q12 39 33.5 185.5t21.5 176.5q2 27 25.5 42.5t54.5 15.5 q29 0 44 -19.5t11 -38.5q-49 -256 -57 -356q-4 -37 22 -37q154 0 220 2q31 0 39 35q59 324 61 356q2 20 23.5 39t52.5 19q29 0 47 -21t10 -37q-6 -25 -36.5 -189.5t-30.5 -176.5q0 -27 32 -27h224q18 0 18 -47q0 -29 -11.5 -51.5t-33.5 -20.5q-31 2 -219 2q-25 0 -33 -36 q-4 -12 -24.5 -109.5t-18.5 -110.5q2 -23 35 -24q41 -4 123 -4t112 4q20 2 31.5 -15.5t11.5 -42.5q0 -27 -12 -48t-33 -19q-135 6 -252 2q-25 0 -39 -37q-55 -276 -55 -330q0 -23 -22.5 -42t-53.5 -19q-29 0 -47 17.5t-10 41.5q8 39 33.5 175.5t23.5 156.5q-4 37 -34 39 q-106 6 -205 0q-23 -2 -35 -33q-10 -35 -34.5 -174t-26.5 -164q-8 -59 -80 -59q-31 0 -48.5 20.5t-13.5 40.5q8 20 38 168t30 174q-2 20 -23 25q-25 4 -211 4q-37 0 -37 57zM494 573q-1 -30 34 -30q184 0 199 2q35 4 37 35q39 213 39 215q0 29 -37 32h-191q-41 -2 -47 -32 q-31 -145 -34 -222z" />
<glyph unicode="$" horiz-adv-x="1093" d="M78 119q-12 229 59 274q31 25 74 15.5t43 -43.5q0 -88 45 -157t117 -83q76 -12 80 55q4 66 4 256q-2 74 -8.5 90.5t-34.5 34.5q-72 47 -106 69.5t-94 75t-90 94.5t-54.5 105.5t-24.5 130.5q0 135 95.5 240.5t279.5 130.5q35 6 35 37v45q0 20 8 29.5t14 10.5t22.5 1 t29 -11.5t12.5 -27.5l-2 -18v-30.5t1 -17t11 -8.5t33 -4q113 -6 215 -29.5t119 -44.5q18 -12 23 -104t1 -170q-2 -41 -41 -63.5t-79 -12.5t-42 53q-4 90 -73.5 161t-133.5 71q-18 2 -25 -11.5t-9 -48.5q-4 -123 -2 -262q0 -53 10 -72.5t35 -33.5q8 -6 64 -41t72.5 -45 t64.5 -44t65.5 -53.5t51.5 -55.5t46 -65.5t24.5 -69.5t12.5 -81q0 -150 -100.5 -263.5t-290.5 -143.5q-33 -4 -44 -13.5t-11 -31.5q0 -14 1 -27.5t1 -22.5v-8q2 -25 -8.5 -36t-36.5 -11q-51 0 -45 45v6q0 8 1 19.5t1 25.5q0 16 -3.5 23.5t-16.5 14.5t-40 9 q-141 12 -246.5 54.5t-109.5 87.5zM369 1124q0 -94 86 -155q25 -14 33 -9t12 39q4 102 0 199q-2 43 -8.5 56.5t-30.5 2.5q-39 -18 -65.5 -54t-26.5 -79zM580 203q0 -29 9 -44.5t17 -17.5t23 0q92 19 92 140q0 96 -105 170q-27 18 -32 -13l-4 -47q-2 -164 0 -188z" />
<glyph unicode="%" horiz-adv-x="1857" d="M63 1063q0 160 114 254t284 94q162 0 276.5 -92t114.5 -250q0 -166 -108.5 -265t-284.5 -99q-166 0 -281 97t-115 261zM260 1159q0 -86 102.5 -178t202.5 -92q88 0 88 76q0 88 -98 180t-203 92q-37 0 -64.5 -20.5t-27.5 -57.5zM403 74q0 27 15 41q12 12 149.5 204.5 t345 501.5t349.5 543q31 53 90 53q39 0 68.5 -22.5t29.5 -55.5q0 -18 -16 -41q-80 -102 -285 -404t-372 -554t-173 -266q-18 -29 -29.5 -44.5t-34 -31.5t-48.5 -16q-43 0 -66 28.5t-23 63.5zM1006 336q0 160 113.5 254t283.5 94q162 0 276.5 -92t114.5 -250 q0 -166 -109.5 -265.5t-283.5 -99.5q-166 0 -280.5 97.5t-114.5 261.5zM1202 432q0 -86 102.5 -178t202.5 -92q88 0 88 76q0 88 -99 180t-204 92q-35 0 -62.5 -20.5t-27.5 -57.5z" />
<glyph unicode="&#x26;" horiz-adv-x="1695" d="M78 373q0 238 295 385q51 20 -2 67l-23.5 23.5t-32 33t-30 39t-29.5 50t-18.5 57.5t-8.5 70q0 145 119 234t301 89q143 0 246.5 -74.5t103.5 -193.5q0 -68 -33.5 -124t-74.5 -86t-75 -56.5t-34 -42.5q0 -10 34 -36t103.5 -85t135.5 -133q25 -27 35 -36t24 -13t24.5 10 t24.5 47q39 86 33 174q-2 45 -25.5 60.5t-49 12.5t-46 13t-20.5 66q0 59 94 43q129 -10 248 0t151 2q55 -14 56 -68q0 -29 -16.5 -49.5t-37.5 -17.5q-145 27 -168 -68q-35 -150 -108 -299q-23 -41 -20 -68.5t32 -60.5q117 -168 221 -184q20 -2 31.5 -2t32 4t26.5 4 q18 2 27.5 -13.5t9.5 -37.5q0 -43 -20 -64q-10 -23 -73.5 -50.5t-135.5 -27.5q-164 0 -324 168q-27 25 -39 27t-38 -15q-76 -55 -112 -78.5t-138.5 -56t-221.5 -32.5q-188 0 -321 106.5t-133 286.5zM383 436q0 -109 76 -190.5t215 -81.5q100 0 174 50t76 83q2 39 -164 208 t-211 169q-51 0 -108.5 -72t-57.5 -166zM516 1149q0 -76 51 -143.5t90 -67.5q37 0 102.5 62.5t65.5 140.5q0 66 -44 107.5t-117 41.5q-66 0 -107 -41t-41 -100z" />
<glyph unicode="'" horiz-adv-x="368" d="M61 1407q0 61 39 92t97 31q102 0 102 -105q0 -53 -28.5 -187t-37.5 -263q0 -37 -55 -37q-37 0 -37 39q0 104 -40 249.5t-40 180.5z" />
<glyph unicode="(" horiz-adv-x="694" d="M63 637q0 289 141.5 517t362.5 362q29 16 58.5 -2.5t33 -48t-25.5 -60.5q-274 -244 -275 -768q0 -274 79 -467t196 -299q49 -43 15 -90t-81 -21q-217 125 -360.5 356.5t-143.5 520.5z" />
<glyph unicode=")" horiz-adv-x="692" d="M42 1496q36 48 85 20q221 -133 361.5 -361.5t140.5 -517.5t-143.5 -519.5t-358.5 -357.5q-47 -27 -81 20.5t13 90.5q117 111 197 302.5t80 463.5q0 537 -277 768q-53 43 -17 91z" />
<glyph unicode="*" horiz-adv-x="874" d="M66 1233q0 51 38.5 85t92.5 13q29 -12 67.5 -36.5t75.5 -41.5q14 -6 26.5 0.5t12.5 18.5q0 37 -20.5 86t-20.5 67q-6 47 24.5 73t73.5 26t73 -25.5t28 -71.5q0 -23 -18.5 -69.5t-18.5 -95.5q0 -39 37 -31q39 14 80.5 49t62.5 43q53 25 92 -8t39 -84q0 -72 -72 -86 q-25 -6 -75 -6t-95 -9q-12 -2 -14 -15t4 -21q20 -31 67.5 -66t55.5 -43q45 -51 13.5 -102.5t-91.5 -51.5q-47 0 -74 43q-12 18 -29.5 66.5t-39.5 81.5q-18 25 -43 0t-45.5 -81t-24.5 -64q-29 -49 -80 -50q-57 0 -89 50.5t9 105.5q16 16 58.5 46t64.5 61q10 14 5 28.5 t-19 18.5q-37 12 -86 10t-72 2q-74 16 -73 84z" />
<glyph unicode="+" horiz-adv-x="1228" d="M150 569q0 35 18 61.5t47 24.5h47t97.5 -1t103.5 -1q29 0 41 11.5t13 19.5t1 33q2 47 -4 241q-2 31 25.5 48.5t64.5 17.5t64.5 -14t25.5 -39q-8 -164 -6 -258q0 -61 43 -62q145 0 256 17q39 6 65.5 -23t26.5 -65q0 -33 -23.5 -57.5t-68.5 -26.5q-184 0 -254 -4 q-31 -2 -38 -12.5t-7 -37.5q0 -106 6 -235q2 -33 -26.5 -50.5t-67.5 -17.5q-37 0 -61.5 16.5t-24.5 45.5q4 115 4 227q0 41 -13 52.5t-48 13.5q-127 4 -224 -7q-41 -4 -62 20.5t-21 61.5z" />
<glyph unicode="," horiz-adv-x="600" d="M100 150q0 74 51.5 121.5t122.5 47.5q121 0 180.5 -90t59.5 -229q0 -115 -70.5 -237t-179.5 -173q-8 -4 -22 -4q-23 0 -45.5 21.5t-22.5 44.5q0 33 41 51q70 41 114 100.5t44 118.5q0 80 -51 80q-10 0 -41 -11t-50 -11q-61 0 -96 53t-35 117z" />
<glyph unicode="-" horiz-adv-x="841" d="M98 563q0 39 19.5 70t54.5 33q45 2 126 0t196.5 1t169.5 13q35 6 58 -25.5t23 -74.5q0 -41 -24.5 -70t-73.5 -29q-346 6 -467 -8q-39 -4 -60.5 22.5t-21.5 67.5z" />
<glyph unicode="." horiz-adv-x="569" d="M100 152q0 84 51.5 131t133.5 47q182 0 182 -170q0 -80 -48 -132.5t-134 -52.5t-135.5 49.5t-49.5 127.5z" />
<glyph unicode="/" horiz-adv-x="731" d="M61 33q0 18 9 35q8 12 61 160.5t158.5 468t218.5 685.5q12 45 74 45q33 0 59.5 -15t26.5 -40q0 -6 -19 -61q-6 -14 -206.5 -619.5t-204.5 -621.5q-10 -45 -35 -67.5t-80 -22.5q-61 0 -62 53z" />
<glyph unicode="0" horiz-adv-x="1361" d="M98 674q0 301 151.5 500.5t444.5 199.5q262 0 416 -199.5t154 -498.5q0 -311 -155 -507t-411 -196q-285 0 -442.5 196t-157.5 505zM418 782q0 -311 93 -482t230 -171q201 0 201 428q0 176 -31.5 323.5t-104.5 248t-175 100.5q-59 0 -102.5 -37t-67 -101.5t-33.5 -140.5 t-10 -168z" />
<glyph unicode="1" horiz-adv-x="1030" d="M70 68q0 27 14 46t41 17q129 -8 191.5 3t80 36t23.5 82q6 106 5 389t-7 385q-2 43 -48 50t-235 -3q-27 -2 -44 20.5t-17 51.5q0 59 55 59q111 0 201 30t134 64.5t75.5 64.5t40.5 30q14 0 30.5 -1t48 -7.5t51 -21.5t15.5 -40q-12 -154 -11 -586t9 -506q8 -63 20 -77 q35 -33 230 -21q25 2 41 -19.5t16 -50t-17.5 -49t-51.5 -18.5q-481 23 -836 0q-25 -2 -40 20.5t-15 51.5z" />
<glyph unicode="2" horiz-adv-x="1167" d="M59 139q0 37 15 51q78 51 153.5 107.5t168.5 138.5t161 160t114 170t46 174q0 117 -59.5 182.5t-174.5 65.5q-88 0 -156.5 -55.5t-95.5 -116.5q-14 -35 -65 -15q-55 20 -55 68l4 23q39 94 165 188t316 94q180 0 312 -102.5t132 -270.5q0 -80 -30.5 -159.5t-72.5 -139 t-109.5 -126t-115.5 -104.5t-118 -90t-90 -69q-31 -29 -11.5 -49t70.5 -22q152 -4 223 8q86 8 120 30.5t65 88.5q10 20 38.5 25t51 -8t18.5 -42q-10 -27 -41.5 -148.5t-44.5 -162.5q-20 -47 -69 -47q-8 0 -74 6t-102 8q-356 10 -596 -4q-43 -2 -68 44t-25 99z" />
<glyph unicode="3" horiz-adv-x="1144" d="M70 156q0 49 31.5 84.5t95.5 35.5q53 0 85.5 -25.5t48 -55t55.5 -55t103 -25.5q106 0 181 60.5t75 166.5q0 139 -122.5 204.5t-313.5 65.5q-37 0 -52 30t-3 61.5t41 35.5q145 16 246.5 96t101.5 195q0 78 -53 127t-152 49q-70 0 -126 -25.5t-93 -58.5l-37 -30 q-37 -27 -65.5 16t-7.5 80q6 16 34.5 45t78.5 62.5t136 57t185 23.5q182 0 300 -83t118 -203q0 -195 -220 -302q-14 -6 -20 -15t0 -17t22 -13q158 -43 226 -100q100 -86 102 -221q0 -188 -169 -318.5t-460 -130.5q-162 0 -267 48.5t-105 134.5z" />
<glyph unicode="4" horiz-adv-x="1169" d="M23 524q0 43 8 51q170 176 382 421t214 288q8 59 51 59q25 0 54.5 7.5t54 16.5t46 19.5t33.5 18.5l13 6q20 0 38.5 -13.5t16.5 -31.5q-18 -420 -6 -760q0 -47 55 -47q8 0 38 1t50 1q27 0 38 -11t11 -42q0 -39 -16 -78t-53 -39q-6 0 -47 1t-56 1q-6 0 -10 -3t-6 -8 t-4 -12.5t-4 -17.5t-2 -19v-24.5v-27v-28.5v-30q0 -35 3 -92t3 -65q0 -66 -76 -66h-172q-37 0 -51.5 12.5t-14.5 46.5q0 41 2 112t2 104.5t-2 84.5q0 12 -5 19.5t-9 11.5t-15.5 6t-15.5 2h-20h-21q-281 0 -436 -8q-72 0 -71 133zM260 592q0 -20 19.5 -24.5t74.5 -4.5h205 q59 0 64 66q2 59 3 177t-1 157q0 37 -27 36q-12 0 -25 -12q-82 -78 -176 -191.5t-118 -158.5q-18 -27 -19 -45z" />
<glyph unicode="5" horiz-adv-x="1101" d="M66 152q0 49 25.5 86.5t78.5 37.5q43 0 77 -24.5t55.5 -53t70.5 -53t119 -24.5q104 0 173.5 68.5t69.5 175.5q0 84 -47 147t-128 96t-169 48.5t-186 15.5q-33 0 -47.5 14t-12.5 27l2 14q55 340 66 588q2 39 57 39q242 -8 393.5 -8t233.5 22q27 10 58.5 2t25.5 -45 q-20 -133 -33 -180q-6 -29 -28.5 -40t-77.5 -11q-125 -8 -430 2q-53 2 -64 -45q-12 -37 -12 -125q0 -20 4 -26.5t27 -6.5q84 0 167.5 -12.5t172 -44t155 -78.5t109.5 -123t43 -172q0 -209 -157 -349.5t-423 -140.5q-369 0 -368 179z" />
<glyph unicode="6" horiz-adv-x="1259" d="M94 604q0 362 203 566t487 204q315 0 316 -129q0 -90 -96 -90q-47 0 -113 36t-148 36q-160 0 -245.5 -149.5t-85.5 -428.5q0 -270 84 -399t198 -129q90 0 143.5 72.5t53.5 177.5q0 162 -81 265t-196 99q-102 -6 -102 51q0 53 64.5 77t136.5 24q195 0 332 -109.5 t137 -314.5q0 -227 -151.5 -358.5t-377.5 -131.5q-258 0 -408.5 178.5t-150.5 452.5z" />
<glyph unicode="7" horiz-adv-x="1048" d="M41 1034q10 33 22.5 92.5t25.5 128t20 97.5q8 29 36 28q14 0 46 -10t38 -12q53 -6 322.5 -8t439.5 4q57 2 58 -41q0 -49 -33 -88q-406 -569 -406 -1035q0 -94 -48 -157.5t-148 -63.5q-82 0 -128 52.5t-46 144.5q0 131 74.5 278.5t217 344t175.5 249.5q31 49 17.5 66.5 t-85.5 17.5q-63 2 -167.5 1t-135.5 -3q-86 -10 -128 -34.5t-79 -90.5q-14 -27 -54 -12.5t-34 51.5z" />
<glyph unicode="8" horiz-adv-x="1239" d="M111 987q0 160 134 270.5t378 110.5q223 0 353 -93t130 -235q0 -76 -44 -140t-85 -94t-82 -46q-63 -33 2 -68q244 -131 244 -346q0 -166 -147.5 -271.5t-383.5 -105.5q-240 0 -367.5 94.5t-127.5 237.5q0 180 204 277q33 16 39.5 28t-3 21.5t-38.5 25.5 q-207 123 -206 334zM381 350q0 -94 65.5 -161.5t180.5 -67.5q90 0 142 45t52 119q0 102 -100 182t-180 80q-47 0 -103.5 -53.5t-56.5 -143.5zM418 1053q0 -100 96 -181t166 -84q43 0 108.5 70t65.5 156q0 90 -61.5 149.5t-174.5 59.5q-92 0 -146 -47.5t-54 -122.5z" />
<glyph unicode="9" horiz-adv-x="1261" d="M80 893q0 207 145.5 344t401.5 137q238 0 387 -178t149 -434q0 -164 -40 -303.5t-119.5 -250t-213 -174t-307.5 -63.5q-135 0 -238.5 39t-103.5 115q0 49 33 80t88 31q41 0 76 -29t84 -58.5t123 -29.5q137 0 218 144.5t81 426.5q0 260 -80 398.5t-207 138.5 q-86 0 -137 -74t-51 -182q0 -158 72.5 -239t191.5 -97q14 -2 41.5 1t40.5 3q23 0 35 -19.5t12 -48.5q0 -96 -195 -96q-217 0 -352 110.5t-135 307.5z" />
<glyph unicode=":" horiz-adv-x="638" d="M135 152q0 84 51.5 131t130.5 47q182 0 183 -170q0 -80 -48.5 -132.5t-134.5 -52.5t-134 49.5t-48 127.5zM135 797q0 84 50.5 130t131.5 46q182 0 183 -170q0 -80 -47 -131t-136 -51q-86 0 -134 49t-48 127z" />
<glyph unicode=";" horiz-adv-x="651" d="M137 150q0 74 51.5 121.5t122.5 47.5q121 0 181.5 -91t60.5 -228q0 -115 -72.5 -237t-181.5 -173q-4 -4 -18 -4q-25 0 -47.5 20.5t-22.5 45.5q0 31 39 51q72 39 116 99.5t44 119.5q0 80 -52 80q-10 0 -40.5 -11t-49.5 -11q-63 0 -97 53t-34 117zM139 797q0 84 51.5 130 t133.5 46q180 0 180 -170q0 -80 -47 -131t-133 -51t-135.5 49t-49.5 127z" />
<glyph unicode="&#x3c;" horiz-adv-x="1228" d="M199 498q0 41 28 55q2 2 271.5 136t421.5 224q29 16 47 17q29 0 46 -26.5t17 -61.5q0 -66 -43 -84q-41 -20 -158.5 -70.5t-210 -93.5t-114.5 -62q-20 -18 -21 -36q0 -29 27 -47q84 -57 231.5 -129t237.5 -97q51 -18 51 -84q0 -35 -19.5 -60.5t-52.5 -25.5q-22 1 -51 15 l-669 352q-39 25 -39 78z" />
<glyph unicode="=" horiz-adv-x="1228" d="M182 801q1 78 58 78q98 0 249.5 -1t218 -1t142.5 3t119 9q29 2 51 -30t22 -71q0 -76 -77 -75q-45 0 -304.5 1t-410.5 -3q-33 -2 -50.5 25.5t-17.5 64.5zM184 365q0 69 47 73q14 0 332 2t406 11q29 2 52 -31t23 -72q0 -72 -75 -72q-4 0 -145.5 2.5t-271.5 -1t-296 -11.5 q-33 -2 -52.5 29t-19.5 70z" />
<glyph unicode="&#x3e;" horiz-adv-x="1228" d="M199 842q0 35 16 61.5t45 26.5q18 0 47 -17q150 -90 414 -220t280 -140q29 -16 29 -57q0 -49 -39 -76q-503 -264 -669 -352q-29 -14 -52 -15q-33 0 -51 25.5t-18 60.5q0 66 49 84q90 27 239.5 98.5t229.5 127.5q27 23 26 47q0 23 -20 36q-23 18 -114 61.5t-209.5 93.5 t-159.5 71q-43 18 -43 84z" />
<glyph unicode="?" horiz-adv-x="819" d="M53 1290q0 129 269 129q193 0 309.5 -74.5t116.5 -203.5q0 -82 -50.5 -165t-110 -142.5t-109.5 -138.5t-50 -154q0 -53 -57 -54q-56 1 -64 52q-23 127 40 316t63 259q0 74 -33 115t-88 41q-35 0 -78 -31t-76 -31t-57.5 24.5t-24.5 57.5zM186 152q0 84 51.5 131t133.5 47 q182 0 182 -170q0 -80 -48 -132.5t-134 -52.5t-135.5 49.5t-49.5 127.5z" />
<glyph unicode="@" horiz-adv-x="1921" d="M63 463q0 152 61.5 301t173.5 274t294 203t401 78q199 0 365 -61.5t270.5 -162t161.5 -228.5t57 -263q0 -256 -144 -416.5t-353 -160.5q-170 0 -250 106q-12 16 -27 8q-6 -2 -45 -22.5t-91 -35.5t-110 -15q-127 0 -195.5 61t-68.5 154q0 82 68.5 137t152.5 75.5t165 43 t95 47.5q14 20 15 61q0 154 -109 154q-41 0 -75.5 -15.5t-43.5 -40.5q-4 -12 1.5 -41.5t5.5 -41.5q0 -35 -28 -62t-87 -27t-93 33t-34 78q0 98 131 172t295 74q135 0 205.5 -71t70.5 -195q0 -12 -4 -117t-4 -187q0 -106 21.5 -155t97.5 -49q121 0 209 129t88 319 q0 252 -199.5 422t-519.5 170q-338 0 -563 -212t-225 -521q0 -297 205.5 -492.5t537.5 -195.5q129 0 225.5 30.5t142.5 60.5t52 30q25 0 42 -30t17 -48q0 -27 -65.5 -64t-181 -67.5t-232.5 -30.5q-395 0 -637 232.5t-242 574.5zM819 303q0 -37 29 -70.5t84 -33.5q63 0 96 55 t33 129q0 47 -12 61q-8 4 -19 2q-66 0 -138.5 -38.5t-72.5 -104.5z" />
<glyph unicode="A" d="M-31 61q0 27 17.5 46.5t48.5 17.5h4q68 0 131 127q112 219 391 932q10 29 10 59q0 11 -1 21q-5 41 -1 51q7 25 53 25q15 0 28 -1q26 0 42 1q24 1 60 15.5t59 43.5q16 18 43 18q43 0 55 -37q43 -141 229.5 -601t250.5 -574q45 -79 105 -79q6 0 11 1q33 2 51.5 -17.5 t18.5 -48t-17.5 -48t-48.5 -17.5q-51 4 -259 5h-57q-165 0 -249 -5q-35 -2 -52.5 17.5t-17.5 45.5q0 29 16.5 49.5t43.5 18.5q12 -1 23 -1q49 0 64 16q12 12 12 39q0 15 -3 34q-4 29 -67 191q-23 47 -56 49q-85 9 -196 9h-22q-124 -1 -191 -9q-49 -4 -72 -43 q-33 -61 -66 -162q-8 -30 -8 -52q0 -32 16 -50q20 -22 82 -22q24 0 54 3q31 2 48 -16.5t17 -47t-17 -50t-48 -19.5q-134 6 -251 6t-218 -6q-31 -2 -48.5 17.5t-17.5 47.5zM513 611q9 -13 40 -17q46 -6 105 -6q75 0 171 10q37 4 48.5 18.5t-0.5 49.5q-72 209 -146 366 q-15 29 -30 29q-13 0 -25 -23q-78 -131 -162 -381q-10 -33 -1 -46z" />
<glyph unicode="B" horiz-adv-x="1370" d="M88 63q0 31 20 51q17 17 49 18q6 0 13 -1h12q74 0 80 68q15 263 15 542q0 217 -9 445q-2 43 -15 58.5t-39 14t-67 -3.5q-27 -2 -43 18.5t-16 49.5q0 68 59 68q12 -1 34 -1q66 0 222 5q207 6 291 6h11q237 0 377 -82q144 -84 143 -266q0 -70 -28 -127.5t-72 -94t-80.5 -57 t-73.5 -33.5q-18 -8 -19 -18q0 -12 31 -23q117 -37 204 -113.5t87 -207.5q0 -383 -561 -383q-45 0 -148.5 4t-206 4t-206.5 -8q-29 -2 -46.5 18.5t-17.5 48.5zM564 396q1 -108 7 -179q4 -49 37 -71.5t109 -22.5q111 0 168 57.5t57 161.5q0 133 -62.5 210t-191.5 77h-59 q-27 0 -41.5 -15.5t-16.5 -28t-4 -34.5q-3 -38 -3 -114v-41zM567 1186q-3 -45 -3 -112q0 -89 5 -216q2 -47 13.5 -63.5t46.5 -16.5h49q117 0 180.5 66.5t63.5 183.5q0 244 -228 244q-72 0 -98.5 -19.5t-28.5 -66.5z" />
<glyph unicode="C" horiz-adv-x="1480" d="M90 694q0 324 219 523.5t596 199.5q195 0 337 -46t147 -107q1 -7 1 -19q0 -64 -18 -274q-4 -37 -45 -49q-20 -6 -39 -7q-21 -1 -42 7q-40 14 -42 41q-35 309 -321 309q-193 0 -320 -147.5t-127 -389.5q0 -141 48 -252.5t127 -178t173.5 -100.5t194.5 -34q29 0 54.5 2 t48 5t42 7t38 10.5t30.5 10.5t28.5 12t23.5 11t21.5 10.5t16.5 9.5q15 9 29 9q17 1 31 -13q28 -24 28 -66q0 -37 -22 -59q-18 -18 -59.5 -45t-159 -64t-255.5 -37q-365 0 -574.5 194.5t-209.5 526.5z" />
<glyph unicode="D" horiz-adv-x="1662" d="M78 65.5q0 28.5 17.5 48t45.5 15.5q15 -2 28 -2q34 -1 52 11q25 16 33 71q20 127 21 507v39q0 346 -17 449q-2 20 -8 33.5t-18.5 19t-20.5 7.5t-30.5 2h-35.5q-23 0 -35 17t-12 42q0 27 15.5 46.5t46.5 19.5h545q399 0 631.5 -168t232.5 -502q0 -343 -209 -533 q-207 -189 -624 -188h-9h-582q-33 -2 -50 17.5t-17 48zM586 1167q-7 -66 -7 -256q0 -218 9 -598q4 -113 54.5 -148.5t152.5 -35.5q199 0 312.5 142.5t113.5 404.5q0 121 -25 220t-79 185t-157.5 133.5t-246.5 47.5q-70 0 -96.5 -20.5t-30.5 -74.5z" />
<glyph unicode="E" horiz-adv-x="1308" d="M84 61q0 31 18.5 52.5t44.5 17.5q14 -2 26 -2q42 1 64 27q29 34 31 77q8 137 8 484.5t-8 507.5q-2 40 -70 40q-19 0 -42 -3q-29 -2 -46.5 18t-17.5 51q0 27 16.5 46.5t47.5 17.5q141 -7 443 -9q43 0 84 -1q243 0 390 8h16q88 0 88 -56q0 -5 -1 -12q-16 -137 -21 -215 q-6 -61 -78 -61q-65 0 -65 48v12q0 91 -64 122q-68 33 -264 33q-100 0 -104 -97q-4 -47 -6 -165v-50q0 -78 4 -114q4 -61 51 -66q11 -1 43 -2q16 0 38 1q64 1 85 3q47 4 67.5 25.5t20.5 81.5q0 27 20.5 43t46.5 16q31 0 51.5 -17.5t18.5 -50.5q-5 -94 -5 -187q0 -70 3 -140 v-7q0 -36 -20 -54q-22 -20 -52 -19q-29 0 -50.5 16.5t-18.5 44.5v12q0 88 -82 99q-27 2 -87 3h-35q-31 0 -44 -1q-43 -6 -49 -68q-5 -52 -5 -115q0 -94 11 -212q4 -61 33.5 -88t103.5 -27q72 0 111 6q92 8 155.5 67.5t85.5 151.5q14 61 70 62q37 0 63 -31q17 -21 17 -50 q0 -13 -4 -28q-41 -139 -64 -272q-10 -37 -63 -39q-113 0 -307.5 5t-421.5 5q-39 0 -118 -5t-95 -5q-33 -2 -50.5 17.5t-17.5 47.5z" />
<glyph unicode="F" horiz-adv-x="1204" d="M80 61.5q0 28.5 16.5 49t42.5 18.5q10 -1 19 -1q38 0 61 14q29 16 35 36.5t8 50.5q10 160 10 426q0 236 -8 555q-2 38 -26 48q-18 8 -53 7q-13 0 -29 -1q-29 -4 -46.5 16t-17.5 49t16.5 48.5t47.5 17.5q156 -9 450 -9h38q266 0 415 7h13q50 -1 66 -15q18 -16 19 -53 q-12 -147 -24 -233q-4 -32 -41 -46q-18 -7 -36 -7q-18 1 -35 7q-34 14 -32 46q1 11 1 21q0 84 -58 116q-66 35 -252 35q-61 0 -83 -23.5t-24 -71.5q-6 -197 -6 -387q0 -57 58 -57q96 0 127 2q82 6 105.5 28.5t23.5 88.5q0 23 19.5 35t48 12t50 -16.5t19.5 -47.5 q-5 -102 -5 -196q0 -71 3 -137q2 -37 -19.5 -55.5t-52.5 -18.5q-29 0 -49.5 13t-20.5 36q0 63 -23.5 93t-80.5 32q-117 0 -143 -2q-55 0 -60 -57q-3 -54 -3 -107q0 -106 11 -209q6 -55 44 -75q25 -13 80 -12q28 0 63 3q33 2 50 -17.5t17 -50t-19 -52t-54 -19.5q-74 4 -295 5 h-61q-174 0 -257 -5q-31 -2 -47 17.5t-16 48z" />
<glyph unicode="G" horiz-adv-x="1583" d="M88 696q0 324 219 522.5t611 198.5q178 0 327.5 -46t153.5 -105q2 -22 2 -57q0 -77 -12 -218q-8 -51 -82 -51q-29 0 -51.5 11.5t-24.5 29.5q-12 131 -101.5 211t-255.5 80q-201 0 -320.5 -147.5t-119.5 -368.5q0 -293 142.5 -457t347.5 -164q94 0 151 41q35 35 35 98 q0 72 -2 136q-4 59 -39 63q-12 2 -39 2q-40 0 -115 -4q-29 -2 -45 20.5t-16 53t17.5 51t50.5 18.5q132 -13 274 -13q130 0 268 11q35 2 53.5 -16t18.5 -47q0 -27 -14.5 -47.5t-36.5 -18.5q-10 1 -18 1q-32 0 -45 -12q-17 -15 -17 -50q-2 -76 -2 -137t2 -107 q0 -47 -16.5 -69.5t-65.5 -42.5q-201 -92 -475 -93q-342 0 -551 194.5t-209 528.5z" />
<glyph unicode="H" horiz-adv-x="1835" d="M72 61.5q0 26.5 16 46t45 17.5h57.5t51 20.5t22.5 61.5q4 346 4 574q0 380 -12 431q-14 56 -71 56q-11 0 -23 -2q-25 -4 -40.5 16.5t-15.5 48.5q0 63 56 64q168 -5 294.5 -5t211.5 5q69 0 69 -58q0 -31 -17.5 -53t-41.5 -20q-18 2 -33 2q-31 0 -45 -10q-20 -14 -20 -64 l-2 -342q0 -78 65 -86q23 -2 104 -3q61 0 154 2q217 3 291 11q31 4 51.5 23.5t22.5 42.5q1 89 1 157q0 170 -7 209q-11 63 -85 63q-9 0 -18 -1q-25 -2 -39 17.5t-14 45.5q0 29 16.5 47.5t42.5 16.5q98 -7 220.5 -7t269.5 7h4q65 0 65 -58q0 -27 -15 -49t-34 -20h-18 q-41 0 -55 -8q-18 -10 -23 -43q-4 -33 -6 -467v-137q0 -318 8 -416q5 -43 27 -57q17 -10 58 -10q12 0 26 1q33 2 50 -17.5t17 -47.5q0 -31 -17.5 -51.5t-47.5 -18.5q-64 5 -202 5t-349 -5q-31 0 -48.5 19.5t-17.5 45.5q0 29 16.5 47.5t43.5 16.5q29 -2 56.5 -1t48 24.5 t22.5 70.5q4 85 4 167t-4 161q-2 39 -20.5 52t-53.5 19q-62 7 -196 7q-25 -1 -53 -1q-175 -2 -280 -10q-39 -4 -57 -20t-22 -57q-6 -81 -6 -158q0 -98 10 -189q4 -45 24 -57q13 -8 47 -8q17 0 39 2q31 2 47.5 -16.5t16.5 -44.5q0 -29 -17.5 -50.5t-46.5 -19.5 q-186 5 -324.5 5t-228.5 -5q-33 -2 -51 18.5t-18 47z" />
<glyph unicode="I" horiz-adv-x="860" d="M76 68q0 29 14 47t43 16q19 -2 36 -2q85 0 95 61q12 79 12 427v105q-2 442 -12 486q-6 30 -36 48q-20 12 -47 13q-13 0 -27 -3q-27 -2 -41.5 15t-14.5 46t16.5 49.5t47.5 18.5q133 -8 262.5 -8t255.5 8q37 0 54.5 -19.5t17.5 -46t-15.5 -47t-38.5 -18.5q-20 3 -35 3 q-27 1 -43 -9q-24 -14 -30 -52q-8 -33 -8 -472t14 -541q6 -41 32 -53q22 -10 77 -9h20q31 2 47 -17.5t16 -45.5q0 -29 -17 -51.5t-46 -20.5q-163 8 -307.5 8t-270.5 -8q-35 -2 -53 19.5t-18 52.5z" />
<glyph unicode="J" horiz-adv-x="813" d="M-164 -260q0 47 32 88t81 41q53 0 115.5 -63.5t91.5 -63.5q35 0 62.5 43t33.5 115q9 134 9 388q0 145 -3 328q-8 506 -16 570q-6 47 -32 66q-21 15 -75 15q-11 0 -24 -1q-29 -2 -45.5 18.5t-16.5 48.5q0 27 16.5 45.5t47.5 16.5q109 -8 250 -8t313 8h4q61 0 61 -60 q0 -29 -13 -50t-32 -19q-15 1 -29 1q-41 0 -64 -9q-30 -13 -38 -58q-1 -8 -1 -46q0 -104 8 -438q4 -185 4 -335q0 -218 -9 -363q-14 -197 -157.5 -316.5t-317.5 -119.5q-96 0 -176 43t-80 115z" />
<glyph unicode="K" horiz-adv-x="1599" d="M76 68q0 29 14 47t43 16q19 -2 36 -2q87 0 97 61q12 76 12 388q0 66 -1 144q-3 440 -11 484q-6 34 -36 50q-20 11 -47 11q-13 0 -29 -3q-25 -2 -40.5 16t-15.5 47t16.5 49.5t47.5 18.5q133 -8 263 -8t257 8q35 0 52.5 -19.5t17.5 -46t-15.5 -48t-36.5 -19.5q-20 3 -37 3 q-27 -1 -43 -9q-24 -14 -30 -52q-8 -33 -8 -471t14 -540q6 -39 32 -53q20 -10 68 -10q14 0 31 1q31 2 47.5 -17.5t16.5 -48t-17.5 -50t-46.5 -19.5q-164 8 -309 8t-271 -8q-35 -2 -53 19.5t-18 52.5zM682 614q-24 37 -24 66q0 32 28 57q59 51 188.5 197.5t180.5 222.5 q19 29 19 53q0 14 -6 26q-16 27 -58 27q-8 0 -17 -1q-29 -2 -46 19.5t-17 50t17.5 47t51.5 16.5q70 -6 197.5 -6t310.5 6q33 0 52.5 -19.5t19.5 -48.5q0 -31 -20.5 -51.5t-57.5 -15.5q-7 1 -14 1q-78 0 -189 -102q-133 -117 -327 -362q-16 -23 -16 -44q0 -17 10 -34 q414 -602 581 -606q37 0 37 -62q0 -45 -27 -57q-18 -8 -86.5 -19.5t-128.5 -11.5q-86 0 -157.5 36t-199.5 184.5t-302 430.5z" />
<glyph unicode="L" horiz-adv-x="1253" d="M82 63q0 29 17.5 49.5t45.5 18.5q9 -1 17 -1q88 0 100 79q14 80 16 521v118q0 329 -8 360q-12 60 -87 60q-15 0 -31 -2q-29 -4 -45.5 15t-16.5 48t16.5 48.5t45.5 17.5q118 -8 265 -8t324 8h5q73 0 73 -62q0 -27 -17.5 -49t-41.5 -20q-26 2 -48 2q-116 0 -126 -62 q-14 -74 -14 -488v-20q0 -398 20 -495q12 -63 130 -71q24 -2 47 -1q86 0 138 23q68 20 113 103t59 161q8 45 62 45q57 -2 78 -58q8 -23 4 -51q-20 -137 -45 -270q-10 -52 -26 -70q-15 -16 -55 -16h-10q-35 0 -246.5 4t-401 4t-287.5 -8q-33 -2 -51.5 17.5t-18.5 49.5z" />
<glyph unicode="M" horiz-adv-x="2070" d="M80 66q0 63 61 63h5q66 0 92 51q26 53 30 158q5 170 5 331q0 254 -13 490q-2 37 -3 48.5t-8 32t-26.5 24.5t-52.5 2q-27 -2 -43 19.5t-16 49.5q0 27 16 44.5t49 15.5q49 -6 150.5 -6t177.5 4l78 2q47 -2 71.5 -28t32.5 -50q88 -258 330 -791q12 -31 34.5 -28.5t39.5 32.5 q80 152 186 407t149 378q31 76 103 76h348q86 0 86 -64q0 -25 -14.5 -44t-34.5 -17q-12 1 -22 1q-53 1 -65 -17q-16 -20 -20 -101q-7 -219 -7 -418q0 -274 13 -510q4 -53 28 -75q18 -17 60 -17q15 0 33 2q31 2 48.5 -16.5t17.5 -47t-16.5 -50t-45.5 -21.5q-2 0 -105 4 t-229 4t-237 -8q-27 -2 -41 18.5t-14 49t14 48t41 19.5q12 -1 24 -1q62 0 88 20q30 22 33 102q6 142 6 325t-6 408q0 18 -8 25.5t-19 2.5t-18 -22l-424 -973q-10 -24 -67 -24h-2q-55 0 -66 24q-276 629 -434 979q-12 23 -28.5 20t-14.5 -30q-2 -32 -2 -108.5t2 -197.5 q4 -243 12 -345q6 -111 39 -159t123 -48q29 2 45.5 -20.5t16.5 -51.5q0 -27 -14.5 -45t-39.5 -16q-87 7 -205.5 7t-267.5 -7q-27 -2 -43 19.5t-16 50.5z" />
<glyph unicode="N" horiz-adv-x="1644" d="M86 63.5q0 28.5 17.5 49t48.5 18.5q33 -2 55 8.5t34.5 24.5t20.5 46t10 54.5t4 67.5q2 78 2 194q0 192 -6 488q-4 134 -30 192q-24 55 -71 54h-7q-29 -2 -47.5 17t-18.5 48t18.5 48.5t51.5 17.5q62 -2 137 -2t162 2q10 0 22.5 -3.5t20.5 -8.5t20.5 -15t18.5 -16.5 t18.5 -21.5t16.5 -21.5t16 -23.5t14 -21q242 -344 562 -717q14 -18 34.5 -15.5t22.5 33.5q5 98 5 204q0 160 -11 339q-6 100 -36 132q-28 30 -115 30h-11q-27 -2 -44 18.5t-17 47t17 45t52 18.5q126 -4 230 -4t186 4q37 0 56.5 -18.5t19.5 -45t-16.5 -46t-41.5 -19.5 q-61 0 -79.5 -38t-22.5 -134q-6 -228 -6 -462q0 -301 10 -614q0 -23 -36 -35t-85 -12q-80 0 -100 27q-141 203 -355 485t-337 432q-12 20 -38 19.5t-26 -41.5q0 -403 17 -571q13 -129 41 -165q22 -28 90 -28q19 0 41 2q35 4 52 -17.5t17 -52.5q0 -29 -14 -48t-41 -17 q-102 7 -225.5 7t-266.5 -7q-27 -2 -42 18.5t-15 49z" />
<glyph unicode="O" horiz-adv-x="1699" d="M92 709q0 315 208 511.5t546 196.5q354 0 558 -188.5t204 -519.5q0 -322 -209 -529t-553 -207q-352 0 -553 200t-201 536zM426 784q0 -295 137 -477t336 -182q176 0 275.5 140.5t99.5 363.5q0 295 -136.5 467t-336.5 172q-176 0 -275.5 -129.5t-99.5 -354.5z" />
<glyph unicode="P" horiz-adv-x="1267" d="M94 63.5q0 28.5 15.5 49t40.5 18.5q8 0 26.5 -2t28.5 -1t23.5 6t19.5 22.5t8 44.5q5 159 5 344q0 93 -1 191q-4 298 -10 440q-2 66 -20 79q-13 10 -51 10q-12 0 -25 -1q-25 -2 -40.5 17t-15.5 46q0 29 16.5 49.5t47.5 18.5q2 0 36.5 -2t98 -4.5t135.5 -2.5q51 0 133 3.5 t133 3.5q129 0 240 -39t192.5 -138.5t81.5 -246.5q0 -233 -146 -353t-357 -120q-55 0 -62 57q-1 4 -1 8q0 44 59 57q94 20 145 103.5t51 212.5q1 146 -65 242q-62 90 -189 90h-16q-43 -2 -57.5 -23.5t-16.5 -64.5q-10 -181 -11 -377q0 -275 21 -580q4 -82 80 -90 q12 -2 28.5 -2t36 1t29.5 1q27 0 42.5 -19.5t15.5 -45.5q0 -29 -15.5 -50.5t-42.5 -19.5q-158 8 -304 8t-279 -8q-31 -2 -47.5 18.5t-16.5 49z" />
<glyph unicode="Q" horiz-adv-x="1695" d="M90 709q0 311 207 509.5t553 198.5q358 0 557 -193.5t199 -514.5q0 -207 -97.5 -380t-273.5 -268q-72 -40 -72 -80v-6q25 -90 105 -155.5t174 -65.5q43 0 106.5 24.5t73.5 24.5q31 0 47 -32q8 -20 8 -29q0 -29 -28 -45q-121 -82 -293 -82q-152 0 -282 80t-212 221 q-23 39 -45 52.5t-76 15.5q-299 20 -475 218t-176 507zM426 784q0 -295 137 -477t336 -182q176 0 275.5 140.5t99.5 363.5q0 295 -136.5 467t-336.5 172q-176 0 -275.5 -129.5t-99.5 -354.5z" />
<glyph unicode="R" horiz-adv-x="1456" d="M78 61q0 31 19.5 52.5t52.5 17.5q25 -2 48 -2t43.5 22.5t22.5 67.5q9 201 9 475v56q-1 310 -7 428q-4 55 -28 65q-12 5 -32 5t-48 -5q-27 -2 -43.5 18.5t-16.5 49.5q0 27 14.5 47t41.5 20q231 16 524 17q295 0 442.5 -89t147.5 -280q0 -242 -262 -379q-32 -14 -32 -38 q0 -17 17 -38l103 -145q104 -145 185 -226t144 -81q37 0 37 -56q0 -57 -41 -69q-135 -25 -209 -25q-76 0 -159.5 67.5t-137 142.5t-120 179.5t-82.5 126.5q-43 53 -78 54h-23q-43 0 -43 -50q0 -186 11 -264q4 -49 21 -70.5t47 -23.5q10 -1 22 -1q23 0 53 3q27 2 43 -18.5 t16 -49t-16 -50t-45 -19.5q-132 7 -275.5 7t-298.5 -7q-33 -2 -50 17.5t-17 47.5zM556 977q3 -178 7 -217q2 -31 5 -44.5t13.5 -22.5t28.5 -9h49q127 0 205 92t78 225q0 266 -303 267q-76 0 -82 -62q-2 -29 -2 -100q0 -53 1 -129z" />
<glyph unicode="S" horiz-adv-x="1155" d="M109 119q-1 16 -1 33q0 106 23 208q14 51 88 52q68 0 68 -47q0 -98 63.5 -174t173.5 -76q94 0 152.5 51t58.5 127q0 61 -46 117.5t-113.5 99.5t-148.5 98.5t-148.5 109.5t-113.5 138t-46 180q0 156 123 267.5t356 111.5q131 0 253 -25.5t142 -50.5q26 -17 26 -198 q0 -35 -1 -76q-2 -35 -32 -56.5t-66 -21.5q-63 0 -66 55q-4 111 -68.5 175.5t-169.5 64.5q-88 0 -145 -47t-57 -115q0 -80 66.5 -148.5t161.5 -123.5t189.5 -114.5t161 -147.5t66.5 -195q0 -174 -132 -296t-382 -122q-162 0 -297 46.5t-139 99.5z" />
<glyph unicode="T" horiz-adv-x="1396" d="M44 1160q3 110 9 165q1 25 23 49q20 22 66 21h8q168 -8 445 -8h115q359 2 547 8h4q72 0 80 -70q10 -149 10 -251q0 -26 -1 -48q-4 -51 -74 -51q-68 0 -68 55q-4 114 -70 176q-63 61 -175 60h-7q-66 -2 -84 -24.5t-22 -80.5q-6 -100 -6 -287q0 -70 1 -153q3 -303 19 -508 q4 -47 34 -69q22 -16 63 -15q15 0 34 2q29 4 45.5 -16.5t16.5 -49t-16.5 -50t-45.5 -19.5q-144 6 -293.5 6t-304.5 -6q-35 -2 -52 19.5t-17 50t15 48t40 17.5q12 -1 23 -1q123 0 126 83q14 218 14 669q0 125 -1 269q-2 68 -22.5 90.5t-90.5 22.5h-7q-109 0 -175 -62 q-68 -64 -72 -180q-4 -47 -65 -47q-53 0 -66 41q-4 22 -4 78q0 29 1 66z" />
<glyph unicode="U" horiz-adv-x="1599" d="M49 1331q0 27 16.5 46.5t43.5 17.5q106 -8 242.5 -8t303.5 8q72 0 72 -64q0 -29 -16.5 -48t-42.5 -17q-13 1 -24 1q-88 0 -97 -69q-9 -180 -9 -349q0 -148 7 -286q10 -199 83.5 -306t254.5 -107q162 0 237.5 100t81.5 311q4 114 4 290q0 117 -2 261q-2 84 -38 119 q-34 33 -124 33h-10q-27 -2 -43 18.5t-16 48.5q0 27 16.5 46.5t46.5 17.5q100 -8 210.5 -8t232.5 8h4q69 0 69 -62q0 -29 -16 -50t-41 -19h-6q-58 0 -82 -38q-25 -40 -29 -108q-4 -119 -4 -315.5v-243.5q-6 -586 -583 -586q-276 0 -423 141.5t-147 456.5v625q1 40 -31 58 q-26 15 -64 15q-8 0 -17 -1q-27 -4 -43.5 15.5t-16.5 47.5z" />
<glyph unicode="V" horiz-adv-x="1525" d="M-35 1331q0 27 15.5 46.5t42.5 17.5q67 -5 246 -5q135 0 333 3q61 0 62 -64q0 -27 -14.5 -47t-35.5 -18q-9 1 -17 1q-49 1 -65 -21q-11 -13 -11 -39q0 -20 7 -48q12 -57 102.5 -288.5t162.5 -387.5q16 -35 40.5 -35t40.5 33q76 160 167.5 380t113.5 304q5 19 5 34 q0 33 -20 50q-22 19 -91 19q-22 0 -48 -2q-35 -2 -54 18.5t-19 50.5q0 27 15 45.5t44 16.5q140 -6 266.5 -6t239.5 6q31 2 46 -18.5t15 -49.5q0 -27 -13 -46t-38 -17q-11 1 -21 1q-48 1 -75 -23q-33 -28 -70 -105q-141 -287 -469 -1125q-14 -35 -110 -37h-12q-84 0 -91 27 q-369 967 -491 1202q-33 61 -109 61q-9 0 -18 -1q-35 -2 -53.5 18.5t-18.5 48.5z" />
<glyph unicode="W" horiz-adv-x="2244" d="M-27 1331q0 27 15.5 46.5t42.5 17.5q102 -6 289 -6q149 0 352 4q61 0 61 -64q0 -27 -14 -47t-37 -18q-34 3 -61 3q-56 1 -82 -13q-30 -16 -30 -61q0 -14 3 -30q14 -72 83 -291t122 -356q12 -29 29.5 -30t33.5 32q70 154 164.5 405t147.5 433q6 25 50 41t93 16 q74 0 82 -33q27 -96 137.5 -406t171.5 -462q10 -18 21.5 -26.5t23.5 -2.5t19 29q117 348 182 647q3 20 3 36q1 41 -21 57q-22 17 -85 16q-22 0 -49 -2q-29 -2 -47 20.5t-18 50.5q0 25 14 41.5t41 14.5q84 -6 197 -5q132 0 305 7q27 2 42 -19.5t15 -48.5t-13 -45t-36 -16 q-7 1 -14 1q-95 0 -133 -104q-129 -332 -361 -1145q-4 -20 -43 -32.5t-86 -12.5q-78 0 -88 29q-213 588 -324 840q-18 39 -40.5 37t-38.5 -37q-164 -350 -330 -824q-14 -43 -117 -43q-86 0 -92 27q-260 852 -412 1204q-27 60 -90 60h-12q-31 -2 -48.5 17.5t-17.5 47.5z" />
<glyph unicode="X" horiz-adv-x="1595" d="M2 61.5q0 28.5 18.5 50t45.5 19.5q10 -1 19 -1q45 0 95 24q60 28 94 69q229 268 308 381q28 40 28 61q0 20 -24 58q-193 289 -344 471q-4 4 -12.5 14.5t-11.5 14.5t-12 13t-14.5 11t-16.5 9.5t-20.5 7.5t-25.5 3t-31 -1q-27 -2 -42 17.5t-15 47.5q0 27 15.5 46.5 t45.5 17.5q162 -8 308 -8t276 8q35 0 52.5 -18.5t17.5 -45.5q0 -29 -17.5 -49t-42.5 -16q-17 2 -31 2q-39 0 -57 -16q-12 -10 -13 -25q0 -17 15 -41q106 -172 191 -264q33 -29 51 -25t45 33q98 104 197 256q12 23 13 42q1 18 -27 30q-20 9 -56 9q-13 0 -27 -1 q-29 -2 -45 17.5t-16 47.5q0 63 61 64q177 -5 299 -5t189 5q35 2 52 -17.5t17 -46t-16 -47t-43 -18.5h-11q-53 0 -85 -18q-35 -20 -86 -70q-154 -162 -307 -377q-28 -40 -28 -56q0 -18 19 -59q182 -287 389 -504q31 -35 59 -46q18 -7 45 -7q15 0 32 2q33 4 51 -16.5 t18 -51.5q0 -29 -17.5 -49t-47.5 -18q-152 10 -312 10t-327 -10q-31 -2 -48.5 17.5t-17.5 49.5q0 29 16.5 48.5t47.5 17.5q15 -2 27 -2q38 -1 58 13q13 8 13 25t-16 44q-68 125 -187 260q-29 33 -51 29q-18 -4 -41 -27q-92 -86 -190 -252q-24 -32 -24 -54q0 -7 3 -15 q10 -22 58 -22q11 0 24 1q33 4 51.5 -16.5t18.5 -51.5q0 -27 -14.5 -46t-41.5 -19q-196 4 -318.5 4t-172.5 -4q-39 -2 -59.5 17.5t-20.5 48z" />
<glyph unicode="Y" horiz-adv-x="1396" d="M-10 1333q0 27 16.5 45.5t44.5 16.5q113 -10 247.5 -10t289.5 10q37 2 56.5 -17.5t19.5 -46t-16.5 -48t-39.5 -19.5q-13 2 -23 2q-43 0 -61 -25q-10 -14 -10 -32q0 -20 14 -44q88 -164 189 -295q19 -25 39 -25t41 27q123 156 194 289q18 26 18 48q0 17 -9 31 q-19 28 -72 28q-13 0 -27 -2q-27 -2 -44 18.5t-17 48.5q0 25 15 43.5t42 18.5q39 0 121 -3t123 -4q15 -1 34 -1q31 0 71 1q63 3 122 7h4q64 0 64 -60q0 -29 -16.5 -50t-41.5 -19h-7q-90 0 -169 -105q-78 -90 -194 -265.5t-134 -236.5q-12 -37 -12 -197.5t10 -252.5 q10 -80 108 -80q15 0 32 2q31 2 48 -17.5t17 -47.5q0 -31 -17.5 -51.5t-47.5 -18.5q-141 10 -286 10q-160 0 -323 -12q-37 -2 -57 19.5t-20 52.5q0 29 17 48t46 17q29 0 59.5 -1t57 15.5t31.5 49.5q8 58 8 163q0 31 -1 66q-3 154 -16 192q-31 74 -159.5 276t-186.5 277 q-62 97 -130 97h-1q-29 -2 -45 18.5t-16 48.5z" />
<glyph unicode="Z" horiz-adv-x="1292" d="M68 76q0 37 16 59q176 227 641 1004q24 43 24 70q0 42 -57 48q-60 7 -160 7h-26q-197 0 -232 -222q-12 -57 -75 -57q-27 0 -46.5 14.5t-19.5 36.5q-6 115 -6 199q0 50 2 90q8 70 84 70h4q120 -4 349.5 -4t568.5 4q20 0 32.5 -27t12.5 -59q0 -31 -13 -47 q-385 -549 -626 -1000q-20 -37 -27.5 -59.5t2.5 -42t45 -25.5q38 -6 97 -6q48 0 110 4q123 2 186.5 70.5t106.5 214.5q18 51 65 51q36 -1 60 -29q20 -23 19 -57q0 -9 -1 -18q-4 -23 -23.5 -150t-23.5 -152q-10 -31 -14 -40t-32 -19q-23 -8 -64 -8h-17h-905q-57 0 -57 80z " />
<glyph unicode="[" horiz-adv-x="692" d="M164 -199q10 289 11 854.5t-7 802.5q-2 27 16.5 39t42.5 12h97.5t114 -1t104.5 -1h80h32q25 2 36 -15t11 -48q0 -27 -13 -50.5t-32 -21.5q-25 6 -172 6q-31 0 -32 -37q-2 -4 -2 -14v-8q-4 -113 -4.5 -663t4.5 -732q4 -45 53 -45q123 0 143 4q18 2 31.5 -19.5t13.5 -45.5 q0 -31 -12 -51.5t-35 -18.5q-360 0 -432 -2q-23 0 -37 17.5t-12 37.5z" />
<glyph unicode="\" horiz-adv-x="739" d="M63 1372q0 25 28 40t63 15q63 0 75 -45q111 -360 216.5 -678.5t150.5 -443.5t57 -156q23 -53 23 -69q0 -55 -62 -55q-55 0 -79.5 21.5t-36.5 68.5q-2 16 -205 621t-217 642q-12 33 -13 39z" />
<glyph unicode="]" horiz-adv-x="694" d="M-10 1444q0 31 12 48t35 15h33h80t104 1t113.5 1h99.5q23 0 41 -12t16 -39q-8 -233 -7 -802.5t13 -854.5q2 -20 -12 -37.5t-37 -17.5q-72 2 -434 2q-23 -2 -35 18.5t-12 51.5q0 25 13.5 46t31.5 19q20 -4 143 -4q49 0 54 45q4 182 4 732t-4 663v10t-1 11t-1 9.5t-1 8.5 l-3.5 7t-4.5 6t-5 3t-7 3t-10 1q-154 0 -172 -6q-18 -2 -32.5 22.5t-14.5 49.5z" />
<glyph unicode="^" horiz-adv-x="950" d="M68 889q-4 24 16 55q43 66 99.5 170.5t100.5 191.5t50 99q33 55 123 56t121 -54q10 -18 45.5 -95t89 -178.5t118.5 -199.5q43 -63 -20 -90q-57 -23 -106 6q-16 10 -23 24q-16 31 -62.5 128.5t-82 166t-52.5 88.5q-33 43 -61 0q-25 -33 -54.5 -87t-49 -92t-53.5 -109.5 t-42 -87.5q-25 -47 -92 -41q-61 6 -65 49z" />
<glyph unicode="_" horiz-adv-x="819" d="M10 -88q0 31 12.5 57.5t28.5 28.5q14 0 168 1t317.5 3t223.5 8q20 2 34.5 -27.5t14.5 -66.5q0 -74 -49 -74q-391 6 -688 -8q-61 0 -62 78z" />
<glyph unicode="`" horiz-adv-x="651" d="M86.5 1451.5q9.5 21.5 46.5 21.5q4 0 71.5 1t90.5 1q37 0 57 -39q61 -129 164 -283q27 -37 -41 -57q-76 -18 -110 8q-58 76 -261 297q-27 29 -17.5 50.5z" />
<glyph unicode="a" horiz-adv-x="1089" d="M68 225q0 78 51 133.5t127 85t153.5 49t142 39t81.5 41.5q16 27 16 78q0 82 -34 126t-93 44q-47 0 -86 -17.5t-51 -45.5q-4 -14 3 -49t7 -47q0 -41 -32.5 -71t-100.5 -30q-70 0 -108 37t-38 90q0 113 152 197t338 84q154 0 235.5 -81t81.5 -224q0 -23 -5 -129.5 t-5 -167.5q0 -135 17 -168q20 -36 71 -36q14 0 29 3q18 2 31.5 -17.5t13.5 -46.5q0 -53 -39 -67q-166 -55 -264 -55q-43 0 -80 73q-12 18 -29 10q-4 -2 -50 -25.5t-105.5 -40.5t-126.5 -17q-143 0 -223 70.5t-80 174.5zM362 250q0 -45 33 -83t99 -38q133 0 145 195v35.5 t-9 41t-26 15.5q-33 -8 -45 -10.5t-49 -13.5t-55.5 -22.5t-44 -28.5t-37 -39.5t-11.5 -51.5z" />
<glyph unicode="b" horiz-adv-x="1179" d="M-12 1403q0 25 14 45t41 20q125 0 330 62q17 0 35 -22q14 -18 15 -49q0 -7 -1 -15q-12 -88 -12 -434q0 -680 22 -830q41 -57 125 -57q104 0 170 104.5t66 257.5q-1 332 -189 332q-102 0 -102 64q0 39 41 63.5t119 24.5q197 0 319.5 -119t122.5 -354q0 -240 -156.5 -381.5 t-415.5 -141.5q-123 0 -216 17.5t-137 43t-44 52.5q9 158 9 438q0 93 -1 200q-4 427 -18 552q-2 29 -5 40t-20.5 22.5t-50.5 7.5q-31 -2 -46 14t-15 43z" />
<glyph unicode="c" horiz-adv-x="1026" d="M72 457q0 227 152.5 369.5t404.5 142.5q90 0 165.5 -22t98.5 -40q31 -25 31 -272q0 -16 -23.5 -32.5t-50.5 -16.5q-43 0 -53 45q-41 184 -179 184q-102 0 -176.5 -81t-74.5 -220q0 -158 81.5 -251t217.5 -93q125 0 190 82q18 25 45 24q25 0 43.5 -22.5t18.5 -48.5 q0 -14 -13 -43q-37 -86 -145.5 -137.5t-241.5 -51.5q-219 0 -355 140.5t-136 343.5z" />
<glyph unicode="d" horiz-adv-x="1243" d="M76 481q0 225 143 353.5t381 128.5q55 0 131 -11q31 -2 40 11.5t9 60.5q0 246 -2 262q-4 45 -22 55q-13 7 -40 7q-13 0 -30 -2q-31 -2 -49.5 16t-18.5 43t16.5 43t43.5 18q102 0 222 32t122 32q20 0 31.5 -24.5t7.5 -61.5q-10 -143 -16 -570q-3 -183 -3 -326 q0 -191 5 -310q3 -38 29 -60q18 -16 45 -15q12 0 26 3q23 4 36 -14.5t13 -47.5q0 -49 -33 -63q-35 -16 -131 -38.5t-135 -22.5q-23 0 -61 51q-27 36 -48 36q-9 0 -18 -6q-114 -81 -241 -81h-3q-195 0 -322.5 128t-127.5 373zM383 532q0 -170 61.5 -277.5t173.5 -107.5 q68 0 105 42t45 94q7 97 7 228v33q-1 152 -9 175q-18 41 -65 69.5t-119 28.5q-86 0 -142.5 -77.5t-56.5 -207.5z" />
<glyph unicode="e" horiz-adv-x="1042" d="M74 451q0 219 145.5 368.5t384.5 149.5q166 0 265.5 -101.5t99.5 -232.5q0 -49 -25 -84t-78 -39q-45 -4 -218 -10t-220 -8q-57 -2 -57 -64q0 -119 84 -190.5t194 -71.5q119 0 205 78q16 14 35 14q27 0 45 -24.5t18 -55.5q0 -20 -12 -37q-122 -161 -384 -161h-3 q-240 0 -359.5 132t-119.5 337zM393 645q0 -27 37 -27q170 0 240.5 14.5t70.5 61.5q0 45 -38.5 87t-98.5 42q-86 0 -148.5 -64.5t-62.5 -113.5z" />
<glyph unicode="f" horiz-adv-x="815" d="M66 63.5q0 28.5 15 49t39.5 18.5t45 -2t34 18.5t15.5 57.5q6 84 6 173t-2 204.5t-2 177.5q0 29 -11 37t-34 8h-33q-27 -2 -42 19.5t-15 49.5q0 63 53 64q88 0 101 147q18 215 120.5 330t309.5 115q133 0 221 -58.5t88 -136.5q0 -51 -38 -93t-101 -42q-66 0 -103 38 t-37 83q0 74 -78 74q-31 0 -53 -12.5t-35.5 -43t-21.5 -59.5t-11 -85t-4 -93t-1 -111q0 -35 9 -43t40 -8q66 0 164 6q33 2 49 -18.5t16 -49t-14.5 -48t-36.5 -19.5q-50 2 -97.5 2t-91.5 -2q-23 0 -30.5 -11.5t-7.5 -39.5q0 -379 12 -555q6 -79 106 -79q24 0 54 5 q29 2 44 -17.5t15 -48t-16.5 -50t-42.5 -19.5q-130 6 -264 6t-273 -6q-29 -2 -45 18.5t-16 49z" />
<glyph unicode="g" horiz-adv-x="1120" d="M23 -166q0 125 221 189q18 4 20 15t-14 19q-49 18 -73.5 30.5t-48.5 37.5t-24 57q0 35 34 71t81 69t57 43q8 10 8.5 19t-8 18.5t-17.5 16.5t-26.5 19.5t-27.5 22.5q-100 90 -101 213q0 135 112 215t304 80q47 0 146.5 -15.5t156.5 -15.5q29 0 209 16q31 2 45.5 -16 t14.5 -47q0 -39 -19.5 -75t-44.5 -36q-27 0 -76 9.5t-59 9.5t-14.5 -8.5t4.5 -22.5q41 -55 41 -119q0 -131 -116 -210t-288 -79q-49 0 -91 -24.5t-42 -42.5q0 -23 57 -41q31 -8 189 -35t225 -47q205 -43 205 -233q0 -147 -160 -251t-416 -104q-209 0 -336.5 75t-127.5 177z M295 -121q0 -72 65.5 -116t180.5 -44q96 0 158.5 40t62.5 94q0 74 -82 102q-115 37 -238 37q-63 0 -105 -33t-42 -80zM385 686q0 -78 39 -140.5t115 -62.5q57 0 86.5 40t29.5 98q0 88 -42.5 155.5t-114.5 67.5q-49 0 -81 -43t-32 -115z" />
<glyph unicode="h" horiz-adv-x="1339" d="M43 68q0 29 14.5 47t38.5 16q13 -2 24 -2q77 0 81 72q6 95 6 406v169q-2 456 -10 514q-4 31 -19.5 43.5t-54.5 5.5q-29 -4 -45.5 16.5t-16.5 49.5q0 25 13.5 43t38.5 18q82 2 152.5 15.5t123.5 30t68 18.5q36 -3 36 -62q0 -11 -1 -24q-12 -103 -12 -380q0 -87 1 -190 q0 -40 24 -40q12 0 30 10q119 119 319 119q303 0 303 -334q0 -14 -5 -214q-2 -77 -2 -127q0 -80 5 -91q2 -23 5 -36.5t22.5 -23.5t54.5 -6q29 2 45 -15.5t16 -45.5q0 -31 -17 -53.5t-44 -20.5q-96 4 -201.5 4t-218.5 -4q-33 -2 -51 20.5t-18 53.5q0 25 13 43t36 18 q33 -2 46 12.5t15 57.5q9 174 9 295q0 69 -3 120q-12 174 -147 175q-90 -2 -155.5 -89.5t-67.5 -179.5q-4 -109 -4 -184q0 -94 6 -135q0 -18 3 -28.5t10 -24t23.5 -17.5t42.5 -2q29 2 45.5 -17.5t16.5 -48t-16.5 -49t-45.5 -20.5q-186 3 -301.5 3t-162.5 -3 q-33 -2 -50.5 19.5t-17.5 52.5z" />
<glyph unicode="i" horiz-adv-x="722" d="M63 61.5q0 28.5 15.5 49t42 18.5t45 -2t32 14.5t23.5 48.5q16 59 16 290q-1 7 -1 15q0 244 -15 287q-7 23 -23 28q-9 3 -29 3q-16 0 -40 -2q-25 -2 -40 18.5t-15 49.5q0 27 14 46t41 19q225 2 340 29q50 -9 50 -64q0 -6 -1 -12q-7 -75 -7 -213q0 -70 2 -154 q5 -254 17 -335q4 -31 8 -41q2 -9 24 -19q15 -7 43 -7q11 0 24 1q31 2 46 -15.5t15 -46t-16.5 -51t-42.5 -20.5q-130 7 -248 7q-134 0 -252 -9q-31 -2 -49.5 18.5t-18.5 49zM184 1290q0 76 47.5 118t122.5 42q164 0 164 -156q0 -72 -43 -119t-121 -47q-80 0 -125 45t-45 117 z" />
<glyph unicode="j" horiz-adv-x="659" d="M-88 -326q0 37 28.5 66t73.5 29q18 0 55 -9.5t60 -9.5q33 0 46 23.5t26 91.5q16 135 16 429v67q-2 346 -12 405q-6 37 -40 44q-14 3 -31 3q-23 0 -52 -6q-33 -4 -50.5 16.5t-17.5 53.5q0 27 15.5 47t42.5 20q264 4 385 29q23 -4 40 -22.5t13 -53.5q-5 -49 -5 -215 q0 -104 2 -253t2 -251q0 -163 -5 -205q-14 -190 -154.5 -292.5t-308.5 -102.5q-63 0 -96 28.5t-33 67.5zM168 1290q0 76 47 118t121 42q164 0 164 -156q0 -72 -43 -119t-121 -47t-123 45t-45 117z" />
<glyph unicode="k" horiz-adv-x="1351" d="M41 63.5q0 28.5 16.5 49t44.5 18.5h13q77 0 84 68q8 117 8 566t-6 517q-3 42 -21 54q-13 8 -38 9q-11 0 -25 -2q-29 -4 -46.5 16.5t-17.5 49.5q0 25 14.5 43t38.5 18q154 2 332 60q56 -22 56 -82l-12 -637q0 -59 1 -119q2 -396 13 -487q2 -23 4 -31t10 -23.5t28.5 -19.5 t53.5 0q29 2 45 -16.5t16 -47t-16 -51t-45 -20.5q-124 6 -246 6t-242 -6q-31 -2 -47 18.5t-16 49zM560 468q-1 6 -1 13q0 30 27 60q12 14 76.5 75.5t97.5 102.5q25 27 31 49.5t-9.5 35.5t-52.5 11q-23 0 -36 18.5t-13 43.5q0 29 18.5 49t49.5 18q63 -4 173 -4h79 q168 2 243 8q31 2 47.5 -18.5t16.5 -46.5q0 -31 -18.5 -52.5t-49.5 -15.5q-12 1 -25 1q-34 0 -78 -7q-62 -10 -100 -33q-121 -76 -198 -168q-16 -18 -16 -41t16 -49q74 -113 216 -254t230 -141q43 0 43 -60q0 -33 -8 -40q-14 -23 -99 -35.5t-155 -12.5q-185 1 -453 392 q-45 65 -52 101z" />
<glyph unicode="l" horiz-adv-x="692" d="M41 63.5q0 28.5 16.5 49t44.5 18.5h13q77 0 84 68q9 155 9 516v75q-1 420 -7 492q-3 42 -21 54q-13 8 -38 9q-11 0 -25 -2q-29 -4 -45.5 16.5t-16.5 49.5q0 25 13.5 43t37.5 18q154 2 332 60q56 -22 56 -82l-12 -637v-119q2 -396 14 -487q2 -23 4 -31t10 -23.5 t28.5 -19.5t53.5 0q29 2 45 -16.5t16 -47t-16 -51t-45 -20.5q-124 6 -246 6t-242 -6q-31 -2 -47 18.5t-16 49z" />
<glyph unicode="m" horiz-adv-x="1964" d="M66 805q0 41 36 53q258 86 273 86q20 0 42 -29.5t36 -74.5q9 -39 30 -39q15 0 37 22q45 49 129 94.5t191 45.5q98 0 154.5 -36t95.5 -106q8 -16 23 -16q16 0 38 20q41 45 132 91.5t198 46.5q145 0 222 -80t77 -217q0 -52 -6 -226q-3 -91 -2 -153q0 -56 2 -88 q4 -37 22 -55q14 -14 48 -14q11 0 24 1q27 2 43 -18.5t16 -49t-14.5 -48t-38.5 -19.5q-146 6 -263.5 6t-207.5 -6q-27 -2 -40 18.5t-13 49t12 49t35 18.5q9 -1 17 -1q64 0 71 69q9 101 9 223q0 106 -7 227q-6 76 -40 112t-85 36q-86 0 -145.5 -63.5t-65.5 -158.5 q-11 -189 -11 -293q0 -52 3 -83q4 -55 22 -66q14 -6 37 -2q29 2 43.5 -16.5t14.5 -47t-14.5 -50t-39.5 -21.5q-2 0 -202 4q-67 1 -112 1q-90 0 -91 -5q-27 -2 -43.5 18.5t-16.5 51.5q0 29 14.5 47t37.5 16q29 -4 45 13.5t20 56.5q8 114 8 222.5t-8 209.5q-10 166 -131 166 q-88 0 -147.5 -83t-65.5 -208q-1 -55 -1 -102q0 -140 9 -203q4 -35 20.5 -56.5t49.5 -15.5q23 2 36 -16.5t13 -46.5q0 -31 -14.5 -51.5t-40.5 -18.5q-135 9 -249.5 9t-207.5 -9q-27 -2 -40 16.5t-13 47t14 50t37 19.5q10 -1 19 -1q73 0 83 73q8 48 8 201q-1 10 -1 20 q0 170 -13 240q-11 60 -33 76q-12 9 -31 9q-15 0 -34 -6q-23 -6 -41 15.5t-18 48.5z" />
<glyph unicode="n" horiz-adv-x="1357" d="M68 803q0 41 38 55q45 16 150.5 51t122.5 35q39 0 76 -104q11 -34 30 -34q12 0 27 13q166 145 344 146q156 -1 242 -97q82 -92 82 -253v-15q0 -51 -4.5 -195.5t-4.5 -211.5q0 -16 3.5 -27.5t11.5 -22t26.5 -14.5t47.5 -2q31 2 46 -16.5t15 -44.5q0 -29 -16.5 -50.5 t-44.5 -19.5q-120 9 -229 9t-208 -9q-31 -4 -48 19.5t-17 54.5q0 27 13 43t38 14q37 -4 53.5 8t18.5 58q8 139 8 397q0 109 -43 158t-103 49q-90 0 -154.5 -80t-70.5 -201q-4 -81 -4 -150q0 -96 8 -167q4 -27 8.5 -40.5t19.5 -23.5t44 -8q27 2 42 -15.5t15 -43.5 q0 -29 -15 -50.5t-42 -19.5q-150 6 -264.5 6t-192.5 -6q-31 -4 -48 14.5t-17 47t16 50t43 17.5q11 -1 21 -1q78 0 81 71q5 44 5 161v63q-2 169 -11 241q-9 62 -33 78q-12 9 -31 8q-17 0 -38 -7q-23 -6 -40 14.5t-17 47.5z" />
<glyph unicode="o" horiz-adv-x="1191" d="M74 451q0 252 151 385t387 133q221 0 363.5 -125t142.5 -361q0 -238 -147.5 -374t-384.5 -136q-223 0 -367.5 127t-144.5 351zM369 539q0 -160 74.5 -284t191.5 -124q190 0 190 266q0 59 -13 127t-42 136.5t-83 113.5t-124 45q-88 0 -141 -74.5t-53 -205.5z" />
<glyph unicode="p" horiz-adv-x="1224" d="M39 797q0 47 55 67q164 70 207 76q18 4 46 -8t40 -45q8 -25 28.5 -31t45.5 14q35 29 53 43.5t77.5 35t129.5 20.5q182 0 306 -135.5t124 -339.5q0 -211 -125 -366t-328 -155q-76 0 -111.5 29t-35.5 68q0 55 47 55q4 0 19.5 -1t29.5 -1q193 0 193 330q0 346 -203 346 q-129 0 -160 -170q-10 -137 -10 -473v-55q0 -164 10 -294q2 -27 8.5 -40t30.5 -22q21 -7 56 -7h16q59 0 59 -68q0 -31 -16.5 -52t-42.5 -19q-146 8 -274 8q-109 0 -205 -6q-31 -4 -48.5 16.5t-17.5 50.5q0 29 14.5 49.5t40.5 18.5q9 -1 17 -1q32 0 49 13q22 16 24 70 q8 131 8 475q1 23 1 44q0 302 -7 331q-12 59 -27.5 74.5t-56.5 0.5q-27 -8 -47 9.5t-20 44.5z" />
<glyph unicode="q" horiz-adv-x="1161" d="M76 442q0 233 154.5 380t398.5 147q168 0 285 -43q116 -42 116 -88l-14 -572q0 -230 10 -446q0 -25 2 -35t9 -24.5t25.5 -17.5t49.5 -1q25 2 41 -18.5t16 -49.5q0 -31 -19.5 -53t-57.5 -20q-182 6 -294 6q-90 0 -134 -4q-31 -2 -49.5 21.5t-18.5 56.5q0 61 51 61 t72.5 17.5t25.5 60.5q9 212 9 414v117q-4 257 -15 366q-4 47 -39.5 75.5t-97.5 28.5q-98 0 -155.5 -84t-57.5 -243q0 -315 170 -363q18 -6 49 -6q72 0 72 -62q0 -90 -191 -90q-188 0 -300.5 117t-112.5 352z" />
<glyph unicode="r" horiz-adv-x="960" d="M70 70q0 27 12 46t35 17q14 -2 25 -2q82 0 89 72q9 51 9 182v41q-2 164 -13 238q-13 62 -33 78q-10 8 -28 8q-17 0 -41 -7q-20 -6 -37.5 13.5t-17.5 46.5q0 39 39 55q43 18 144 52t118 34q47 0 84 -108q17 -42 36 -42q12 0 25 19q125 156 260 156q78 0 122 -38t44 -101.5 t-43 -102.5t-102 -39q-25 0 -72 13.5t-74 13.5q-125 0 -135 -121q-6 -89 -6 -168q0 -122 14 -221q12 -74 90 -74q13 0 27 2q27 2 42 -17.5t15 -47.5q0 -31 -14 -52.5t-39 -19.5q-134 7 -262 7t-250 -7q-31 -2 -47 20.5t-16 53.5z" />
<glyph unicode="s" horiz-adv-x="929" d="M90 92q-3 21 -3 49q0 49 9 119q2 23 29 40t55.5 17t34.5 -18q59 -188 201 -188q57 0 95 27.5t38 66.5q0 14 -3 26.5t-10.5 24.5t-13.5 20.5t-20.5 19.5t-21.5 17t-27.5 18.5t-27.5 16.5t-31.5 17.5t-31.5 17.5q-70 41 -104.5 63.5t-79.5 61.5t-64.5 83t-19.5 99 q0 137 108.5 209t284.5 72q98 0 190.5 -15.5t110.5 -31.5q12 -12 14 -89q1 -23 1 -42q0 -47 -4 -78q-3 -37 -59 -42q-8 -1 -15 -1q-42 0 -49 28q-16 61 -61.5 100.5t-116.5 39.5q-57 0 -93 -30t-36 -67q0 -45 49 -81.5t145 -83.5q152 -72 224.5 -137.5t72.5 -172.5 q0 -129 -108.5 -212t-288.5 -83q-160 0 -264.5 36t-108.5 83z" />
<glyph unicode="t" horiz-adv-x="847" d="M41 874q0 29 14.5 50.5t40.5 19.5h6q89 0 127 60q39 62 39 124q0 32 54 54q48 20 96 19h12q53 -3 53 -36q0 -18 -2 -66t-3 -86t-1 -42q0 -27 27 -27q145 0 221 8q33 2 49.5 -15t16.5 -46q0 -33 -20.5 -60.5t-51.5 -25.5h-203q-43 0 -47 -49q-7 -120 -7 -229t7 -208 q12 -151 105 -151h1q96 0 152 55q16 16 31 17q20 0 37.5 -22.5t17.5 -51.5q0 -23 -22 -53q-53 -68 -148.5 -104t-196.5 -36q-262 0 -262 344q0 123 6 406v12q0 39 -12 55q-12 15 -49 16q-8 0 -18 -1q-33 -4 -51.5 16.5t-18.5 52.5z" />
<glyph unicode="u" horiz-adv-x="1296" d="M41 877q0 27 16.5 47t46.5 20h22q119 0 269 19q13 2 23 2q41 0 53 -25q8 -16 9 -52v-20q0 -32 -2 -78q-3 -62 -3 -94q0 -360 2 -387q12 -149 125 -149h2q70 0 132.5 64.5t68.5 174.5q8 171 8 281v41q-1 57 -21 77q-16 16 -57 16q-8 0 -18 -1q-29 -2 -45.5 17.5 t-16.5 48.5q0 27 15.5 46t42.5 19q197 0 319 19q18 6 40 -2.5t26 -28.5t4 -87q0 -45 -2 -110q-6 -212 -6 -336q0 -74 2 -116q4 -75 24 -101q15 -18 51 -19q14 0 31 3q18 2 32.5 -16.5t14.5 -43.5q0 -51 -43 -73q-31 -14 -135 -33.5t-125 -19.5q-18 0 -46 27.5t-44 82.5 q-9 25 -29 25q-17 0 -43 -19q-141 -115 -313 -116h-7q-140 0 -207 84q-69 86 -73 243q0 31 2 187q1 78 1 131.5t-1 83.5q-2 35 -4 47t-9 31.5t-23.5 24.5t-45 1t-46 15.5t-17.5 48.5z" />
<glyph unicode="v" horiz-adv-x="1161" d="M-6 885q0 27 16.5 45t44.5 16q84 -7 196.5 -7t254.5 7h8q34 0 52 -16q20 -18 20 -45q0 -25 -14.5 -43.5t-36.5 -18.5h-11q-42 0 -54 -13q-14 -15 -1 -58q41 -168 141 -340q16 -23 38 -24t36 22q68 115 139 335q10 37 -4 61q-11 19 -48 18q-9 0 -21 -1q-29 -4 -45.5 15.5 t-16.5 48.5q0 27 14.5 44t42.5 15q96 -5 186 -5t173 5h4q61 0 61 -53q0 -31 -17 -52.5t-42 -19.5h-8q-65 0 -98 -59q-115 -221 -318 -750q-14 -39 -125 -39q-84 0 -98 27q-188 477 -316 764q-18 39 -38.5 52t-61.5 9q-25 -2 -39 16.5t-14 43.5z" />
<glyph unicode="w" horiz-adv-x="1794" d="M-6 884.5q0 26.5 18.5 46t50.5 17.5q110 -7 227.5 -7t244.5 7h4q67 0 67 -57q0 -29 -15.5 -49.5t-35.5 -18.5q-17 1 -31 1q-36 0 -48 -7q-18 -10 -9 -47q53 -197 129 -367q10 -23 31.5 -23.5t27.5 17.5q31 72 91.5 246t87.5 277q8 23 49 36t88 13q80 0 92 -35 q29 -98 101.5 -293t99.5 -242q12 -23 30.5 -23.5t26.5 17.5q49 86 119 326q5 17 5 32q-1 25 -15 45q-22 30 -80 29h-7q-27 -2 -44 18.5t-17 49.5q0 55 55 55h4q142 -5 241.5 -5t154.5 5h4q61 0 61 -53q0 -31 -17.5 -52.5t-41.5 -19.5q-9 1 -17 1q-26 0 -46 -10 q-26 -13 -36 -27.5t-26 -43.5q-41 -72 -125 -285.5t-154 -447.5q-25 -37 -125 -37q-76 0 -88 25q-10 25 -52 135.5t-87 224t-74 174.5q-12 23 -31.5 21t-25.5 -21q-129 -322 -194 -522q-23 -37 -132 -37q-74 0 -84 23q-135 360 -309 786q-10 29 -28.5 36t-57.5 5 q-27 -2 -42 16.5t-15 45z" />
<glyph unicode="x" horiz-adv-x="1273" d="M47.5 109.5q20.5 23.5 50.5 21.5q14 -2 28 -2q67 0 122 49q49 47 170 211q25 33 26.5 50.5t-16.5 49.5q-66 96 -209 295q-18 16 -26.5 22.5t-29 11.5t-48.5 3q-29 -4 -45.5 14.5t-16.5 47.5q0 27 17.5 47t48.5 18q85 -7 188 -7q118 0 260 9q37 2 55.5 -16.5t18.5 -44.5 q0 -25 -14.5 -43.5t-34.5 -18.5q-35 2 -44 -10t9 -45q10 -25 88 -133q19 -19 37 -19q17 0 35 17q72 90 92 125q20 23 16 44t-47 19q-23 -2 -38 18.5t-15 45t15.5 42t43.5 15.5q90 -7 176 -7q98 0 191 9q68 0 68 -55q0 -27 -18.5 -51.5t-43.5 -22.5h-15q-97 0 -141 -49 q-80 -84 -165 -205q-16 -22 -16 -45.5t16 -50.5q61 -94 133.5 -186t105.5 -117q25 -18 33 -24.5t30.5 -11.5t53.5 -3q29 2 44 -17.5t15 -48t-17 -49t-48 -16.5q-70 6 -144 8q-50 1 -87 1h-35q-46 -1 -118.5 -5t-101.5 -4q-37 -2 -55 17.5t-18 47.5q0 25 14 45.5t33 18.5 q37 -2 50 12.5t-1 38.5q-37 66 -100 148q-21 25 -41 25q-18 0 -33 -21q-45 -51 -96 -135q-20 -29 -12 -47.5t51 -16.5q20 2 33.5 -18.5t13.5 -47t-15.5 -47t-44.5 -18.5q-120 3 -207 3q-115 0 -168 -5h-5q-72 0 -72 59q0 31 20.5 54.5z" />
<glyph unicode="y" horiz-adv-x="1181" d="M-8 887q0 27 15.5 45t45.5 16q141 -5 256.5 -5t204.5 5h8q35 0 54 -16q20 -19 20 -45q0 -25 -16.5 -45.5t-40.5 -18.5q-8 1 -16 1q-41 0 -49 -20q-4 -8 -4 -19q0 -19 11 -46q20 -74 62.5 -166t68.5 -135q20 -33 49 -31.5t46 27.5q50 88 120 293q13 30 13 53q0 12 -4 22 q-9 22 -52 22q-9 0 -20 -1q-27 -2 -44.5 17.5t-17.5 46.5q0 25 16.5 43t45.5 18q120 -3 210 -3t150 3h4q59 0 60 -61q0 -27 -14.5 -46.5t-38.5 -17.5h-8q-34 0 -61 -15q-30 -17 -43 -35.5t-34 -55.5q-74 -143 -323 -746q-160 -389 -400 -389q-78 0 -123 39t-45 94 q0 25 7.5 45.5t26 36t30.5 25.5t43 20.5t43 13.5t48 11t42 10q74 16 119 58t51 92q-8 78 -127 319.5t-229 431.5q-28 47 -103 47h-6q-23 -2 -37 17.5t-14 44.5z" />
<glyph unicode="z" horiz-adv-x="1073" d="M68 96q0 29 16 49q301 340 479 598q18 26 18 43q0 24 -38 29q-40 4 -84 4q-62 0 -133 -8q-29 -2 -48.5 -32.5t-27.5 -66.5t-23 -65t-39 -29q-35 0 -57 17.5t-22 38.5q0 74 -1.5 137t-1.5 68q0 10 2.5 18t5.5 14.5t9 11.5t10 8t12.5 5t13.5 3t14 2t13 1h13.5h11.5 q604 0 725 2q41 0 41 -74q0 -49 -27 -77q-104 -117 -250.5 -307.5t-212.5 -292.5q-16 -20 -7 -43t40 -25q41 -4 82 -4q58 0 117 8q117 16 133 215q4 37 55 37q29 0 50.5 -19.5t23.5 -58.5t2 -119v-5q0 -177 -65 -179h-787q-25 0 -44 30.5t-19 65.5z" />
<glyph unicode="{" horiz-adv-x="739" d="M43 653q0 96 51 97q76 0 111 58t35 144q0 39 -15.5 149.5t-15.5 172.5q0 129 95 190.5t241 61.5q61 0 110 -8q23 -4 23 -41q0 -27 -13.5 -46.5t-35.5 -17.5q-80 2 -115 -43t-35 -117q0 -74 12.5 -180t12.5 -180q0 -55 -17.5 -96t-53.5 -64.5t-57.5 -33t-62.5 -21.5 q-16 -4 -23 -15.5t0 -22.5t27 -15q33 -12 55.5 -22.5t57.5 -36t54.5 -66.5t19.5 -94q0 -76 -7.5 -191t-7.5 -184q0 -170 162 -170q14 0 24.5 -18.5t10.5 -41.5q0 -39 -33 -47q-61 -12 -121 -12q-141 0 -234 67.5t-93 200.5q0 45 17.5 175t17.5 165q0 37 -3.5 60.5 t-16.5 55.5t-45 49t-81 22q-23 2 -37 36.5t-14 79.5z" />
<glyph unicode="|" horiz-adv-x="477" d="M164 -360q2 20 5 273t4 665.5t-3 900.5q0 51 76 51q63 0 63 -49q-2 -68 -3 -946.5t1 -892.5q4 -59 -67 -60q-45 0 -62.5 17.5t-13.5 40.5z" />
<glyph unicode="}" horiz-adv-x="737" d="M53 -199q0 23 10.5 41.5t24.5 18.5q162 0 162 170q0 70 -8.5 184.5t-8.5 190.5q0 53 19.5 94t54.5 66.5t58.5 35.5t56.5 23q31 8 29 27.5t-27 25.5q-41 12 -62.5 21.5t-57.5 33t-53.5 64.5t-17.5 96q0 74 12.5 180.5t12.5 180t-35 117.5t-117 42q-20 -2 -32.5 18.5 t-12.5 45.5q0 37 23 41q49 8 111 8q145 0 240 -61.5t95 -190.5q0 -61 -16 -171t-16 -151q0 -86 35.5 -145t111.5 -57q51 0 51 -97q0 -43 -14 -78.5t-37 -37.5q-51 -4 -83 -21.5t-45 -49.5t-16 -55.5t-3 -60.5q0 -33 18.5 -163t18.5 -177q0 -133 -94.5 -200.5t-235.5 -67.5 q-61 0 -119 12q-33 8 -33 47z" />
<glyph unicode="~" horiz-adv-x="1196" d="M88 553q0 25 13.5 67t40 92t80.5 86t124 36q84 0 182.5 -48.5t182.5 -96.5t135 -48q80 0 125 92q14 25 45 25q33 0 63.5 -20.5t30.5 -41.5q0 -31 -13.5 -74.5t-44 -101t-98 -97.5t-159.5 -40q-72 0 -147 31.5t-127 69.5t-109.5 70t-98.5 32q-14 0 -25.5 -4t-17.5 -6.5 t-14 -13.5t-10 -14t-11.5 -18.5t-9.5 -17.5q-14 -23 -49 -23q-31 0 -59.5 19.5t-28.5 44.5z" />
<glyph unicode="&#xa1;" horiz-adv-x="620" d="M100 -221q0 43 25 108.5t53.5 130t53 182t24.5 255.5q0 47 59 47q56 0 56 -43q0 -145 23.5 -265t51 -182.5t51 -127t23.5 -113.5q0 -86 -57 -140.5t-152 -54.5q-86 0 -148.5 56.5t-62.5 146.5zM131 831q0 80 47 132.5t133 52.5t135.5 -49t49.5 -127q0 -84 -50.5 -131 t-134.5 -47q-180 0 -180 169z" />
<glyph unicode="&#xa2;" horiz-adv-x="1032" d="M59 451q0 199 124 342t345 172q20 0 21 41q0 6 -1 46t-1 60q-2 25 19.5 39t49.5 14q52 1 52 -26q0 -12 -2 -67.5t-2 -59.5q0 -35 32 -35q121 0 195 -53q8 -4 16 -66.5t13 -124.5l4 -59q0 -16 -14.5 -30.5t-35.5 -14.5q-41 0 -47 41q-8 39 -42.5 89t-92.5 72 q-29 4 -28 -18q-14 -74 -11 -627q0 -27 9.5 -40t17.5 -13h8q90 0 182 107q14 20 39 20q27 0 43.5 -22.5t5.5 -51.5q-37 -78 -120.5 -133t-143.5 -71q-35 -10 -35 -45q0 -84 7 -121q2 -20 -15.5 -31.5t-42.5 -11.5q-61 0 -61 45q0 23 1 48t2 42.5t1 19.5q0 39 -31 43 q-219 14 -340 154.5t-121 325.5zM385 541q0 -223 96 -328q41 -39 53.5 -32.5t16.5 55.5q6 119 5 335.5t-5 239.5q0 4 -1 7t-11.5 8t-34.5 -9q-119 -72 -119 -276z" />
<glyph unicode="&#xa3;" horiz-adv-x="1443" d="M57 66q0 92 176 165q55 25 83 90.5t31 119t3 159.5v35q0 27 -9 37t-38 10q-8 0 -127 -4q-47 0 -47 49q0 23 12.5 41t30.5 18q92 0 119 2q39 2 48 14.5t5 55.5q-6 92 30 188.5t104.5 181.5t187 139t262.5 54q125 0 224 -48t99 -118q0 -41 -33.5 -79.5t-76.5 -38.5 q-47 0 -137.5 80.5t-135.5 80.5q-109 0 -156.5 -135t-27.5 -309q4 -61 59 -61q27 -2 108 0t128 2q41 0 41 -47q0 -27 -16.5 -46.5t-45.5 -17.5h-196q-47 -4 -59.5 -17.5t-12.5 -45.5q0 -174 -74 -306q-2 -2 -7 -9t-7 -10t-5 -9t-4 -10.5t0 -8.5t6 -6t13 -4q53 -10 193.5 -89 t214.5 -79q94 0 94 60q0 12 -4 42.5t-4 47.5q0 55 44 90t105 35q59 0 90 -57.5t31 -119.5q0 -104 -100 -161.5t-250 -57.5q-135 0 -334.5 72t-277.5 72q-37 0 -60.5 -17.5t-23.5 -42.5q0 -72 -150 -71q-123 0 -123 84z" />
<glyph unicode="&#xa4;" horiz-adv-x="1128" d="M82 188q0 27 16 43q2 0 115 107q25 23 28 35t-8 33q-29 57 -28 155q0 76 35 150q14 25 12 38t-23 29q-35 31 -77.5 72t-47.5 45q-23 20 -22 51q0 33 28.5 61.5t63.5 28.5q22 0 45 -16l129 -131q33 -35 78 -23q66 25 137 25q76 0 133 -25q31 -12 44.5 -8t37.5 29 q106 111 133 133q23 16 43 16q35 0 64 -28.5t29 -63.5q0 -27 -23 -49q-4 -4 -117 -109q-47 -39 -26 -75q39 -68 39 -136q0 -84 -29 -145q-14 -35 -13 -47t17 -29q76 -74 135 -123q16 -18 17 -43q0 -35 -29 -62.5t-64 -27.5q-29 0 -51 23q-27 23 -115 117q-18 23 -31.5 24.5 t-47.5 -8.5q-68 -25 -150 -25q-80 0 -151 25q-23 8 -34.5 6t-31.5 -22q-84 -88 -117 -117q-23 -23 -51 -23q-35 0 -63.5 28t-28.5 62zM397 563q0 -72 45 -114.5t115 -42.5q74 0 120 44t46 121q0 59 -47 100.5t-115 41.5q-70 0 -117 -42t-47 -108z" />
<glyph unicode="&#xa5;" horiz-adv-x="1572" d="M68 1333q0 27 16 45.5t45 16.5q227 -20 537 0q37 2 56 -17.5t19 -46t-16 -48t-39 -19.5q-61 8 -83.5 -23t3.5 -76q88 -164 189 -295q39 -51 79 2q123 156 195 289q29 45 7.5 79t-97.5 26q-27 -2 -44 18.5t-17 48.5q0 25 15 43.5t42 18.5q39 0 121 -3l123 -4.5t104 1 t123 6.5q68 2 67 -60q0 -29 -16 -50t-41 -19q-94 4 -176 -105q-55 -61 -182 -258q-20 -39 22 -39q156 0 193 4q20 2 33.5 -14t13.5 -41q0 -29 -11.5 -43t-37.5 -12q-100 8 -238 0q-57 -6 -69 -27q-35 -55 -35 -82q0 -14 10 -19t45 -7q90 -6 295 0q41 0 41 -56 q0 -18 -11.5 -36.5t-27.5 -18.5q-117 6 -309 2q-39 -2 -53.5 -8t-16.5 -31q-6 -150 8 -266q10 -92 140 -78q31 2 48 -17.5t17 -47.5q0 -31 -17.5 -51.5t-47.5 -18.5q-297 20 -609 -2q-37 -2 -57.5 19.5t-20.5 52.5q0 29 17.5 48t46.5 17q29 0 59.5 -1t57 15.5t30.5 49.5 q16 121 7 272q0 47 -56 47h-327q-23 -2 -35.5 14.5t-12.5 44.5q0 25 13.5 41.5t32.5 14.5q2 0 34.5 -1t71.5 -2t86 -2t78 1q41 2 50 9t-1 32q-18 41 -39 65q-16 20 -31.5 24.5t-56.5 4.5q-174 0 -190 -2q-23 -2 -35.5 12t-12.5 43q0 23 13.5 40t32.5 15q29 -4 145 -4 q37 0 49 8t0 31q-111 188 -170 266q-63 98 -131 97q-29 -2 -45 18.5t-16 48.5z" />
<glyph unicode="&#xa6;" horiz-adv-x="450" d="M150 -350q16 301 12 637q0 51 67 51q27 0 47.5 -16.5t20.5 -32.5q-4 -66 -5 -345.5t1 -291.5q4 -27 -13.5 -46.5t-60.5 -19.5q-35 0 -53.5 20.5t-15.5 43.5zM150 868q12 160 12 609q0 53 67 53q27 0 47.5 -17.5t20.5 -33.5q-4 -66 -5 -332.5t1 -276.5q4 -27 -13.5 -43 t-60.5 -16q-37 0 -54.5 16.5t-14.5 40.5z" />
<glyph unicode="&#xa7;" horiz-adv-x="1325" d="M66 877q0 168 100 294.5t248.5 187t316.5 60.5t253 -51t85 -129q0 -53 -38 -79.5t-85 -26.5q-57 0 -105 37.5t-93.5 75.5t-96.5 38q-109 0 -175 -62.5t-66 -125.5q0 -31 71 -70q784 -428 785 -922q0 -180 -105.5 -301.5t-260.5 -171t-345 -49.5q-154 0 -230.5 43 t-76.5 117q0 43 31.5 74.5t74.5 31.5q61 0 115.5 -32.5t96.5 -65.5t73 -33q115 0 192.5 57.5t77.5 116.5q0 43 -53 72q-98 47 -192.5 103.5t-207 145.5t-195.5 184.5t-139 222t-56 258.5zM373 827q0 -143 63.5 -277t157.5 -225.5t168 -145.5t129 -81q18 -6 31 -6q41 0 41 70 q0 121 -49.5 239.5t-121 204.5t-150.5 153.5t-139.5 102.5t-84.5 35q-45 0 -45 -70z" />
<glyph unicode="&#xa8;" horiz-adv-x="942" d="M123 1280q0 43 37 87t116 44q53 0 96.5 -39t43.5 -102q0 -57 -41.5 -93t-98.5 -36q-53 0 -103 32.5t-50 106.5zM526 1280q0 43 38 87t118 44q55 0 95 -39t40 -102q0 -57 -39 -93t-96 -36q-55 0 -105.5 32.5t-50.5 106.5z" />
<glyph unicode="&#xa9;" horiz-adv-x="1628" d="M66 696q0 297 218 506t533 209q313 0 529.5 -209t216.5 -506t-216.5 -506.5t-529.5 -209.5q-315 0 -533 209.5t-218 506.5zM203 696.5q0 -241.5 179 -413.5t435 -172q254 0 431 172t177 413.5t-177 412.5t-431 171q-258 0 -436 -171t-178 -412.5zM406 698 q0 178 119.5 287t326.5 109q106 0 183 -25t81 -57q6 -84 -8 -209q-2 -27 -30.5 -38t-57.5 -2t-29 28q-2 47 -12 78.5t-46 60t-99 28.5q-84 0 -139.5 -65.5t-55.5 -169.5q0 -125 76 -195.5t174 -70.5q70 0 133 35q27 14 58.5 -6.5t31.5 -55.5q0 -25 -18 -45q-6 -8 -31 -25.5 t-89.5 -36t-139.5 -18.5q-199 0 -313.5 106.5t-114.5 286.5z" />
<glyph unicode="&#xaa;" horiz-adv-x="651" d="M86 973q4 53 61.5 82.5t124 45t76.5 27.5q12 14 12 50q0 63 -57 63q-39 0 -51 -24q-4 -2 0 -21.5t4 -26.5q0 -18 -22.5 -34.5t-57.5 -16.5q-33 0 -53.5 19.5t-20.5 44.5q0 53 76 93t170 40q74 0 114 -39t40 -107q0 -10 -2 -59t-2 -80t1 -41t5 -25.5t16 -17.5t35 0 q10 2 16.5 -9t6.5 -26q0 -29 -19 -34q-39 -18 -131 -29q-27 -2 -39 29q-8 18 -27 6l-14 -6q-12 -8 -24.5 -13.5t-37 -10.5t-50.5 -5q-61 0 -105.5 30.5t-44.5 94.5zM238 975q0 -16 14 -31.5t43 -15.5q63 0 67 80q0 39 -16 39q-27 0 -67.5 -19.5t-40.5 -52.5z" />
<glyph unicode="&#xab;" horiz-adv-x="1034" d="M43 481q0 31 68.5 111t253.5 268q25 25 67 25q33 0 56.5 -15.5t23.5 -42.5q0 -16 -16 -43q-160 -250 -160 -307q0 -16 7 -37.5t23.5 -55.5t32 -60.5t46 -80t49.5 -87.5q6 -16 6 -27q0 -27 -27 -43t-61 -16q-47 0 -68 26q-301 315 -301 385zM475 481q0 31 69.5 112 t250.5 267q25 25 67 25q33 0 56.5 -15.5t23.5 -42.5q0 -20 -14 -43q-162 -246 -162 -307q0 -16 7 -37.5t23.5 -55.5t32 -60.5t46 -80t49.5 -87.5q6 -16 6 -27q0 -27 -26.5 -43t-61.5 -16q-47 0 -68 26q-299 313 -299 385z" />
<glyph unicode="&#xac;" horiz-adv-x="1148" d="M63 637q0 37 24 62.5t65 23.5q111 -8 401.5 -6t398.5 12q45 4 63.5 -20.5t16.5 -65.5q-8 -236 4 -367q2 -35 -22.5 -54t-61.5 -19q-39 0 -67.5 21.5t-28.5 62.5q0 170 -2 198q-4 74 -78 76q-481 8 -624 -6q-41 -4 -65 20.5t-24 61.5z" />
<glyph unicode="&#xad;" horiz-adv-x="808" d="M131 557q0 43 14 75t41 34q12 0 118 2t213.5 8t160.5 18q27 8 45 -26.5t18 -81.5q0 -45 -19.5 -77t-59.5 -32q-287 -2 -467 -24q-31 -6 -47.5 26.5t-16.5 77.5z" />
<glyph unicode="&#xae;" horiz-adv-x="1157" d="M70 1047q0 197 147.5 340t355.5 143q215 0 364.5 -143.5t149.5 -339.5q0 -201 -148.5 -344.5t-365.5 -143.5q-209 0 -356 143.5t-147 344.5zM170 1046.5q0 -159.5 117.5 -274.5t285.5 -115q174 0 293 114t119 276q0 160 -118.5 273.5t-293.5 113.5q-166 0 -284.5 -114 t-118.5 -273.5zM324 852q0 16 8 28.5t20 10.5q35 -4 37 29q10 109 2 284q-2 18 -9 21.5t-24 -0.5q-29 0 -28.5 36.5t32.5 38.5q82 6 197 7q233 0 234 -133q0 -88 -93 -134q-22 -10 -6 -26q12 -12 40 -48t51.5 -58.5t41.5 -22.5q23 0 23 -33q0 -29 -16 -33q-31 -12 -82 -12 q-20 0 -42 10t-36.5 21.5t-31.5 35t-25.5 35t-22.5 37t-16 27.5q-14 25 -31 24h-9t-6.5 -3t-5.5 -8t-2 -13q0 -31 2 -49q2 -27 8.5 -32t24.5 -1q14 2 22.5 -10.5t8.5 -26.5q0 -37 -31 -37q-92 4 -207 0q-29 0 -28 35zM522 1108q1 -31 21 -31h18q84 0 84 82q0 43 -17.5 58.5 t-70.5 15.5q-16 0 -23.5 -3t-8.5 -7t-3 -17v-98z" />
<glyph unicode="&#xaf;" horiz-adv-x="919" d="M129 1237q0 31 10.5 55.5t24.5 26.5h132t247 2t192 10q18 2 31.5 -27.5t13.5 -66.5q0 -70 -45 -70q-43 0 -112.5 1t-170 0t-266.5 -9q-57 0 -57 78z" />
<glyph unicode="&#xb0;" horiz-adv-x="782" d="M70 1081q0 133 96 216t229 83q131 0 225.5 -83t94.5 -197q0 -152 -93.5 -234t-230.5 -82q-141 0 -231 80t-90 217zM221 1087q0 -76 47 -120.5t121 -44.5q76 0 125 45t49 125q0 63 -50 107t-120 44q-72 0 -122 -45t-50 -111z" />
<glyph unicode="&#xb1;" horiz-adv-x="1228" d="M150 758q0 35 18 61.5t47 24.5h47t97.5 -1t103.5 -1q29 0 41 11t13 19.5t1 32.5q2 47 -4 242q-2 31 25.5 48t64.5 17t64.5 -14t25.5 -39q-8 -164 -6 -258q0 -61 43 -61q145 0 256 16q39 6 65.5 -22.5t26.5 -65.5q0 -33 -23.5 -57.5t-68.5 -26.5q-184 0 -254 -4 q-31 -2 -38 -12.5t-7 -36.5q0 -20 6 -150q2 -33 -26.5 -50t-67.5 -17q-37 0 -61.5 16t-24.5 45q4 115 4 141q2 41 -12 52.5t-49 13.5q-127 4 -224 -6q-41 -4 -62 20.5t-21 61.5zM160 244q0 33 19 58.5t54 27.5q16 2 182.5 0t340.5 0t227 12q33 6 57.5 -24.5t24.5 -69.5 q0 -78 -84 -78q-696 0 -739 -4q-37 -4 -59.5 19.5t-22.5 58.5z" />
<glyph unicode="&#xb2;" horiz-adv-x="684" d="M37 1017q0 34 6 42q68 41 113 70.5t106.5 77.5t94 97.5t32.5 94.5q0 112 -115 112q-39 0 -71.5 -26.5t-44.5 -57.5q-6 -12 -25 -12q-25 0 -47.5 16.5t-22.5 38.5q0 12 5 19q25 51 99.5 103.5t186.5 52.5q109 0 189 -56.5t80 -150.5q0 -33 -10.5 -64t-31 -58.5t-39 -48 t-51 -45t-49 -36.5t-50.5 -34t-38 -24q-20 -14 -18 -29.5t29 -17.5q16 -2 79 -2q25 0 41.5 3t26.5 6.5t18.5 12.5t10.5 14t8 21.5t10 22.5q2 10 21.5 14.5t36 -4t14.5 -24.5q2 -12 -12.5 -105.5t-24.5 -128.5q-2 -6 -68 2h-14t-34.5 1t-45.5 1q-197 4 -319 -4 q-33 -2 -54.5 35t-21.5 71z" />
<glyph unicode="&#xb3;" horiz-adv-x="673" d="M35 1016q0 35 21.5 59.5t64.5 24.5q49 0 85 -46t89 -46q104 0 104 84q0 63 -59 95t-158 32q-25 0 -36 23.5t-3.5 47t23.5 25.5q82 12 132 45t50 84q0 80 -92 80q-80 0 -139 -60q-10 -10 -21 -10q-16 0 -28.5 18.5t-12.5 40.5q0 20 8 31q76 100 259 101q111 0 182 -45.5 t71 -110.5q0 -96 -120 -150q-16 -6 -18.5 -18t16.5 -16q47 -12 66.5 -19.5t55 -26t50 -47t14.5 -69.5q0 -98 -101.5 -172t-273.5 -74q-98 0 -163.5 33t-65.5 86z" />
<glyph unicode="&#xb4;" horiz-adv-x="651" d="M176 1137q0 6 6 16q96 141 166 283q16 39 58 39q20 0 87.5 -1t71.5 -1q49 0 49 -31q0 -16 -20 -41q-10 -10 -61.5 -66.5t-104.5 -117t-94 -113.5q-14 -14 -55 -14q-39 0 -71 13t-32 34z" />
<glyph unicode="&#xb5;" horiz-adv-x="1333" d="M55 877q0 27 17.5 47t48.5 20q121 -2 291 19q61 10 75 -23q6 -16 7.5 -52t-0.5 -99.5t-2 -92.5q0 -360 2 -387q10 -150 127 -149q68 0 131 64.5t69 174.5q8 231 6 322q-2 57 -20.5 76.5t-73.5 15.5q-29 -2 -45 17.5t-16 48.5q0 27 15 46t42 19q193 0 320 19 q18 6 39.5 -2.5t25.5 -28.5q6 -33 2 -197q-10 -358 -4 -452q4 -76 24.5 -101.5t82.5 -15.5q18 2 31.5 -15.5t13.5 -44.5q0 -51 -41 -73q-31 -14 -135.5 -33.5t-126.5 -19.5q-18 0 -46 28.5t-43 81.5q-20 55 -71 6q-115 -110 -297 -112q-16 0 -17 -23q0 -59 -1 -167.5 t-1 -147.5t-32 -43q-4 0 -45 -4.5t-97.5 -8.5t-91.5 -8q-20 -2 -27.5 10.5t-7.5 34.5q4 123 14.5 391.5t9.5 333t-5 357.5q0 31 -2 46t-10.5 33.5t-24.5 23.5t-45 1q-31 -4 -48.5 15.5t-17.5 48.5z" />
<glyph unicode="&#xb6;" horiz-adv-x="1261" d="M76 961q0 203 183 317.5t503 114.5q106 0 190 2t131 5t60 3q33 0 50 -24.5t17 -57.5t-18 -57.5t-51 -22.5q-84 2 -112 -20.5t-32 -87.5q-18 -229 -5.5 -651.5t-0.5 -454.5q-18 -106 -85.5 -195.5t-154.5 -140.5t-171 -80t-146 -29q-41 0 -67.5 28t-26.5 64q0 45 42 78 t124 33q88 0 120 33.5t46 156.5q23 256 0 467q-8 84 -82 84q-225 0 -369.5 122t-144.5 313z" />
<glyph unicode="&#xb7;" horiz-adv-x="587" d="M111 582q0 84 51 131t133 47q182 0 182 -170q0 -80 -48 -132t-134 -52t-135 49t-49 127z" />
<glyph unicode="&#xb8;" horiz-adv-x="583" d="M145 -125q14 33 84 125q18 27 74 27q41 0 62.5 -5.5t13.5 -19.5q-4 -6 -23.5 -32.5t-23.5 -32.5q-14 -23 -13.5 -31t23.5 -12q80 -10 111.5 -37t31.5 -76q0 -59 -77.5 -118.5t-184.5 -59.5q-47 0 -47 61q0 39 21 39q94 6 94 59q0 45 -96 45q-31 0 -47.5 16.5t-2.5 51.5z " />
<glyph unicode="&#xb9;" horiz-adv-x="649" d="M43 969q0 55 35 55q80 -6 119 2t46 20.5t11 45.5q4 31 1 173t-3 154q0 23 -26.5 26t-139.5 -3q-20 -2 -31.5 15.5t-11.5 41.5q0 53 39 53q90 0 153.5 25t92 50.5t32.5 25.5q117 0 109 -37q-6 -82 -5 -291t5 -254q0 -4 1 -12t2 -11.5t5 -9.5t9.5 -8t15.5 -5t24.5 -3t36 1 t47.5 3q18 0 28.5 -18.5t10.5 -40.5q0 -55 -47 -56q-291 10 -522 0q-16 -2 -26.5 15.5t-10.5 42.5z" />
<glyph unicode="&#xba;" horiz-adv-x="653" d="M72 1081q0 104 76.5 171t181 67t178.5 -65.5t74 -159.5q0 -117 -74 -182.5t-182 -65.5q-113 0 -183.5 63.5t-70.5 171.5zM199 1087q0 -59 34.5 -92.5t90.5 -33.5q57 0 93 34.5t36 98.5q0 47 -37 78.5t-88 31.5q-55 0 -92 -32.5t-37 -84.5z" />
<glyph unicode="&#xbb;" horiz-adv-x="1034" d="M92 827q0 27 23.5 42.5t56.5 15.5q43 0 68 -25q184 -188 252.5 -268t68.5 -111q0 -70 -301 -385q-20 -27 -67 -26q-35 0 -63 16t-28 43q0 12 9 27q18 35 48.5 88t46 79.5t32 60.5t23.5 55.5t7 37.5q0 61 -162 307q-14 23 -14 43zM524 827q0 27 23.5 42.5t56.5 15.5 q43 0 68 -25q184 -190 251.5 -269t67.5 -110q0 -68 -299 -385q-25 -27 -69 -26q-35 0 -61.5 16t-26.5 41q0 14 8 29q20 37 49 88t44 79.5t31.5 61.5t23.5 54.5t7 37.5q0 63 -159 307q-14 23 -15 43z" />
<glyph unicode="&#xbc;" horiz-adv-x="1656" d="M78 731q0 53 35 53q82 -6 120.5 2.5t46 20.5t11.5 45q4 31 1 173t-3 155q0 25 -28 27.5t-140 -3.5q-20 -2 -31.5 15.5t-11.5 42.5q0 51 39 51q90 0 153.5 25.5t92 51t32.5 25.5q117 0 109 -39q-4 -78 -4 -289t4 -256q0 -2 2 -11t2 -11t4 -9t9 -8t15.5 -5.5t24.5 -4.5 t35.5 1t48.5 3q18 0 28.5 -17t10.5 -40q0 -25 -12.5 -41t-34.5 -14q-289 12 -522 0q-16 -2 -26.5 15.5t-10.5 41.5zM360 74q0 25 52 86q23 27 147.5 204t321 470.5t338.5 529.5q33 53 90 53q37 0 67.5 -23.5t30.5 -54.5q0 -18 -16 -41q-80 -102 -285 -404t-372 -554 t-173 -266q-57 -92 -112 -92q-37 0 -63 26.5t-26 65.5zM945 252q-11 63 1 70q106 102 222 225t118 145q0 29 33 31q25 0 74 9t63 22q14 6 32.5 -3.5t16.5 -29.5q0 -2 -1 -42t-3 -88t-1 -121t3 -136q0 -25 23 -25h37q41 0 41 -35q-8 -81 -39 -81h-52q-10 0 -10 -15v-145 q0 -33 -37 -33h-145q-23 0 -31 10t-6 35v51.5v50v27.5q0 16 -18 19q-119 8 -275 0q-35 -4 -46 59zM1113 329.5q3 -14.5 24 -16.5h116q29 2 33 37q4 48 0 111q-2 14 -16.5 18t-32.5 -10q-33 -29 -57.5 -52.5t-39 -40t-16.5 -18.5q-14 -14 -11 -28.5z" />
<glyph unicode="&#xbd;" horiz-adv-x="1632" d="M66 731q0 53 34 53q82 -6 121 2.5t46 20.5t12 45q4 31 0.5 173t-3.5 155q0 25 -27.5 27.5t-139.5 -3.5q-20 -2 -31.5 15.5t-11.5 42.5q0 51 38 51q70 0 126.5 16.5t83 34.5t46 34.5t23.5 16.5q117 0 111 -39q-6 -80 -5 -289t5 -256q0 -2 1 -10t1 -10t3 -8t6 -8t10 -6.5 t17.5 -4.5t23.5 -1t32.5 0t44.5 3q18 2 29.5 -16t11.5 -41q0 -55 -47 -55q-291 10 -525 0q-16 -2 -26 15.5t-10 41.5zM350 74q0 25 51 86q23 27 148 204t321.5 470.5t337.5 529.5q33 53 90 53q37 0 68 -23.5t31 -54.5q0 -18 -17 -41q-80 -102 -284.5 -404t-371.5 -554 t-173 -266q-57 -92 -113 -92q-37 0 -62.5 26.5t-25.5 65.5zM969 103.5q0 33.5 6 41.5q68 41 113 71t106 78t94 97t33 94q0 113 -115 113q-39 0 -71.5 -26.5t-44.5 -57.5q-10 -14 -36 -12t-46.5 24.5t-8.5 48.5q25 51 100 103.5t187 52.5q109 0 188.5 -56.5t79.5 -150.5 q0 -37 -16 -74.5t-35.5 -63.5t-55.5 -56.5t-56.5 -46t-59.5 -40t-45 -28.5q-20 -14 -18 -30.5t26 -18.5h82q25 0 41.5 3t26.5 6t17 13.5t10.5 14.5t9.5 20.5t8 22.5q2 10 21.5 14t37 -4t15.5 -25q2 -12 -12.5 -105t-24.5 -128q-2 -6 -68 2h-14t-35 1t-45 1q-197 4 -320 -4 q-33 -2 -54 35t-21 70.5z" />
<glyph unicode="&#xbe;" horiz-adv-x="1634" d="M70 776q0 35 21.5 60.5t64.5 25.5q47 0 83.5 -47t88.5 -47q47 0 75.5 22.5t28.5 63.5q0 125 -215 125q-25 0 -36 23.5t-4 48t24 26.5q180 27 180 129q0 80 -90 80q-78 0 -139 -61q-29 -27 -52 14q-23 37 -2 66q8 16 30 35.5t84 43t144 23.5q109 0 181.5 -45t72.5 -111 q0 -35 -12 -62.5t-37.5 -47t-37 -25.5t-34.5 -16q-10 -4 -15 -10.5t-2 -13.5t15 -9q4 -2 24.5 -7t27 -7t25 -9.5t25.5 -11.5t22.5 -12t21.5 -15.5t16 -18.5t14.5 -22.5t7.5 -26.5t3 -34q0 -98 -101.5 -171t-275.5 -73q-98 0 -162.5 32t-64.5 85zM336 74q0 25 51 86 q23 27 147.5 204t321.5 470.5t338 529.5q33 53 90 53q37 0 67.5 -23.5t30.5 -54.5q0 -18 -16 -41q-80 -102 -284.5 -404t-371.5 -554t-173 -266q-57 -92 -113 -92q-37 0 -62.5 26.5t-25.5 65.5zM920.5 252q-11.5 63 1.5 70q100 94 219 221t121 149q0 10 9 19.5t23 11.5 q25 0 74 9t64 22q14 6 33.5 -3.5t17.5 -29.5q0 -2 -1 -42t-3 -88t-1 -121t3 -136q0 -25 20 -25q6 -2 18.5 -1t20.5 1q16 0 28.5 -9t10.5 -26q-8 -81 -37 -81h-53q-8 0 -8 -15v-145q0 -33 -39 -33h-146q-23 0 -31 10t-5 35v51.5v50v27.5q0 16 -19 19q-119 8 -274 0 q-35 -4 -46.5 59zM1089.5 339q-2.5 -9 4 -17.5t18.5 -8.5h117q29 2 33 37q4 48 0 111q-2 14 -16.5 18t-31.5 -10q-27 -23 -114 -111q-8 -10 -10.5 -19z" />
<glyph unicode="&#xbf;" horiz-adv-x="819" d="M100 -139q0 80 50.5 162.5t109.5 142t109.5 139.5t50.5 156q0 53 55.5 53t63.5 -51q18 -98 -6.5 -201.5t-59.5 -204t-35 -170.5q0 -74 33 -114.5t88 -40.5q35 0 77 30.5t75 30.5q35 0 58.5 -24.5t23.5 -57.5q0 -129 -269 -129q-193 0 -308.5 75t-115.5 204zM295 842 q0 80 47 132t133 52t135 -49t49 -127q0 -84 -51 -131t-133 -47q-180 0 -180 170z" />
<glyph unicode="&#xc0;" d="M-31 61q0 27 17.5 46.5t48.5 17.5q70 -4 135 127q112 219 391 932q14 39 9 80t-1 51q8 25 53.5 24.5t69 0.5t60 15.5t59.5 43.5q16 18 43 18q43 0 55 -37q43 -141 229.5 -601t250.5 -574q49 -86 116 -78q33 2 51.5 -17.5t18.5 -48t-17.5 -48t-48.5 -17.5q-51 4 -259 5 t-306 -5q-35 -2 -52.5 17.5t-17.5 45.5q0 29 16.5 49.5t43.5 18.5q68 -4 87 14.5t9 73.5q-4 29 -67 191q-23 47 -56 49q-94 10 -218 9t-191 -9q-49 -4 -72 -43q-33 -61 -66 -162q-20 -72 8.5 -102.5t135.5 -18.5q31 2 48 -16.5t17 -47t-17 -50t-48 -19.5q-268 12 -469 0 q-31 -2 -48.5 17.5t-17.5 47.5zM471 1753q0 39 66 39h141q72 0 108 -37q139 -133 205 -186q27 -25 27 -41.5t-19.5 -27.5t-44.5 -11q-100 0 -129 20q-106 76 -325 203q-29 16 -29 41zM513 611q9 -13 40 -17q106 -14 276 4q37 4 48.5 18.5t-0.5 49.5q-72 209 -146 366 q-29 55 -55 6q-78 -131 -162 -381q-10 -33 -1 -46z" />
<glyph unicode="&#xc1;" d="M-31 61q0 27 17.5 46.5t48.5 17.5q70 -4 135 127q112 219 391 932q14 39 9 80t-1 51q8 25 53.5 24.5t69 0.5t60 15.5t59.5 43.5q16 18 43 18q43 0 55 -37q43 -141 229.5 -601t250.5 -574q49 -86 116 -78q33 2 51.5 -17.5t18.5 -48t-17.5 -48t-48.5 -17.5q-51 4 -259 5 t-306 -5q-35 -2 -52.5 17.5t-17.5 45.5q0 29 16.5 49.5t43.5 18.5q68 -4 87 14.5t9 73.5q-4 29 -67 191q-23 47 -56 49q-94 10 -218 9t-191 -9q-49 -4 -72 -43q-33 -61 -66 -162q-20 -72 8.5 -102.5t135.5 -18.5q31 2 48 -16.5t17 -47t-17 -50t-48 -19.5q-268 12 -469 0 q-31 -2 -48.5 17.5t-17.5 47.5zM513 611q9 -13 40 -17q106 -14 276 4q37 4 48.5 18.5t-0.5 49.5q-72 209 -146 366q-29 55 -55 6q-78 -131 -162 -381q-10 -33 -1 -46zM547 1527.5q0 16.5 26 41.5q92 74 205 186q39 37 111 37h139q68 0 68 -41q0 -21 -29 -39 q-229 -133 -326 -203q-33 -23 -90 -22q-6 0 -18 1t-21 1q-25 0 -45 11t-20 27.5z" />
<glyph unicode="&#xc2;" d="M-31 61q0 27 17.5 46.5t48.5 17.5q70 -4 135 127q112 219 391 932q14 39 9 80t-1 51q8 25 53.5 24.5t69 0.5t60 15.5t59.5 43.5q16 18 43 18q43 0 55 -37q43 -141 229.5 -601t250.5 -574q49 -86 116 -78q33 2 51.5 -17.5t18.5 -48t-17.5 -48t-48.5 -17.5q-51 4 -259 5 t-306 -5q-35 -2 -52.5 17.5t-17.5 45.5q0 29 16.5 49.5t43.5 18.5q68 -4 87 14.5t9 73.5q-4 29 -67 191q-23 47 -56 49q-94 10 -218 9t-191 -9q-49 -4 -72 -43q-33 -61 -66 -162q-20 -72 8.5 -102.5t135.5 -18.5q31 2 48 -16.5t17 -47t-17 -50t-48 -19.5q-268 12 -469 0 q-31 -2 -48.5 17.5t-17.5 47.5zM434 1534q0 20 19 33q53 45 93 80.5t81 73.5t67 63q29 27 88 26q63 0 90 -26q162 -150 242 -215q16 -12 16 -33q0 -53 -92 -53q-41 0 -65 18q-84 63 -135 98q-29 16 -52 17q-27 0 -55 -17q-35 -23 -77 -54.5l-58 -43.5q-27 -18 -72 -18 q-90 0 -90 51zM513 611q9 -13 40 -17q106 -14 276 4q37 4 48.5 18.5t-0.5 49.5q-72 209 -146 366q-29 55 -55 6q-78 -131 -162 -381q-10 -33 -1 -46z" />
<glyph unicode="&#xc3;" d="M-31 61q0 27 17.5 46.5t48.5 17.5q70 -4 135 127q112 219 391 932q14 39 9 80t-1 51q8 25 53.5 24.5t69 0.5t60 15.5t59.5 43.5q16 18 43 18q43 0 55 -37q43 -141 229.5 -601t250.5 -574q49 -86 116 -78q33 2 51.5 -17.5t18.5 -48t-17.5 -48t-48.5 -17.5q-51 4 -259 5 t-306 -5q-35 -2 -52.5 17.5t-17.5 45.5q0 29 16.5 49.5t43.5 18.5q68 -4 87 14.5t9 73.5q-4 29 -67 191q-23 47 -56 49q-94 10 -218 9t-191 -9q-49 -4 -72 -43q-33 -61 -66 -162q-20 -72 8.5 -102.5t135.5 -18.5q31 2 48 -16.5t17 -47t-17 -50t-48 -19.5q-268 12 -469 0 q-31 -2 -48.5 17.5t-17.5 47.5zM385 1554q0 94 67.5 166t165.5 72q78 0 189 -51t131 -51q27 0 41 9t29 40q16 29 63 28q31 0 56.5 -12t25.5 -31q0 -92 -67.5 -163.5t-163.5 -71.5q-80 0 -189.5 51t-130.5 51q-49 0 -72 -47q-16 -31 -65 -31q-31 0 -55.5 12.5t-24.5 28.5z M513 611q9 -13 40 -17q106 -14 276 4q37 4 48.5 18.5t-0.5 49.5q-72 209 -146 366q-29 55 -55 6q-78 -131 -162 -381q-10 -33 -1 -46z" />
<glyph unicode="&#xc4;" d="M-31 61q0 27 17.5 46.5t48.5 17.5q70 -4 135 127q112 219 391 932q14 39 9 80t-1 51q8 25 53.5 24.5t69 0.5t60 15.5t59.5 43.5q16 18 43 18q43 0 55 -37q43 -141 229.5 -601t250.5 -574q49 -86 116 -78q33 2 51.5 -17.5t18.5 -48t-17.5 -48t-48.5 -17.5q-51 4 -259 5 t-306 -5q-35 -2 -52.5 17.5t-17.5 45.5q0 29 16.5 49.5t43.5 18.5q68 -4 87 14.5t9 73.5q-4 29 -67 191q-23 47 -56 49q-94 10 -218 9t-191 -9q-49 -4 -72 -43q-33 -61 -66 -162q-20 -72 8.5 -102.5t135.5 -18.5q31 2 48 -16.5t17 -47t-17 -50t-48 -19.5q-268 12 -469 0 q-31 -2 -48.5 17.5t-17.5 47.5zM365 1640q0 49 39.5 95.5t130.5 46.5q59 0 105 -42t46 -108q0 -61 -45 -100t-106 -39q-59 0 -114.5 36t-55.5 111zM513 611q9 -13 40 -17q106 -14 276 4q37 4 48.5 18.5t-0.5 49.5q-72 209 -146 366q-29 55 -55 6q-78 -131 -162 -381 q-10 -33 -1 -46zM895 1640q0 47 41 94.5t131 47.5q59 0 103 -42t44 -108q0 -63 -43 -101t-104 -38t-116.5 36t-55.5 111z" />
<glyph unicode="&#xc5;" d="M-31 61q0 27 17.5 46.5t48.5 17.5q70 -4 135 127q112 219 391 932q2 8 7 20.5t7.5 18.5t5.5 16t3 14v12.5t-2 12.5t-6.5 9t-10.5 9q-82 59 -82 168q0 96 83 157.5t198 61.5q113 0 192.5 -61t79.5 -149q0 -102 -61 -152q-25 -23 -26 -41t18 -66q92 -246 231 -581.5 t191 -427.5q49 -86 116 -78q33 2 51.5 -17.5t18.5 -48t-17.5 -48t-48.5 -17.5q-51 4 -259 5t-306 -5q-35 -2 -52.5 17.5t-17.5 45.5q0 29 16.5 49.5t43.5 18.5q68 -4 87 14.5t9 73.5q-8 53 -69 191q-18 47 -54 49q-94 10 -218 9t-191 -9q-49 -4 -72 -43q-51 -100 -66 -162 q-20 -72 8.5 -102.5t135.5 -18.5q31 2 48 -16.5t17 -47t-17 -50t-48 -19.5q-268 12 -469 0q-31 -2 -48.5 17.5t-17.5 47.5zM513 611q9 -13 40 -17q106 -14 274 4q39 4 50.5 18.5t-0.5 49.5q-72 209 -146 366q-29 57 -55 6q-78 -131 -162 -381q-10 -33 -1 -46zM621 1464 q0 -55 37.5 -85.5t101.5 -30.5q61 0 100 32.5t39 89.5q0 43 -41 76t-96 33q-61 0 -101 -31.5t-40 -83.5z" />
<glyph unicode="&#xc6;" horiz-adv-x="2027" d="M-37 66q0 27 16.5 44t45.5 15q70 -4 172 127q174 217 669 932q20 29 21.5 49t-7 26.5t-20.5 6.5q-23 0 -59 -4q-27 -4 -43.5 16t-16.5 51q0 29 15.5 48.5t44.5 17.5q186 -10 535.5 -9.5t455.5 7.5q113 6 102 -68q-14 -137 -20 -215q-4 -39 -40 -54.5t-69.5 -2t-33.5 44.5 q4 100 -64 133t-264 33q-100 0 -105 -97q-4 -47 -5 -164.5t3 -164.5q4 -61 52 -66q16 -2 80.5 -1t84.5 3q47 4 68 25.5t21 81.5q0 27 20 43t47 16q31 0 51.5 -17.5t18.5 -50.5q-8 -164 -2 -327q2 -41 -19.5 -60.5t-52.5 -19.5q-29 0 -50.5 16.5t-19.5 44.5q6 100 -82 111 q-27 2 -86 3t-79 -1q-43 -6 -50 -68q-12 -131 7 -327q4 -61 33.5 -88t103.5 -27q70 0 112 6q90 8 154 67.5t86 151.5q14 61 70 62q37 0 62.5 -31t12.5 -78q-41 -139 -63 -272q-10 -37 -61 -39q-115 0 -309.5 5t-422.5 5q-39 0 -117.5 -5t-95.5 -5q-33 -2 -50 17.5t-17 47.5 q0 31 18.5 52.5t44.5 17.5q111 -16 123 66q4 25 5 79t1 95l-2 41q0 37 -32 43q-168 23 -377 0q-47 -4 -86 -43q-41 -51 -115 -162q-45 -68 -22.5 -100.5t135.5 -20.5q33 2 50 -16.5t17 -47t-17.5 -50t-47.5 -19.5q-266 12 -465 0q-31 -2 -50.5 19.5t-19.5 50.5zM646 611 q5 -13 36 -17q88 -12 244 4q39 4 54 18.5t17 49.5q12 285 -4 366q-4 27 -17 30t-36 -24q-139 -164 -276 -381q-23 -33 -18 -46z" />
<glyph unicode="&#xc7;" horiz-adv-x="1480" d="M90 694q0 324 219 523.5t596 199.5q195 0 337 -46t147 -107q4 -43 -17 -293q-6 -53 -84 -53q-80 0 -84 45q-35 309 -321 309q-193 0 -320 -147.5t-127 -389.5q0 -141 48 -252.5t127 -178t173.5 -100.5t194.5 -34q166 0 285 68q33 18 47 18q25 0 42 -23.5t17 -54.5 q0 -37 -22 -59q-16 -16 -50 -39t-128.5 -56.5t-204.5 -43.5q-66 -6 -84 -43q-8 -18 -10.5 -25.5t2 -11.5t18.5 -6q80 -10 110.5 -37t30.5 -76q0 -78 -89 -128t-173 -50q-20 0 -32.5 18.5t-12.5 42.5q0 39 20 39q92 6 93 59q0 45 -95 45q-31 0 -47 16.5t-2 51.5q4 16 33 55 q35 45 -33 58q-287 47 -445.5 232.5t-158.5 473.5z" />
<glyph unicode="&#xc8;" horiz-adv-x="1308" d="M84 61q0 31 18.5 52.5t44.5 17.5q61 -10 90 24.5t31 77.5q8 137 8 484.5t-8 507.5q-2 51 -112 37q-29 -2 -46.5 18t-17.5 51q0 27 16.5 46.5t47.5 17.5q141 -8 443 -9.5t474 7.5q113 6 103 -68q-16 -137 -21 -215q-6 -61 -78 -61q-66 0 -65 49q4 100 -63.5 133t-264.5 33 q-100 0 -104 -97q-4 -47 -5.5 -164.5t3.5 -164.5q4 -61 51 -66q16 -2 80.5 -1t85.5 3q47 4 67.5 25.5t20.5 81.5q0 27 20.5 43t46.5 16q31 0 51.5 -17.5t18.5 -50.5q-8 -164 -2 -327q2 -41 -19.5 -60.5t-52.5 -19.5q-29 0 -50.5 16.5t-18.5 44.5q6 100 -82 111 q-27 2 -86.5 3t-79.5 -1q-43 -6 -49 -68q-12 -130 6 -327q4 -61 33.5 -88t103.5 -27q72 0 111 6q92 8 155.5 67.5t85.5 151.5q14 61 70 62q37 0 62.5 -31t13.5 -78q-41 -139 -64 -272q-10 -37 -63 -39q-113 0 -307.5 5t-421.5 5q-39 0 -118 -5t-95 -5q-33 -2 -50.5 17.5 t-17.5 47.5zM354 1753q0 39 66 39h141q72 0 109 -37q139 -133 204 -186q27 -25 27 -41.5t-19.5 -27.5t-43.5 -11q-100 0 -129 20q-107 76 -326 203q-29 16 -29 41z" />
<glyph unicode="&#xc9;" horiz-adv-x="1308" d="M84 61q0 31 18.5 52.5t44.5 17.5q61 -10 90 24.5t31 77.5q8 137 8 484.5t-8 507.5q-2 51 -112 37q-29 -2 -46.5 18t-17.5 51q0 27 16.5 46.5t47.5 17.5q141 -8 443 -9.5t474 7.5q113 6 103 -68q-16 -137 -21 -215q-6 -61 -78 -61q-66 0 -65 49q4 100 -63.5 133t-264.5 33 q-100 0 -104 -97q-4 -47 -5.5 -164.5t3.5 -164.5q4 -61 51 -66q16 -2 80.5 -1t85.5 3q47 4 67.5 25.5t20.5 81.5q0 27 20.5 43t46.5 16q31 0 51.5 -17.5t18.5 -50.5q-8 -164 -2 -327q2 -41 -19.5 -60.5t-52.5 -19.5q-29 0 -50.5 16.5t-18.5 44.5q6 100 -82 111 q-27 2 -86.5 3t-79.5 -1q-43 -6 -49 -68q-12 -130 6 -327q4 -61 33.5 -88t103.5 -27q72 0 111 6q92 8 155.5 67.5t85.5 151.5q14 61 70 62q37 0 62.5 -31t13.5 -78q-41 -139 -64 -272q-10 -37 -63 -39q-113 0 -307.5 5t-421.5 5q-39 0 -118 -5t-95 -5q-33 -2 -50.5 17.5 t-17.5 47.5zM432 1527.5q0 16.5 27 41.5q92 74 205 186q39 37 110 37h139q68 0 68 -41q0 -21 -29 -39q-229 -133 -325 -203q-33 -23 -90 -22q-6 0 -18.5 1t-20.5 1q-25 0 -45.5 11t-20.5 27.5z" />
<glyph unicode="&#xca;" horiz-adv-x="1308" d="M84 61q0 31 18.5 52.5t44.5 17.5q61 -10 90 24.5t31 77.5q8 137 8 484.5t-8 507.5q-2 51 -112 37q-29 -2 -46.5 18t-17.5 51q0 27 16.5 46.5t47.5 17.5q141 -8 443 -9.5t474 7.5q113 6 103 -68q-16 -137 -21 -215q-6 -61 -78 -61q-66 0 -65 49q4 100 -63.5 133t-264.5 33 q-100 0 -104 -97q-4 -47 -5.5 -164.5t3.5 -164.5q4 -61 51 -66q16 -2 80.5 -1t85.5 3q47 4 67.5 25.5t20.5 81.5q0 27 20.5 43t46.5 16q31 0 51.5 -17.5t18.5 -50.5q-8 -164 -2 -327q2 -41 -19.5 -60.5t-52.5 -19.5q-29 0 -50.5 16.5t-18.5 44.5q6 100 -82 111 q-27 2 -86.5 3t-79.5 -1q-43 -6 -49 -68q-12 -130 6 -327q4 -61 33.5 -88t103.5 -27q72 0 111 6q92 8 155.5 67.5t85.5 151.5q14 61 70 62q37 0 62.5 -31t13.5 -78q-41 -139 -64 -272q-10 -37 -63 -39q-113 0 -307.5 5t-421.5 5q-39 0 -118 -5t-95 -5q-33 -2 -50.5 17.5 t-17.5 47.5zM319 1534q0 20 19 33q53 45 93 80.5t81 73.5t68 63q29 27 88 26q63 0 90 -26q162 -150 241 -215q16 -12 17 -33q0 -53 -92 -53q-41 0 -66 18q-84 63 -135 98q-29 16 -51 17q-27 0 -56 -17q-35 -23 -77 -54.5l-58 -43.5q-29 -18 -71 -18q-90 0 -91 51z" />
<glyph unicode="&#xcb;" horiz-adv-x="1308" d="M84 61q0 31 18.5 52.5t44.5 17.5q61 -10 90 24.5t31 77.5q8 137 8 484.5t-8 507.5q-2 51 -112 37q-29 -2 -46.5 18t-17.5 51q0 27 16.5 46.5t47.5 17.5q141 -8 443 -9.5t474 7.5q113 6 103 -68q-16 -137 -21 -215q-6 -61 -78 -61q-66 0 -65 49q4 100 -63.5 133t-264.5 33 q-100 0 -104 -97q-4 -47 -5.5 -164.5t3.5 -164.5q4 -61 51 -66q16 -2 80.5 -1t85.5 3q47 4 67.5 25.5t20.5 81.5q0 27 20.5 43t46.5 16q31 0 51.5 -17.5t18.5 -50.5q-8 -164 -2 -327q2 -41 -19.5 -60.5t-52.5 -19.5q-29 0 -50.5 16.5t-18.5 44.5q6 100 -82 111 q-27 2 -86.5 3t-79.5 -1q-43 -6 -49 -68q-12 -130 6 -327q4 -61 33.5 -88t103.5 -27q72 0 111 6q92 8 155.5 67.5t85.5 151.5q14 61 70 62q37 0 62.5 -31t13.5 -78q-41 -139 -64 -272q-10 -37 -63 -39q-113 0 -307.5 5t-421.5 5q-39 0 -118 -5t-95 -5q-33 -2 -50.5 17.5 t-17.5 47.5zM250 1640q0 49 40 95.5t130 46.5q59 0 105 -42t46 -108q0 -61 -45 -100t-106 -39q-59 0 -114.5 36t-55.5 111zM780 1640q0 47 41 94.5t131 47.5q59 0 103.5 -42t44.5 -108q0 -63 -43 -101t-104.5 -38t-117 36t-55.5 111z" />
<glyph unicode="&#xcc;" horiz-adv-x="860" d="M76 68q0 29 14 47t43 16q119 -14 131 59q14 90 12 532.5t-12 485.5q-6 31 -35.5 48.5t-74.5 9.5q-27 -2 -41.5 15t-14.5 46t16.5 49.5t47.5 18.5q266 -16 518 0q37 0 54.5 -19.5t17.5 -46t-15.5 -47t-38.5 -18.5q-55 8 -78.5 -6.5t-29.5 -51.5q-8 -33 -8 -472t14 -541 q6 -41 31.5 -52.5t97.5 -9.5q31 2 47 -17.5t16 -45.5q0 -29 -17 -51.5t-46 -20.5q-326 16 -578 0q-35 -2 -53 19.5t-18 52.5zM115 1753q0 39 65 39h142q72 0 108 -37q139 -133 205 -186q27 -25 27 -41.5t-19.5 -27.5t-44.5 -11q-100 0 -129 20q-107 76 -326 203 q-29 16 -28 41z" />
<glyph unicode="&#xcd;" horiz-adv-x="860" d="M76 68q0 29 14 47t43 16q119 -14 131 59q14 90 12 532.5t-12 485.5q-6 31 -35.5 48.5t-74.5 9.5q-27 -2 -41.5 15t-14.5 46t16.5 49.5t47.5 18.5q266 -16 518 0q37 0 54.5 -19.5t17.5 -46t-15.5 -47t-38.5 -18.5q-55 8 -78.5 -6.5t-29.5 -51.5q-8 -33 -8 -472t14 -541 q6 -41 31.5 -52.5t97.5 -9.5q31 2 47 -17.5t16 -45.5q0 -29 -17 -51.5t-46 -20.5q-326 16 -578 0q-35 -2 -53 19.5t-18 52.5zM190 1527.5q0 16.5 27 41.5q92 74 205 186q39 37 110 37h140q68 0 67 -41q1 -21 -28 -39q-229 -133 -326 -203q-33 -23 -90 -22q-6 0 -18.5 1 t-20.5 1q-25 0 -45.5 11t-20.5 27.5z" />
<glyph unicode="&#xce;" horiz-adv-x="860" d="M76 68q0 29 14 47t43 16q119 -14 131 59q14 90 12 532.5t-12 485.5q-6 31 -35.5 48.5t-74.5 9.5q-27 -2 -41.5 15t-14.5 46t16.5 49.5t47.5 18.5q266 -16 518 0q37 0 54.5 -19.5t17.5 -46t-15.5 -47t-38.5 -18.5q-55 8 -78.5 -6.5t-29.5 -51.5q-8 -33 -8 -472t14 -541 q6 -41 31.5 -52.5t97.5 -9.5q31 2 47 -17.5t16 -45.5q0 -29 -17 -51.5t-46 -20.5q-326 16 -578 0q-35 -2 -53 19.5t-18 52.5zM80 1534q0 20 18 33q53 45 93 80.5t81 73.5t68 63q29 27 88 26q63 0 90 -26q162 -150 242 -215q16 -12 16 -33q0 -53 -92 -53q-41 0 -66 18 q-84 63 -135 98q-29 16 -51 17q-27 0 -55 -17q-35 -23 -77 -54.5l-58 -43.5q-29 -18 -72 -18q-90 0 -90 51z" />
<glyph unicode="&#xcf;" horiz-adv-x="860" d="M8 1640q0 49 40 95.5t130 46.5q59 0 105.5 -42t46.5 -108q0 -61 -45.5 -100t-106.5 -39q-59 0 -114.5 36t-55.5 111zM76 68q0 29 14 47t43 16q119 -14 131 59q14 90 12 532.5t-12 485.5q-6 31 -35.5 48.5t-74.5 9.5q-27 -2 -41.5 15t-14.5 46t16.5 49.5t47.5 18.5 q266 -16 518 0q37 0 54.5 -19.5t17.5 -46t-15.5 -47t-38.5 -18.5q-55 8 -78.5 -6.5t-29.5 -51.5q-8 -33 -8 -472t14 -541q6 -41 31.5 -52.5t97.5 -9.5q31 2 47 -17.5t16 -45.5q0 -29 -17 -51.5t-46 -20.5q-326 16 -578 0q-35 -2 -53 19.5t-18 52.5zM539 1640q0 47 41 94.5 t131 47.5q59 0 103 -42t44 -108q0 -63 -43 -101t-104.5 -38t-116.5 36t-55 111z" />
<glyph unicode="&#xd0;" horiz-adv-x="1656" d="M72 65.5q0 28.5 17 48t46 15.5q55 -6 80 9.5t33 70.5q20 135 20 375q0 18 -7 27.5t-12 10.5t-18 1l-86 -5q-27 -2 -40 17.5t-13 46.5t11.5 48.5t29.5 21.5h98q37 0 37 45q0 305 -16 407q-2 20 -8 33.5t-18.5 19t-20.5 7.5t-30.5 2h-35.5q-23 0 -35 17t-12 42 q0 27 15.5 46.5t46.5 19.5h544q399 0 632 -168t233 -502q0 -342 -209 -532.5t-633 -188.5h-582q-33 -2 -50 17.5t-17 48zM575 590l7 -277q4 -113 54 -148.5t152 -35.5q199 0 312.5 142.5t113.5 404.5q0 121 -24.5 220t-78.5 185t-157.5 133.5t-246.5 47.5q-70 0 -96.5 -20.5 t-30.5 -74.5q-4 -45 -5 -364q0 -35 10.5 -43t30.5 -8q51 0 107.5 2t109 5t68.5 3q23 2 36 -19.5t13 -50.5q0 -27 -13 -46t-36 -19q-41 -2 -132 0t-148 2q-46 0 -46 -39z" />
<glyph unicode="&#xd1;" horiz-adv-x="1644" d="M86 63.5q0 28.5 17.5 49t48.5 18.5q33 -2 55 8.5t34.5 24.5t20.5 46t10 54.5t4 67.5q6 209 -4 682q-4 133 -29.5 191.5t-78.5 54.5q-29 -2 -47.5 17t-18.5 48t18.5 48.5t51.5 17.5q125 -4 299 0q10 0 22.5 -3.5t20.5 -8.5t20.5 -15t18.5 -16.5t18.5 -21.5t16.5 -21.5 t16 -23.5t14 -21q242 -344 562 -717q14 -18 34.5 -15.5t22.5 33.5q12 244 -6 543q-6 100 -36 132t-126 30q-27 -2 -44 18.5t-17 47t17 45t52 18.5q252 -8 416 0q37 0 56.5 -18.5t19.5 -45t-16.5 -46t-41.5 -19.5q-61 0 -79.5 -38t-22.5 -134q-14 -520 4 -1076q0 -23 -36 -35 t-85 -12q-80 0 -100 27q-141 203 -355 485t-337 432q-12 20 -38 19.5t-26 -41.5q0 -403 17 -571q12 -129 40.5 -165t131.5 -26q35 4 52 -17.5t17 -52.5q0 -29 -14 -48t-41 -17q-205 14 -492 0q-27 -2 -42 18.5t-15 49zM436 1554q0 94 67.5 166t166.5 72q78 0 188.5 -51 t130.5 -51q27 0 41 9t29 40q16 29 63 28q33 0 57.5 -12t24.5 -31q0 -92 -67.5 -163.5t-163.5 -71.5q-80 0 -189.5 51t-130.5 51q-49 0 -71 -47q-16 -31 -66 -31q-31 0 -55.5 12.5t-24.5 28.5z" />
<glyph unicode="&#xd2;" horiz-adv-x="1699" d="M92 709q0 315 208 511.5t546 196.5q354 0 558 -188.5t204 -519.5q0 -322 -209 -529t-553 -207q-352 0 -553 200t-201 536zM426 784q0 -295 137 -477t336 -182q176 0 275.5 140.5t99.5 363.5q0 295 -136.5 467t-336.5 172q-176 0 -275.5 -129.5t-99.5 -354.5zM530 1753 q0 39 66 39h141q72 0 109 -37q139 -133 205 -186q27 -25 26.5 -41.5t-20 -27.5t-43.5 -11q-100 0 -129 20q-107 76 -326 203q-29 16 -29 41z" />
<glyph unicode="&#xd3;" horiz-adv-x="1699" d="M92 709q0 315 208 511.5t546 196.5q354 0 558 -188.5t204 -519.5q0 -322 -209 -529t-553 -207q-352 0 -553 200t-201 536zM426 784q0 -295 137 -477t336 -182q176 0 275.5 140.5t99.5 363.5q0 295 -136.5 467t-336.5 172q-176 0 -275.5 -129.5t-99.5 -354.5zM606 1527.5 q0 16.5 27 41.5q92 74 205 186q39 37 110 37h139q68 0 68 -41q0 -21 -29 -39q-229 -133 -325 -203q-35 -23 -90 -22q-6 0 -18.5 1t-20.5 1q-25 0 -45.5 11t-20.5 27.5z" />
<glyph unicode="&#xd4;" horiz-adv-x="1699" d="M92 709q0 315 208 511.5t546 196.5q354 0 558 -188.5t204 -519.5q0 -322 -209 -529t-553 -207q-352 0 -553 200t-201 536zM426 784q0 -295 137 -477t336 -182q176 0 275.5 140.5t99.5 363.5q0 295 -136.5 467t-336.5 172q-176 0 -275.5 -129.5t-99.5 -354.5zM496 1534 q0 20 18 33q53 45 93 80.5t81 73.5t68 63q29 27 88 26q63 0 90 -26q162 -150 242 -215q16 -12 16 -33q0 -53 -92 -53q-41 0 -66 18q-84 63 -135 98q-29 16 -51 17q-27 0 -55 -17q-35 -23 -77.5 -54.5t-58.5 -43.5q-27 -18 -71 -18q-90 0 -90 51z" />
<glyph unicode="&#xd5;" horiz-adv-x="1699" d="M92 709q0 315 208 511.5t546 196.5q354 0 558 -188.5t204 -519.5q0 -322 -209 -529t-553 -207q-352 0 -553 200t-201 536zM426 784q0 -295 137 -477t336 -182q176 0 275.5 140.5t99.5 363.5q0 295 -136.5 467t-336.5 172q-176 0 -275.5 -129.5t-99.5 -354.5zM444 1554 q0 94 68 166t166 72q78 0 188.5 -51t130.5 -51q27 0 41.5 9t28.5 40q16 29 63 28q33 0 57.5 -12t24.5 -31q0 -92 -67.5 -163.5t-163.5 -71.5q-80 0 -189.5 51t-129.5 51q-49 0 -72 -47q-16 -31 -66 -31q-31 0 -55.5 12.5t-24.5 28.5z" />
<glyph unicode="&#xd6;" horiz-adv-x="1699" d="M92 709q0 315 208 511.5t546 196.5q354 0 558 -188.5t204 -519.5q0 -322 -209 -529t-553 -207q-352 0 -553 200t-201 536zM424 1640q0 49 40 95.5t130 46.5q59 0 105 -42t46 -108q0 -61 -45 -100t-106 -39q-59 0 -114.5 36t-55.5 111zM426 784q0 -295 137 -477t336 -182 q176 0 275.5 140.5t99.5 363.5q0 295 -136.5 467t-336.5 172q-176 0 -275.5 -129.5t-99.5 -354.5zM954 1640q0 47 41 94.5t131 47.5q59 0 103.5 -42t44.5 -108q0 -63 -43 -101t-104.5 -38t-117 36t-55.5 111z" />
<glyph unicode="&#xd7;" horiz-adv-x="1228" d="M227 870q0 39 33 70t70 31q23 -1 41 -19q72 -88 207 -215q43 -45 73 -14q123 123 199 221q25 31 59.5 31t63 -25.5t28.5 -60.5t-28 -66q-160 -160 -207 -211q-20 -29 -19 -38t21 -29q180 -174 199 -191q23 -23 22 -53q0 -37 -30.5 -68.5t-65.5 -31.5q-29 0 -49 22 q-18 18 -89 91t-98 100q-35 29 -50 26.5t-38 -24.5q-115 -111 -182 -189q-27 -29 -57 -28q-35 0 -62.5 30.5t-27.5 63.5q0 27 16 41q4 6 40 40t84 81t79 80q8 8 14 16t7 15t2 11.5t-3 11.5t-6 9t-9 10t-9 10q-18 18 -96 92t-105 103q-27 27 -27 57z" />
<glyph unicode="&#xd8;" horiz-adv-x="1699" d="M92 709q0 315 208 511.5t546 196.5q135 0 260 -33q61 -16 78 13l20 35q23 39 78 38q35 0 62.5 -15t27.5 -36q0 -10 -45 -76q-6 -8 -9 -16t-1 -15t3 -12.5t7 -10.5t9 -8t12 -7l6 -6q254 -190 254 -559q0 -322 -209 -529t-553 -207q-219 0 -332 60q-16 6 -29.5 1t-21.5 -14 l-8 -10q-43 -76 -99 -76q-25 0 -44 17.5t-19 44.5q0 37 16 57l23 31q23 29 -17 68q-223 199 -223 557zM426 784q0 -182 51 -317q14 -39 34.5 -63.5t39.5 -0.5q188 258 463 711q41 68 -8 98q-100 55 -205 56q-176 0 -275.5 -129.5t-99.5 -354.5zM641 223q104 -98 258 -98 q176 0 275.5 140.5t99.5 363.5q0 243 -98 407q-23 39 -64 -14q-338 -485 -467 -711q-33 -61 -4 -88z" />
<glyph unicode="&#xd9;" horiz-adv-x="1599" d="M49 1331q0 27 16.5 46.5t43.5 17.5q213 -16 546 0q72 0 72 -64q0 -29 -16.5 -48t-42.5 -17q-111 10 -121 -68q-16 -338 -2 -635q10 -199 83.5 -306t254.5 -107q162 0 237.5 100t81.5 311q6 190 2 551q-2 84 -38 119t-134 33q-27 -2 -43 18.5t-16 48.5q0 27 16.5 46.5 t46.5 17.5q199 -16 443 0q74 2 73 -64q0 -27 -16 -48t-41 -19q-63 2 -88 -38t-29 -108q-4 -119 -4 -315.5v-243.5q-6 -586 -583 -586q-276 0 -423 141.5t-147 456.5v625q0 39 -31.5 57.5t-80.5 14.5q-27 -4 -43.5 15.5t-16.5 47.5zM530 1753q0 39 66 39h141q72 0 109 -37 q139 -133 205 -186q27 -25 26.5 -41.5t-20 -27.5t-43.5 -11q-100 0 -129 20q-107 76 -326 203q-29 16 -29 41z" />
<glyph unicode="&#xda;" horiz-adv-x="1599" d="M49 1331q0 27 16.5 46.5t43.5 17.5q213 -16 546 0q72 0 72 -64q0 -29 -16.5 -48t-42.5 -17q-111 10 -121 -68q-16 -338 -2 -635q10 -199 83.5 -306t254.5 -107q162 0 237.5 100t81.5 311q6 190 2 551q-2 84 -38 119t-134 33q-27 -2 -43 18.5t-16 48.5q0 27 16.5 46.5 t46.5 17.5q199 -16 443 0q74 2 73 -64q0 -27 -16 -48t-41 -19q-63 2 -88 -38t-29 -108q-4 -119 -4 -315.5v-243.5q-6 -586 -583 -586q-276 0 -423 141.5t-147 456.5v625q0 39 -31.5 57.5t-80.5 14.5q-27 -4 -43.5 15.5t-16.5 47.5zM606 1527.5q0 16.5 27 41.5q92 74 205 186 q39 37 110 37h139q68 0 68 -41q0 -21 -29 -39q-229 -133 -325 -203q-35 -23 -90 -22q-6 0 -18.5 1t-20.5 1q-25 0 -45.5 11t-20.5 27.5z" />
<glyph unicode="&#xdb;" horiz-adv-x="1599" d="M49 1331q0 27 16.5 46.5t43.5 17.5q213 -16 546 0q72 0 72 -64q0 -29 -16.5 -48t-42.5 -17q-111 10 -121 -68q-16 -338 -2 -635q10 -199 83.5 -306t254.5 -107q162 0 237.5 100t81.5 311q6 190 2 551q-2 84 -38 119t-134 33q-27 -2 -43 18.5t-16 48.5q0 27 16.5 46.5 t46.5 17.5q199 -16 443 0q74 2 73 -64q0 -27 -16 -48t-41 -19q-63 2 -88 -38t-29 -108q-4 -119 -4 -315.5v-243.5q-6 -586 -583 -586q-276 0 -423 141.5t-147 456.5v625q0 39 -31.5 57.5t-80.5 14.5q-27 -4 -43.5 15.5t-16.5 47.5zM496 1534q0 20 18 33q53 45 93 80.5 t81 73.5t68 63q29 27 88 26q63 0 90 -26q162 -150 242 -215q16 -12 16 -33q0 -53 -92 -53q-41 0 -66 18q-84 63 -135 98q-29 16 -51 17q-27 0 -55 -17q-35 -23 -77.5 -54.5t-58.5 -43.5q-27 -18 -71 -18q-90 0 -90 51z" />
<glyph unicode="&#xdc;" horiz-adv-x="1599" d="M49 1331q0 27 16.5 46.5t43.5 17.5q213 -16 546 0q72 0 72 -64q0 -29 -16.5 -48t-42.5 -17q-111 10 -121 -68q-16 -338 -2 -635q10 -199 83.5 -306t254.5 -107q162 0 237.5 100t81.5 311q6 190 2 551q-2 84 -38 119t-134 33q-27 -2 -43 18.5t-16 48.5q0 27 16.5 46.5 t46.5 17.5q199 -16 443 0q74 2 73 -64q0 -27 -16 -48t-41 -19q-63 2 -88 -38t-29 -108q-4 -119 -4 -315.5v-243.5q-6 -586 -583 -586q-276 0 -423 141.5t-147 456.5v625q0 39 -31.5 57.5t-80.5 14.5q-27 -4 -43.5 15.5t-16.5 47.5zM424 1640q0 49 40 95.5t130 46.5 q59 0 105 -42t46 -108q0 -61 -45 -100t-106 -39q-59 0 -114.5 36t-55.5 111zM954 1640q0 47 41 94.5t131 47.5q59 0 103.5 -42t44.5 -108q0 -63 -43 -101t-104.5 -38t-117 36t-55.5 111z" />
<glyph unicode="&#xdd;" horiz-adv-x="1396" d="M-10 1333q0 27 16.5 45.5t44.5 16.5q227 -20 537 0q37 2 56.5 -17.5t19.5 -46t-16.5 -48t-39.5 -19.5q-61 8 -83.5 -23t3.5 -76q88 -164 189 -295q39 -51 80 2q123 156 194 289q31 45 8.5 79t-98.5 26q-27 -2 -44 18.5t-17 48.5q0 25 15 43.5t42 18.5q39 0 121 -3 l123 -4.5t104.5 1t122.5 6.5q68 2 68 -60q0 -29 -16.5 -50t-41.5 -19q-94 4 -176 -105q-78 -90 -194 -265.5t-134 -236.5q-12 -37 -12 -197.5t10.5 -252.5t139.5 -78q31 2 48 -17.5t17 -47.5q0 -31 -17.5 -51.5t-47.5 -18.5q-297 20 -609 -2q-37 -2 -57 19.5t-20 52.5 q0 29 17 48t46 17q29 0 59.5 -1t57 15.5t31.5 49.5q10 76 7 229.5t-16 191.5q-31 74 -159.5 276t-186.5 277q-63 98 -131 97q-29 -2 -45 18.5t-16 48.5zM500 1527.5q0 16.5 26 41.5q92 74 205 186q39 37 111 37h139q68 0 68 -41q0 -21 -29 -39q-229 -133 -326 -203 q-35 -23 -90 -22q-6 0 -18.5 1t-20.5 1q-25 0 -45 11t-20 27.5z" />
<glyph unicode="&#xde;" horiz-adv-x="1280" d="M82 1327q0 29 16.5 49.5t46.5 18.5q276 -16 539 0q74 0 74 -64q0 -27 -16.5 -48t-39.5 -19q-14 0 -42.5 2t-38.5 2q-20 0 -34 -18.5t-14 -43.5q0 -63 109 -63q104 0 195.5 -20.5t172 -64.5t127 -126t46.5 -193q0 -231 -145.5 -341.5t-358.5 -110.5q-31 0 -45.5 12 t-16.5 43q-6 51 58 66q197 45 196 294q0 145 -65.5 233.5t-206.5 80.5q-43 -2 -57.5 -23.5t-16.5 -64.5q-18 -358 10 -727q2 -16 7.5 -29.5t8.5 -20t15 -11.5t14.5 -6t18.5 -3h18h54q27 0 42 -19.5t15 -45.5q0 -29 -15.5 -50.5t-41.5 -19.5q-295 16 -545 0 q-31 -2 -46.5 18.5t-15.5 49t14.5 49t41.5 18.5q8 0 26.5 -2t28.5 -1t23.5 6t19.5 22.5t8 44.5q10 190 4 531t-22 476q-4 31 -35 48.5t-76 9.5q-27 -2 -41 15t-14 46z" />
<glyph unicode="&#xdf;" horiz-adv-x="1357" d="M61 899q0 31 15.5 50.5t40.5 19.5q35 0 63.5 16t47 48t30.5 58.5t24.5 66.5t18.5 52q133 319 483 320q193 0 299.5 -85t106.5 -204q0 -76 -45 -143.5t-98.5 -107.5t-98.5 -88t-45 -89q0 -45 53.5 -96t151.5 -123q211 -147 211 -318q0 -139 -112.5 -221t-258.5 -82 q-127 0 -195.5 43t-68.5 119q0 96 92 96q49 0 87 -55t71 -55q37 0 61.5 25.5t24.5 68.5q0 14 -3 27.5t-11.5 29t-14.5 26.5t-20.5 27.5t-23.5 25.5t-28.5 27.5t-28.5 26t-31.5 28t-31.5 26.5q-98 86 -140 144.5t-42 119.5q0 47 25.5 95t61.5 89t72 83t61.5 92.5t25.5 99.5 q0 86 -53.5 143t-139.5 57q-113 0 -159 -124t-54 -392q-10 -326 11 -690q0 -2 1 -8t1 -8t2 -7.5t4 -7.5t6 -5t9 -5t12.5 -3t16.5 -2t21 -1q53 0 54 -59q0 -29 -15.5 -51.5t-38.5 -22.5q-18 0 -88.5 4t-107.5 4q-25 0 -108 -4t-130 -4q-29 0 -45 19.5t-16 47.5q0 27 14 46.5 t37 19.5q49 0 70.5 8t23.5 16.5t4 39.5q14 375 4 567q-2 68 -59 67h-49q-57 0 -58 72z" />
<glyph unicode="&#xe0;" horiz-adv-x="1089" d="M68 225q0 78 51 133.5t127 85t153.5 49t142 39t81.5 41.5q16 27 16 78q0 82 -34 126t-93 44q-47 0 -86 -17.5t-51 -45.5q-4 -14 3 -49t7 -47q0 -41 -32.5 -71t-100.5 -30q-70 0 -108 37t-38 90q0 113 152 197t338 84q154 0 235.5 -81t81.5 -224q0 -23 -5 -129.5 t-5 -167.5q0 -135 17 -168q25 -45 100 -33q18 2 31.5 -17.5t13.5 -46.5q0 -53 -39 -67q-166 -55 -264 -55q-43 0 -80 73q-12 18 -29 10q-4 -2 -50 -25.5t-105.5 -40.5t-126.5 -17q-143 0 -223 70.5t-80 174.5zM297.5 1451.5q9.5 21.5 46.5 21.5q4 0 71.5 1t90.5 1 q39 0 57 -39q61 -129 164 -283q27 -37 -41 -57q-76 -18 -111 8q-57 76 -260 297q-27 29 -17.5 50.5zM362 250q0 -45 33 -83t99 -38q133 0 145 195v35.5t-9 41t-26 15.5q-33 -8 -45 -10.5t-49 -13.5t-55.5 -22.5t-44 -28.5t-37 -39.5t-11.5 -51.5z" />
<glyph unicode="&#xe1;" horiz-adv-x="1089" d="M68 225q0 78 51 133.5t127 85t153.5 49t142 39t81.5 41.5q16 27 16 78q0 82 -34 126t-93 44q-47 0 -86 -17.5t-51 -45.5q-4 -14 3 -49t7 -47q0 -41 -32.5 -71t-100.5 -30q-70 0 -108 37t-38 90q0 113 152 197t338 84q154 0 235.5 -81t81.5 -224q0 -23 -5 -129.5 t-5 -167.5q0 -135 17 -168q25 -45 100 -33q18 2 31.5 -17.5t13.5 -46.5q0 -53 -39 -67q-166 -55 -264 -55q-43 0 -80 73q-12 18 -29 10q-4 -2 -50 -25.5t-105.5 -40.5t-126.5 -17q-143 0 -223 70.5t-80 174.5zM362 250q0 -45 33 -83t99 -38q133 0 145 195v35.5t-9 41 t-26 15.5q-33 -8 -45 -10.5t-49 -13.5t-55.5 -22.5t-44 -28.5t-37 -39.5t-11.5 -51.5zM391 1137q0 6 6 16q96 141 166 283q16 39 58 39q23 0 90 -1t69 -1q49 0 49 -31q0 -16 -20 -41q-10 -10 -61.5 -66.5t-104.5 -117t-94 -113.5q-14 -14 -55 -14q-39 0 -71 13t-32 34z" />
<glyph unicode="&#xe2;" horiz-adv-x="1089" d="M68 225q0 78 51 133.5t127 85t153.5 49t142 39t81.5 41.5q16 27 16 78q0 82 -34 126t-93 44q-47 0 -86 -17.5t-51 -45.5q-4 -14 3 -49t7 -47q0 -41 -32.5 -71t-100.5 -30q-70 0 -108 37t-38 90q0 113 152 197t338 84q154 0 235.5 -81t81.5 -224q0 -23 -5 -129.5 t-5 -167.5q0 -135 17 -168q25 -45 100 -33q18 2 31.5 -17.5t13.5 -46.5q0 -53 -39 -67q-166 -55 -264 -55q-43 0 -80 73q-12 18 -29 10q-4 -2 -50 -25.5t-105.5 -40.5t-126.5 -17q-143 0 -223 70.5t-80 174.5zM262 1137q0 12 8 22q59 76 193 293q18 27 82 27q59 0 71 -25 q125 -209 191 -295q6 -10 6 -20q0 -20 -25.5 -36t-58.5 -16q-39 0 -53 23q-76 98 -117 137q-10 12 -22.5 12.5t-20.5 -12.5q-68 -72 -123 -141q-16 -18 -49 -19q-31 0 -56.5 14.5t-25.5 35.5zM362 250q0 -45 33 -83t99 -38q133 0 145 195v35.5t-9 41t-26 15.5 q-33 -8 -45 -10.5t-49 -13.5t-55.5 -22.5t-44 -28.5t-37 -39.5t-11.5 -51.5z" />
<glyph unicode="&#xe3;" horiz-adv-x="1089" d="M68 225q0 78 51 133.5t127 85t153.5 49t142 39t81.5 41.5q16 27 16 78q0 82 -34 126t-93 44q-47 0 -86 -17.5t-51 -45.5q-4 -14 3 -49t7 -47q0 -41 -32.5 -71t-100.5 -30q-70 0 -108 37t-38 90q0 113 152 197t338 84q154 0 235.5 -81t81.5 -224q0 -23 -5 -129.5 t-5 -167.5q0 -135 17 -168q25 -45 100 -33q18 2 31.5 -17.5t13.5 -46.5q0 -53 -39 -67q-166 -55 -264 -55q-43 0 -80 73q-12 18 -29 10q-4 -2 -50 -25.5t-105.5 -40.5t-126.5 -17q-143 0 -223 70.5t-80 174.5zM172 1194q0 88 62.5 162t154.5 74q74 0 175.5 -50.5 t121.5 -50.5q43 0 66 47q14 31 57 31q29 0 52.5 -13.5t23.5 -31.5q0 -90 -61.5 -162t-153.5 -72q-74 0 -176.5 50.5t-120.5 50.5q-45 0 -68 -47q-14 -31 -57 -31q-29 0 -52.5 13.5t-23.5 29.5zM362 250q0 -45 33 -83t99 -38q133 0 145 195v35.5t-9 41t-26 15.5 q-33 -8 -45 -10.5t-49 -13.5t-55.5 -22.5t-44 -28.5t-37 -39.5t-11.5 -51.5z" />
<glyph unicode="&#xe4;" horiz-adv-x="1089" d="M68 225q0 78 51 133.5t127 85t153.5 49t142 39t81.5 41.5q16 27 16 78q0 82 -34 126t-93 44q-47 0 -86 -17.5t-51 -45.5q-4 -14 3 -49t7 -47q0 -41 -32.5 -71t-100.5 -30q-70 0 -108 37t-38 90q0 113 152 197t338 84q154 0 235.5 -81t81.5 -224q0 -23 -5 -129.5 t-5 -167.5q0 -135 17 -168q25 -45 100 -33q18 2 31.5 -17.5t13.5 -46.5q0 -53 -39 -67q-166 -55 -264 -55q-43 0 -80 73q-12 18 -29 10q-4 -2 -50 -25.5t-105.5 -40.5t-126.5 -17q-143 0 -223 70.5t-80 174.5zM195 1280q0 43 36.5 87t116.5 44q53 0 96 -39t43 -102 q0 -57 -41 -93t-98 -36q-53 0 -103 32.5t-50 106.5zM362 250q0 -45 33 -83t99 -38q133 0 145 195v35.5t-9 41t-26 15.5q-33 -8 -45 -10.5t-49 -13.5t-55.5 -22.5t-44 -28.5t-37 -39.5t-11.5 -51.5zM598 1280q0 43 38 87t118 44q55 0 95 -39t40 -102q0 -57 -39 -93t-96 -36 q-55 0 -105.5 32.5t-50.5 106.5z" />
<glyph unicode="&#xe5;" horiz-adv-x="1089" d="M68 225q0 78 51 133.5t127 85t153.5 49t142 39t81.5 41.5q16 27 16 78q0 82 -34 126t-93 44q-47 0 -86 -17.5t-51 -45.5q-4 -14 3 -49t7 -47q0 -41 -32.5 -71t-100.5 -30q-70 0 -108 37t-38 90q0 113 152 197t338 84q154 0 235.5 -81t81.5 -224q0 -23 -5 -129.5 t-5 -167.5q0 -135 17 -168q25 -45 100 -33q18 2 31.5 -17.5t13.5 -46.5q0 -53 -39 -67q-166 -55 -264 -55q-43 0 -80 73q-12 18 -29 10q-4 -2 -50 -25.5t-105.5 -40.5t-126.5 -17q-143 0 -223 70.5t-80 174.5zM283 1296.5q0 100.5 77 163t181 62.5q100 0 175 -63.5 t75 -149.5q0 -109 -74 -171.5t-178 -62.5q-111 0 -183.5 60.5t-72.5 161zM362 250q0 -45 33 -83t99 -38q133 0 145 195v35.5t-9 41t-26 15.5q-33 -8 -45 -10.5t-49 -13.5t-55.5 -22.5t-44 -28.5t-37 -39.5t-11.5 -51.5zM408 1300q0 -53 35.5 -84.5t88.5 -31.5 q57 0 94.5 32.5t37.5 90.5q0 43 -37 74.5t-88 31.5q-53 0 -92 -31.5t-39 -81.5z" />
<glyph unicode="&#xe6;" horiz-adv-x="1583" d="M68 225q0 94 78.5 157.5t175 89.5t189.5 51.5t112 49.5q16 23 16 72q0 86 -34 131t-93 45q-47 0 -86 -17.5t-51 -45.5q-4 -14 3 -49t7 -47q0 -41 -33 -71t-100 -30q-70 0 -108 37t-38 90q0 113 152 197t338 84q129 0 221 -92q25 -29 51 -5q106 96 277 97 q166 0 265 -101.5t99 -232.5q0 -49 -24.5 -84t-77.5 -39q-45 -4 -218 -10t-220 -8q-59 -2 -58 -70q4 -117 87 -186.5t192 -69.5q119 0 205 78q16 14 35 14q25 0 44 -24.5t19 -55.5q0 -20 -12 -37q-123 -162 -389 -161q-229 0 -336 112q-18 14 -35 4q-4 -2 -28.5 -21.5 t-37 -27.5t-44 -24.5t-61.5 -23.5t-77 -14t-102 -7q-143 0 -223 70.5t-80 174.5zM362 250q0 -53 40 -87t100 -34q61 2 97 54.5t40 140.5v35.5t-9 41t-26 15.5q-33 -8 -45 -10.5t-49 -13.5t-55.5 -22.5t-44 -28.5t-37 -39.5t-11.5 -51.5zM938 668q-14 -48 33 -50 q125 -6 260 13q59 10 49 78t-76 100q-29 14 -59 14q-78 0 -132.5 -49t-74.5 -106z" />
<glyph unicode="&#xe7;" horiz-adv-x="1028" d="M72 457q0 227 151.5 369.5t403.5 142.5q92 0 167.5 -21.5t96.5 -40.5q33 -25 33 -272q0 -16 -23.5 -32.5t-50.5 -16.5q-43 0 -53 45q-41 184 -179 184q-102 0 -176.5 -81t-74.5 -220q0 -158 81.5 -251t217.5 -93q125 0 190 82q18 25 45 24q31 0 50.5 -31.5t6.5 -62.5 q-74 -154 -272 -196q-72 -12 -98 -49q-16 -23 -14.5 -31t24.5 -12q80 -10 111.5 -37t31.5 -76q0 -61 -75.5 -115.5t-182.5 -62.5q-25 -2 -37 18.5t-12 44.5q0 37 19 37q94 6 94 59q0 45 -96 45q-33 0 -48.5 20.5t-1.5 47.5q2 4 13.5 21.5t17.5 31.5q27 49 -49 76 q-143 49 -227 173t-84 280z" />
<glyph unicode="&#xe8;" horiz-adv-x="1042" d="M74 451q0 219 145.5 368.5t384.5 149.5q166 0 265.5 -101.5t99.5 -232.5q0 -49 -25 -84t-78 -39q-45 -4 -218 -10t-220 -8q-57 -2 -57 -64q0 -119 84 -190.5t194 -71.5q119 0 205 78q16 14 35 14q27 0 45 -24.5t18 -55.5q0 -20 -12 -37q-123 -162 -387 -161 q-240 0 -359.5 132t-119.5 337zM314.5 1451.5q9.5 21.5 45.5 21.5q4 0 72 1t90 1q39 0 58 -39q61 -129 163 -283q27 -37 -41 -57q-76 -18 -110 8q-57 76 -260 297q-27 29 -17.5 50.5zM393 645q0 -27 37 -27q170 0 240.5 14.5t70.5 61.5q0 45 -38.5 87t-98.5 42 q-86 0 -148.5 -64.5t-62.5 -113.5z" />
<glyph unicode="&#xe9;" horiz-adv-x="1042" d="M74 451q0 219 145.5 368.5t384.5 149.5q166 0 265.5 -101.5t99.5 -232.5q0 -49 -25 -84t-78 -39q-45 -4 -218 -10t-220 -8q-57 -2 -57 -64q0 -119 84 -190.5t194 -71.5q119 0 205 78q16 14 35 14q27 0 45 -24.5t18 -55.5q0 -20 -12 -37q-123 -162 -387 -161 q-240 0 -359.5 132t-119.5 337zM393 645q0 -27 37 -27q170 0 240.5 14.5t70.5 61.5q0 45 -38.5 87t-98.5 42q-86 0 -148.5 -64.5t-62.5 -113.5zM422 1137q0 6 6 16q96 141 166 283q16 39 57 39q20 0 88 -1t72 -1q49 0 49 -31q0 -16 -20 -41q-10 -10 -61.5 -66.5t-104.5 -117 t-94 -113.5q-14 -14 -56 -14q-39 0 -70.5 13t-31.5 34z" />
<glyph unicode="&#xea;" horiz-adv-x="1042" d="M74 451q0 219 145.5 368.5t384.5 149.5q166 0 265.5 -101.5t99.5 -232.5q0 -49 -25 -84t-78 -39q-45 -4 -218 -10t-220 -8q-57 -2 -57 -64q0 -119 84 -190.5t194 -71.5q119 0 205 78q16 14 35 14q27 0 45 -24.5t18 -55.5q0 -20 -12 -37q-123 -162 -387 -161 q-240 0 -359.5 132t-119.5 337zM295 1137q0 12 8 22q59 76 193 293q18 27 82 27q59 0 71 -25q125 -209 191 -295q6 -10 6 -20q0 -20 -25.5 -36t-58.5 -16q-39 0 -53 23q-76 98 -117 137q-10 12 -22.5 12.5t-20.5 -12.5q-68 -72 -123 -141q-16 -18 -49 -19q-31 0 -56.5 14.5 t-25.5 35.5zM393 645q0 -27 37 -27q170 0 240.5 14.5t70.5 61.5q0 45 -38.5 87t-98.5 42q-86 0 -148.5 -64.5t-62.5 -113.5z" />
<glyph unicode="&#xeb;" horiz-adv-x="1042" d="M74 451q0 219 145.5 368.5t384.5 149.5q166 0 265.5 -101.5t99.5 -232.5q0 -49 -25 -84t-78 -39q-45 -4 -218 -10t-220 -8q-57 -2 -57 -64q0 -119 84 -190.5t194 -71.5q119 0 205 78q16 14 35 14q27 0 45 -24.5t18 -55.5q0 -20 -12 -37q-123 -162 -387 -161 q-240 0 -359.5 132t-119.5 337zM227 1280q0 43 37 87t117 44q53 0 96 -39t43 -102q0 -57 -41 -93t-98 -36q-53 0 -103.5 32.5t-50.5 106.5zM393 645q0 -27 37 -27q170 0 240.5 14.5t70.5 61.5q0 45 -38.5 87t-98.5 42q-86 0 -148.5 -64.5t-62.5 -113.5zM631 1280q0 43 38 87 t117 44q55 0 95.5 -39t40.5 -102q0 -57 -39.5 -93t-96.5 -36q-55 0 -105 32.5t-50 106.5z" />
<glyph unicode="&#xec;" horiz-adv-x="722" d="M63 61.5q0 28.5 15.5 49t42 18.5t45 -2t32 14.5t23.5 48.5q16 61 15.5 305t-15.5 287q-8 23 -23.5 28t-68.5 1q-25 -2 -40 18.5t-15 49.5q0 27 14 46t41 19q225 2 340 29q55 -10 49 -76q-10 -113 -5 -366.5t17 -335.5q4 -31 7.5 -40.5t25 -19.5t66.5 -6q31 2 46 -15.5 t15 -46t-16.5 -51t-42.5 -20.5q-279 14 -500 -2q-31 -2 -49.5 18.5t-18.5 49zM107.5 1451.5q9.5 21.5 46.5 21.5q4 0 71.5 1t89.5 1q37 0 58 -39q61 -129 164 -283q27 -37 -41 -57q-76 -18 -111 8q-57 76 -260 297q-27 29 -17.5 50.5z" />
<glyph unicode="&#xed;" horiz-adv-x="722" d="M63 61.5q0 28.5 15.5 49t42 18.5t45 -2t32 14.5t23.5 48.5q16 61 15.5 305t-15.5 287q-8 23 -23.5 28t-68.5 1q-25 -2 -40 18.5t-15 49.5q0 27 14 46t41 19q225 2 340 29q55 -10 49 -76q-10 -113 -5 -366.5t17 -335.5q4 -31 7.5 -40.5t25 -19.5t66.5 -6q31 2 46 -15.5 t15 -46t-16.5 -51t-42.5 -20.5q-279 14 -500 -2q-31 -2 -49.5 18.5t-18.5 49zM201 1137q0 6 6 16q96 141 166 283q16 39 57 39q20 0 88 -1t72 -1q49 0 49 -31q-1 -16 -21 -41q-10 -10 -61 -66.5t-104.5 -117t-94.5 -113.5q-14 -14 -55 -14q-39 0 -70.5 13t-31.5 34z" />
<glyph unicode="&#xee;" horiz-adv-x="722" d="M63 61.5q0 28.5 15.5 49t42 18.5t45 -2t32 14.5t23.5 48.5q16 61 15.5 305t-15.5 287q-8 23 -23.5 28t-68.5 1q-25 -2 -40 18.5t-15 49.5q0 27 14 46t41 19q225 2 340 29q55 -10 49 -76q-10 -113 -5 -366.5t17 -335.5q4 -31 7.5 -40.5t25 -19.5t66.5 -6q31 2 46 -15.5 t15 -46t-16.5 -51t-42.5 -20.5q-279 14 -500 -2q-31 -2 -49.5 18.5t-18.5 49zM72 1137q0 12 8 22q59 76 192 293q18 27 82 27q59 0 72 -25q125 -209 190 -295q6 -10 7 -20q0 -20 -26 -36t-58 -16q-40 0 -54 23q-76 98 -116 137q-8 12 -23 13q-10 0 -20 -13 q-68 -72 -123 -141q-16 -18 -49 -19q-31 0 -56.5 14.5t-25.5 35.5z" />
<glyph unicode="&#xef;" horiz-adv-x="722" d="M4 1280q0 43 37 87t117 44q53 0 96 -39t43 -102q0 -57 -41 -93t-98 -36q-53 0 -103.5 32.5t-50.5 106.5zM63 61.5q0 28.5 15.5 49t42 18.5t45 -2t32 14.5t23.5 48.5q16 61 15.5 305t-15.5 287q-8 23 -23.5 28t-68.5 1q-25 -2 -40 18.5t-15 49.5q0 27 14 46t41 19 q225 2 340 29q55 -10 49 -76q-10 -113 -5 -366.5t17 -335.5q4 -31 7.5 -40.5t25 -19.5t66.5 -6q31 2 46 -15.5t15 -46t-16.5 -51t-42.5 -20.5q-279 14 -500 -2q-31 -2 -49.5 18.5t-18.5 49zM408 1280q0 43 37.5 87t117.5 44q55 0 95 -39t40 -102q0 -57 -39 -93t-96 -36 q-55 0 -105 32.5t-50 106.5z" />
<glyph unicode="&#xf0;" horiz-adv-x="1230" d="M74 463q0 213 133 354t315 141q61 0 112.5 -24.5t51.5 -77.5q0 -33 -21.5 -63.5t-56.5 -30.5q-31 0 -71.5 18.5t-63.5 18.5q-106 0 -106 -189q0 -225 75.5 -357t186.5 -132q82 0 139 86t57 246q0 408 -182 663q-23 35 -59 14q-39 -20 -82 -46.5t-56 -30.5q-12 -6 -24 -6 q-31 0 -54.5 26.5t-23.5 57t29 43.5q45 18 104 53q41 29 0 61q-8 6 -25.5 18.5t-25.5 18.5q-98 66 -98 119q0 31 22.5 56.5t53 25.5t67.5 -12.5t62.5 -24.5t73 -39t65.5 -37q43 -25 88 -4l129 70q16 8 26 8q33 0 61 -28.5t28 -59.5t-31 -45q-100 -47 -107 -51q-31 -16 0 -48 q276 -281 277 -651q0 -274 -151.5 -452.5t-409.5 -178.5q-221 0 -364.5 130t-143.5 360z" />
<glyph unicode="&#xf1;" horiz-adv-x="1357" d="M68 803q0 41 38 55q45 16 150.5 51t122.5 35q39 0 76 -104q18 -56 57 -21q166 145 344 146q156 0 242 -96.5t82 -268.5q0 -51 -4.5 -195.5t-4.5 -211.5q0 -16 3.5 -27.5t11.5 -22t26.5 -14.5t47.5 -2q31 2 46 -16.5t15 -44.5q0 -29 -16.5 -50.5t-44.5 -19.5 q-240 18 -437 0q-31 -4 -48 19.5t-17 54.5q0 27 13 43t38 14q37 -4 53.5 8t18.5 58q8 139 8 397q0 109 -43 158t-103 49q-90 0 -154.5 -80t-70.5 -201q-10 -195 4 -317q4 -27 8.5 -40.5t19.5 -23.5t44 -8q27 2 42 -15.5t15 -43.5q0 -29 -15 -50.5t-42 -19.5q-301 12 -457 0 q-31 -4 -48 14.5t-17 47t16 50t43 17.5q98 -10 102 70q6 55 4.5 224t-10.5 241q-10 61 -33.5 77.5t-68.5 1.5q-23 -6 -40 14.5t-17 47.5zM354 1194q0 88 62.5 162t154.5 74q74 0 175.5 -50.5t121.5 -50.5q43 0 66 47q16 31 57 31q29 0 52.5 -13.5t23.5 -31.5 q0 -90 -61.5 -162t-153.5 -72q-74 0 -176.5 50.5t-120.5 50.5q-25 0 -39 -9.5t-29 -37.5q-16 -31 -57 -31q-29 0 -52.5 13.5t-23.5 29.5z" />
<glyph unicode="&#xf2;" horiz-adv-x="1191" d="M74 451q0 252 151 385t387 133q221 0 363.5 -125t142.5 -361q0 -238 -147.5 -374t-384.5 -136q-223 0 -367.5 127t-144.5 351zM369 539q0 -160 74.5 -284t191.5 -124q190 0 190 266q0 59 -13 127t-42 136.5t-83 113.5t-124 45q-88 0 -141 -74.5t-53 -205.5zM371.5 1451.5 q9.5 21.5 46.5 21.5q4 0 71.5 1t90.5 1q39 0 57 -39q61 -129 164 -283q27 -37 -41 -57q-76 -18 -111 8q-57 76 -260 297q-27 29 -17.5 50.5z" />
<glyph unicode="&#xf3;" horiz-adv-x="1191" d="M74 451q0 252 151 385t387 133q221 0 363.5 -125t142.5 -361q0 -238 -147.5 -374t-384.5 -136q-223 0 -367.5 127t-144.5 351zM369 539q0 -160 74.5 -284t191.5 -124q190 0 190 266q0 59 -13 127t-42 136.5t-83 113.5t-124 45q-88 0 -141 -74.5t-53 -205.5zM465 1137 q0 6 6 16q96 141 166 283q16 39 57 39q23 0 90.5 -1t69.5 -1q49 0 49 -31q0 -16 -20 -41q-10 -10 -61.5 -66.5t-104.5 -117t-94 -113.5q-14 -14 -56 -14q-39 0 -70.5 13t-31.5 34z" />
<glyph unicode="&#xf4;" horiz-adv-x="1191" d="M74 451q0 252 151 385t387 133q221 0 363.5 -125t142.5 -361q0 -238 -147.5 -374t-384.5 -136q-223 0 -367.5 127t-144.5 351zM336 1137q0 12 8 22q59 76 193 293q18 27 81 27q59 0 72 -25q125 -209 191 -295q6 -10 6 -20q0 -20 -25.5 -36t-58.5 -16q-39 0 -53 23 q-76 98 -117 137q-10 12 -22.5 12.5t-20.5 -12.5q-68 -72 -123 -141q-16 -18 -49 -19q-31 0 -56.5 14.5t-25.5 35.5zM369 539q0 -160 74.5 -284t191.5 -124q190 0 190 266q0 59 -13 127t-42 136.5t-83 113.5t-124 45q-88 0 -141 -74.5t-53 -205.5z" />
<glyph unicode="&#xf5;" horiz-adv-x="1191" d="M74 451q0 252 151 385t387 133q221 0 363.5 -125t142.5 -361q0 -238 -147.5 -374t-384.5 -136q-223 0 -367.5 127t-144.5 351zM246 1194q0 88 62.5 162t154.5 74q74 0 175 -50.5t122 -50.5q43 0 65 47q14 31 58 31q29 0 52 -13.5t23 -31.5q0 -90 -61 -162t-154 -72 q-74 0 -176 50.5t-121 50.5q-45 0 -67 -47q-14 -31 -57 -31q-29 0 -52.5 13.5t-23.5 29.5zM369 539q0 -160 74.5 -284t191.5 -124q190 0 190 266q0 59 -13 127t-42 136.5t-83 113.5t-124 45q-88 0 -141 -74.5t-53 -205.5z" />
<glyph unicode="&#xf6;" horiz-adv-x="1191" d="M74 451q0 252 151 385t387 133q221 0 363.5 -125t142.5 -361q0 -238 -147.5 -374t-384.5 -136q-223 0 -367.5 127t-144.5 351zM268 1280q0 43 37 87t117 44q53 0 96 -39t43 -102q0 -57 -41 -93t-98 -36q-53 0 -103.5 32.5t-50.5 106.5zM369 539q0 -160 74.5 -284 t191.5 -124q190 0 190 266q0 59 -13 127t-42 136.5t-83 113.5t-124 45q-88 0 -141 -74.5t-53 -205.5zM672 1280q0 43 38 87t117 44q55 0 95.5 -39t40.5 -102q0 -57 -39.5 -93t-96.5 -36q-55 0 -105 32.5t-50 106.5z" />
<glyph unicode="&#xf7;" horiz-adv-x="1228" d="M162 563q0 33 19.5 58.5t54.5 27.5q16 2 182 0t340 0t227 13q35 6 58.5 -24t23.5 -69q0 -33 -20.5 -55t-63.5 -22q-688 0 -739 -7q-37 -4 -59.5 19.5t-22.5 58.5zM451 201q0 72 43 112.5t112 40.5q158 0 158 -145q0 -68 -41 -113t-117 -45q-72 0 -113.5 42t-41.5 108z M451 954q0 70 43 110t112 40q158 0 158 -143q0 -68 -41 -113t-117 -45q-72 0 -113.5 42.5t-41.5 108.5z" />
<glyph unicode="&#xf8;" horiz-adv-x="1191" d="M74 451q0 252 151.5 385t386.5 133q43 0 84 -6q63 -6 76 30l10 25q23 51 80 51q25 0 44.5 -13.5t19.5 -31.5q0 -8 -33 -68q-18 -39 47 -84q178 -131 178 -389q0 -238 -147.5 -374t-384.5 -136q-45 1 -88 7q-39 6 -56.5 0.5t-27.5 -27.5q-33 -74 -86 -74q-66 0 -66 39 q0 20 23 55q29 53 -27 97q-184 139 -184 381zM365 475q7 -88 36 -149q29 -57 54 -17q184 348 200 402q27 82 -26 100q-25 8 -72 8q-98 -4 -152.5 -96t-39.5 -248zM528 221q-20 -51 35 -76q41 -16 80 -14q78 2 124 54.5t57.5 120t4.5 153.5q-4 78 -32 151q-8 18 -12.5 25.5 t-12.5 13.5t-18.5 -2t-22.5 -29q-37 -61 -107.5 -200t-95.5 -197z" />
<glyph unicode="&#xf9;" horiz-adv-x="1296" d="M41 877q0 27 16.5 47t46.5 20q127 -2 291 19q62 8 76 -23q8 -16 9 -52t-2 -98.5t-3 -93.5q0 -360 2 -387q12 -150 127 -149q70 0 132.5 64.5t68.5 174.5q10 205 8 322q-2 57 -21.5 76.5t-74.5 15.5q-29 -2 -45.5 17.5t-16.5 48.5q0 27 15.5 46t42.5 19q197 0 319 19 q18 6 40 -2.5t26 -28.5q6 -33 2 -197q-10 -340 -4 -452q4 -76 24.5 -101.5t81.5 -15.5q18 2 32.5 -16.5t14.5 -43.5q0 -51 -43 -73q-31 -14 -135 -33.5t-125 -19.5q-18 0 -46 27.5t-44 82.5q-16 47 -72 6q-141 -115 -313 -116q-145 -2 -214 84t-73 243q0 31 2 186.5t0 215.5 q-2 35 -4 47t-9 31.5t-23.5 24.5t-45 1t-46 15.5t-17.5 48.5zM388 1451.5q9 21.5 46 21.5q4 0 71.5 1t90.5 1q39 0 57 -39q61 -129 164 -283q27 -37 -41 -57q-76 -18 -110 8q-57 76 -260 297q-27 29 -18 50.5z" />
<glyph unicode="&#xfa;" horiz-adv-x="1296" d="M41 877q0 27 16.5 47t46.5 20q127 -2 291 19q62 8 76 -23q8 -16 9 -52t-2 -98.5t-3 -93.5q0 -360 2 -387q12 -150 127 -149q70 0 132.5 64.5t68.5 174.5q10 205 8 322q-2 57 -21.5 76.5t-74.5 15.5q-29 -2 -45.5 17.5t-16.5 48.5q0 27 15.5 46t42.5 19q197 0 319 19 q18 6 40 -2.5t26 -28.5q6 -33 2 -197q-10 -340 -4 -452q4 -76 24.5 -101.5t81.5 -15.5q18 2 32.5 -16.5t14.5 -43.5q0 -51 -43 -73q-31 -14 -135 -33.5t-125 -19.5q-18 0 -46 27.5t-44 82.5q-16 47 -72 6q-141 -115 -313 -116q-145 -2 -214 84t-73 243q0 31 2 186.5t0 215.5 q-2 35 -4 47t-9 31.5t-23.5 24.5t-45 1t-46 15.5t-17.5 48.5zM481 1137q0 6 6 16q96 141 166 283q16 39 58 39q23 0 90 -1t69 -1q49 0 50 -31q-1 -16 -21 -41q-10 -10 -61.5 -66.5t-104.5 -117t-94 -113.5q-14 -14 -55 -14q-39 0 -71 13t-32 34z" />
<glyph unicode="&#xfb;" horiz-adv-x="1296" d="M41 877q0 27 16.5 47t46.5 20q127 -2 291 19q62 8 76 -23q8 -16 9 -52t-2 -98.5t-3 -93.5q0 -360 2 -387q12 -150 127 -149q70 0 132.5 64.5t68.5 174.5q10 205 8 322q-2 57 -21.5 76.5t-74.5 15.5q-29 -2 -45.5 17.5t-16.5 48.5q0 27 15.5 46t42.5 19q197 0 319 19 q18 6 40 -2.5t26 -28.5q6 -33 2 -197q-10 -340 -4 -452q4 -76 24.5 -101.5t81.5 -15.5q18 2 32.5 -16.5t14.5 -43.5q0 -51 -43 -73q-31 -14 -135 -33.5t-125 -19.5q-18 0 -46 27.5t-44 82.5q-16 47 -72 6q-141 -115 -313 -116q-145 -2 -214 84t-73 243q0 31 2 186.5t0 215.5 q-2 35 -4 47t-9 31.5t-23.5 24.5t-45 1t-46 15.5t-17.5 48.5zM354 1137q0 12 8 22q59 76 193 293q18 27 82 27q59 0 72 -25q125 -209 190 -295q6 -10 6 -20q0 -20 -25.5 -36t-58.5 -16q-39 0 -53 23q-76 98 -117 137q-8 12 -22 13q-10 0 -21 -13q-68 -72 -123 -141 q-16 -18 -49 -19q-31 0 -56.5 14.5t-25.5 35.5z" />
<glyph unicode="&#xfc;" horiz-adv-x="1296" d="M41 877q0 27 16.5 47t46.5 20q127 -2 291 19q62 8 76 -23q8 -16 9 -52t-2 -98.5t-3 -93.5q0 -360 2 -387q12 -150 127 -149q70 0 132.5 64.5t68.5 174.5q10 205 8 322q-2 57 -21.5 76.5t-74.5 15.5q-29 -2 -45.5 17.5t-16.5 48.5q0 27 15.5 46t42.5 19q197 0 319 19 q18 6 40 -2.5t26 -28.5q6 -33 2 -197q-10 -340 -4 -452q4 -76 24.5 -101.5t81.5 -15.5q18 2 32.5 -16.5t14.5 -43.5q0 -51 -43 -73q-31 -14 -135 -33.5t-125 -19.5q-18 0 -46 27.5t-44 82.5q-16 47 -72 6q-141 -115 -313 -116q-145 -2 -214 84t-73 243q0 31 2 186.5t0 215.5 q-2 35 -4 47t-9 31.5t-23.5 24.5t-45 1t-46 15.5t-17.5 48.5zM287 1280q0 43 36.5 87t116.5 44q53 0 96.5 -39t43.5 -102q0 -57 -41.5 -93t-98.5 -36q-53 0 -103 32.5t-50 106.5zM690 1280q0 43 38 87t118 44q55 0 95 -39t40 -102q0 -57 -39 -93t-96 -36q-55 0 -105.5 32.5 t-50.5 106.5z" />
<glyph unicode="&#xfd;" horiz-adv-x="1181" d="M-8 887q0 27 15.5 45t45.5 16q283 -10 461 0q41 2 61.5 -16.5t20.5 -44.5q0 -25 -16.5 -45.5t-40.5 -18.5q-55 4 -65.5 -18.5t7.5 -65.5q20 -74 62.5 -166t68.5 -135q20 -33 49 -31.5t46 27.5q50 88 120 293q20 47 9 74.5t-72 21.5q-27 -2 -44.5 17.5t-17.5 46.5 q0 25 16.5 43t45.5 18q240 -6 360 0q63 2 64 -61q0 -27 -14.5 -46.5t-38.5 -17.5q-39 2 -69 -15t-43 -35.5t-34 -55.5q-74 -143 -323 -746q-160 -389 -400 -389q-78 0 -123 39t-45 94q0 25 7.5 45.5t26 36t30.5 25.5t43 20.5t43 13.5t48 11t42 10q74 16 119 58t51 92 q-8 78 -127 319.5t-229 431.5q-29 49 -109 47q-23 -2 -37 17.5t-14 44.5zM500 1137q0 6 6 16q96 141 166 283q16 39 57 39q20 0 88 -1t72 -1q49 0 49 -31q0 -16 -20 -41q-10 -10 -61.5 -66.5t-105 -117t-94.5 -113.5q-14 -14 -55 -14q-39 0 -70.5 13t-31.5 34z" />
<glyph unicode="&#xfe;" horiz-adv-x="1183" d="M0 1409q0 25 14.5 43t38.5 18q154 2 332 60q57 -23 53 -86q-14 -317 -10 -461q0 -63 21.5 -72.5t44.5 13.5q78 45 188 45q182 0 305 -135.5t123 -339.5q0 -211 -124 -366t-327 -155q-76 0 -112.5 29t-36.5 68q0 55 49 55q4 0 19.5 -1t29.5 -1q31 0 54 6q139 37 139 324 q0 346 -203 346q-74 0 -115 -48.5t-47 -121.5q-8 -96 -8 -403.5t8 -418.5q4 -39 23.5 -55t89.5 -14q29 0 44 -20.5t15 -49t-15 -50t-44 -19.5q-272 14 -479 2q-31 -4 -49.5 16.5t-18.5 50.5q0 29 15.5 49.5t41.5 18.5q43 -4 65.5 12t25.5 70q6 98 6 624.5t-9 839.5 q-2 43 -20 54.5t-64 6.5q-29 -4 -46 16.5t-17 49.5z" />
<glyph unicode="&#xff;" horiz-adv-x="1181" d="M-8 887q0 27 15.5 45t45.5 16q283 -10 461 0q41 2 61.5 -16.5t20.5 -44.5q0 -25 -16.5 -45.5t-40.5 -18.5q-55 4 -65.5 -18.5t7.5 -65.5q20 -74 62.5 -166t68.5 -135q20 -33 49 -31.5t46 27.5q50 88 120 293q20 47 9 74.5t-72 21.5q-27 -2 -44.5 17.5t-17.5 46.5 q0 25 16.5 43t45.5 18q240 -6 360 0q63 2 64 -61q0 -27 -14.5 -46.5t-38.5 -17.5q-39 2 -69 -15t-43 -35.5t-34 -55.5q-74 -143 -323 -746q-160 -389 -400 -389q-78 0 -123 39t-45 94q0 25 7.5 45.5t26 36t30.5 25.5t43 20.5t43 13.5t48 11t42 10q74 16 119 58t51 92 q-8 78 -127 319.5t-229 431.5q-29 49 -109 47q-23 -2 -37 17.5t-14 44.5zM303 1280q0 43 37 87t117 44q53 0 96 -39t43 -102q0 -57 -41 -93t-98 -36q-53 0 -103.5 32.5t-50.5 106.5zM707 1280q0 43 37.5 87t117.5 44q55 0 95 -39t40 -102q0 -57 -39 -93t-96 -36 q-55 0 -105 32.5t-50 106.5z" />
<glyph unicode="&#x152;" horiz-adv-x="2074" d="M92 709q0 313 204 510.5t525 197.5q57 0 164 -16.5t156 -20.5q193 -16 698 13q115 6 105 -68q-20 -184 -23 -215q-4 -39 -40 -54.5t-69.5 -2t-33.5 44.5q4 100 -63.5 133t-264.5 33q-98 0 -102 -97q-4 -47 -5.5 -164.5t3.5 -164.5q4 -61 49 -66q18 -2 81.5 -1t84.5 3 q49 4 68.5 25.5t19.5 81.5q0 39 34.5 54t69.5 -3.5t33 -59.5q-8 -164 -2 -327q2 -68 -58 -80q-51 -10 -75 31q-8 14 -9 30q6 100 -81 111q-27 2 -86.5 3t-79.5 -1q-41 -6 -47 -68q-12 -131 6 -327q4 -61 32.5 -88t102.5 -27q70 0 113 6q90 8 154.5 67.5t84.5 151.5 q14 51 56 60.5t73 -23.5t17 -84q-31 -102 -64 -272q-10 -37 -61 -39q-123 0 -299.5 5t-362.5 5q-86 0 -190.5 -16.5t-163.5 -16.5q-352 0 -553 200t-201 536zM426 784q0 -295 137 -477t336 -182q72 0 105.5 50t37.5 161q18 479 -2 733q-8 106 -80.5 152.5t-158.5 46.5 q-176 0 -275.5 -129t-99.5 -355z" />
<glyph unicode="&#x153;" horiz-adv-x="1806" d="M74 451q0 252 151.5 385t387 133t374.5 -129q27 -23 47 0q117 129 334 129q168 0 267.5 -100.5t99.5 -233.5q0 -47 -26 -83t-79 -40q-45 -4 -217 -10t-219 -8q-59 -2 -57 -70q2 -115 86 -185.5t192 -70.5q115 0 205 78q16 14 35 14q25 0 43 -24.5t18 -53.5q0 -23 -12 -39 q-121 -162 -387 -161q-102 0 -198.5 27.5t-149.5 74.5q-20 18 -47 0q-152 -111 -336 -111q-223 0 -367.5 127t-144.5 351zM371 537q0 -160 73.5 -283t190.5 -123q190 0 190 270q0 57 -14 125t-43 135.5t-82 112.5t-121 45q-90 0 -142 -74.5t-52 -207.5zM1161 668 q-6 -27 1 -37.5t34 -12.5q121 -6 260 13q59 10 49 78q-12 68 -75 100q-31 14 -62 14q-78 0 -133 -50t-74 -105z" />
<glyph unicode="&#x178;" horiz-adv-x="1396" d="M-10 1333q0 27 16.5 45.5t44.5 16.5q227 -20 537 0q37 2 56.5 -17.5t19.5 -46t-16.5 -48t-39.5 -19.5q-61 8 -83.5 -23t3.5 -76q88 -164 189 -295q39 -51 80 2q123 156 194 289q31 45 8.5 79t-98.5 26q-27 -2 -44 18.5t-17 48.5q0 25 15 43.5t42 18.5q39 0 121 -3 l123 -4.5t104.5 1t122.5 6.5q68 2 68 -60q0 -29 -16.5 -50t-41.5 -19q-94 4 -176 -105q-78 -90 -194 -265.5t-134 -236.5q-12 -37 -12 -197.5t10.5 -252.5t139.5 -78q31 2 48 -17.5t17 -47.5q0 -31 -17.5 -51.5t-47.5 -18.5q-297 20 -609 -2q-37 -2 -57 19.5t-20 52.5 q0 29 17 48t46 17q29 0 59.5 -1t57 15.5t31.5 49.5q10 76 7 229.5t-16 191.5q-31 74 -159.5 276t-186.5 277q-63 98 -131 97q-29 -2 -45 18.5t-16 48.5zM317 1640q0 49 40 95.5t130 46.5q59 0 105.5 -42t46.5 -108q0 -61 -45.5 -100t-106.5 -39q-59 0 -114.5 36t-55.5 111z M848 1640q0 47 41 94.5t131 47.5q59 0 103 -42t44 -108q0 -63 -43 -101t-104.5 -38t-116.5 36t-55 111z" />
<glyph unicode="&#x2dc;" horiz-adv-x="960" d="M115 1194q0 88 62.5 162t154.5 74q74 0 175 -50.5t122 -50.5q43 0 65 47q14 31 58 31q29 0 52 -13.5t23 -31.5q0 -90 -61 -162t-154 -72q-74 0 -176 50.5t-121 50.5q-45 0 -67 -47q-14 -31 -58 -31q-29 0 -52 13.5t-23 29.5z" />
<glyph unicode="&#x2000;" horiz-adv-x="905" />
<glyph unicode="&#x2001;" horiz-adv-x="1810" />
<glyph unicode="&#x2002;" horiz-adv-x="905" />
<glyph unicode="&#x2003;" horiz-adv-x="1810" />
<glyph unicode="&#x2004;" horiz-adv-x="603" />
<glyph unicode="&#x2005;" horiz-adv-x="452" />
<glyph unicode="&#x2006;" horiz-adv-x="301" />
<glyph unicode="&#x2007;" horiz-adv-x="301" />
<glyph unicode="&#x2008;" horiz-adv-x="226" />
<glyph unicode="&#x2009;" horiz-adv-x="362" />
<glyph unicode="&#x200a;" horiz-adv-x="100" />
<glyph unicode="&#x2010;" horiz-adv-x="841" d="M98 563q0 39 19.5 70t54.5 33q45 2 126 0t196.5 1t169.5 13q35 6 58 -25.5t23 -74.5q0 -41 -24.5 -70t-73.5 -29q-346 6 -467 -8q-39 -4 -60.5 22.5t-21.5 67.5z" />
<glyph unicode="&#x2011;" horiz-adv-x="841" d="M98 563q0 39 19.5 70t54.5 33q45 2 126 0t196.5 1t169.5 13q35 6 58 -25.5t23 -74.5q0 -41 -24.5 -70t-73.5 -29q-346 6 -467 -8q-39 -4 -60.5 22.5t-21.5 67.5z" />
<glyph unicode="&#x2012;" horiz-adv-x="841" d="M98 563q0 39 19.5 70t54.5 33q45 2 126 0t196.5 1t169.5 13q35 6 58 -25.5t23 -74.5q0 -41 -24.5 -70t-73.5 -29q-346 6 -467 -8q-39 -4 -60.5 22.5t-21.5 67.5z" />
<glyph unicode="&#x2013;" horiz-adv-x="1447" d="M102 580q0 41 14.5 71.5t41.5 32.5q12 2 273 -3t528.5 -4t320.5 15q29 8 49.5 -29.5t20.5 -84.5q0 -88 -68 -89q-72 0 -349.5 1.5t-506.5 1.5t-264 -5q-27 -6 -43.5 23t-16.5 70z" />
<glyph unicode="&#x2014;" horiz-adv-x="2088" d="M102 582q0 39 14.5 69.5t39.5 32.5q14 2 437 -3t850 -4t478 15q29 8 49.5 -29.5t20.5 -84.5q0 -88 -68 -89q-70 0 -509 1.5t-828 1.5t-424 -5q-27 -6 -43.5 24t-16.5 71z" />
<glyph unicode="&#x2018;" horiz-adv-x="524" d="M78 1038q0 104 63.5 215t159.5 156q8 4 21 4q23 0 42 -20.5t19 -38.5q0 -29 -35 -49q-63 -35 -103 -89.5t-40 -107.5q0 -72 45 -72q10 0 37.5 10.5t44.5 10.5q57 0 87 -47t30 -105q0 -66 -46.5 -109.5t-107.5 -43.5q-109 0 -163 81.5t-54 204.5z" />
<glyph unicode="&#x2019;" horiz-adv-x="514" d="M72 1257q0 68 46 112t109 44q109 0 162 -82t53 -207q0 -104 -63.5 -213.5t-159.5 -154.5q-8 -4 -20 -4q-23 0 -42.5 19.5t-19.5 39.5q0 27 35 47q63 33 103 88t40 109q0 72 -45 71q-10 0 -36.5 -10t-45.5 -10q-57 0 -86.5 47t-29.5 104z" />
<glyph unicode="&#x201c;" horiz-adv-x="974" d="M78 1038q0 104 63.5 215t159.5 156q8 4 21 4q23 0 42 -20.5t19 -38.5q0 -29 -35 -49q-63 -35 -103 -89.5t-40 -107.5q0 -72 45 -72q10 0 37.5 10.5t44.5 10.5q57 0 87 -47t30 -105q0 -66 -46.5 -109.5t-107.5 -43.5q-109 0 -163 81.5t-54 204.5zM528 1038q0 104 65 214 t161 157q8 4 18 4q23 0 42.5 -20.5t19.5 -38.5q0 -29 -35 -49q-63 -33 -103.5 -88.5t-40.5 -108.5q0 -72 45 -72q10 0 38 10.5t44 10.5q57 0 87 -47t30 -105q0 -66 -45 -109.5t-109 -43.5q-111 0 -164 80.5t-53 205.5z" />
<glyph unicode="&#x201d;" horiz-adv-x="964" d="M72 1257q0 68 46 112t109 44q109 0 162 -82t53 -207q0 -104 -63.5 -213.5t-159.5 -154.5q-8 -4 -20 -4q-23 0 -42.5 19.5t-19.5 39.5q0 27 35 47q63 33 103 88t40 109q0 72 -45 71q-10 0 -36.5 -10t-45.5 -10q-57 0 -86.5 47t-29.5 104zM522 1257q0 68 46 112t110 44 q106 0 160.5 -82t54.5 -207q0 -104 -63.5 -213.5t-159.5 -154.5q-8 -4 -21 -4q-20 0 -40.5 19.5t-20.5 39.5q0 27 37 47q61 35 101 89t40 108q0 72 -45 71q-10 0 -38 -10t-44 -10q-55 0 -86 47t-31 104z" />
<glyph unicode="&#x201e;" horiz-adv-x="1013" d="M102 129q0 68 46.5 112t109.5 44q111 0 164 -82t53 -207q0 -104 -64.5 -213t-160.5 -156q-8 -4 -19 -4q-23 0 -43 19.5t-20 40.5q0 27 37 47q63 33 103 88t40 108q0 72 -47 72q-8 0 -35.5 -10.5t-44.5 -10.5q-57 0 -88 47.5t-31 104.5zM555 129q0 68 46 112t108 44 q109 0 163 -82t54 -207q0 -104 -65 -213t-161 -156q-6 -4 -18 -4q-23 0 -42 19.5t-19 40.5q0 27 34 47q63 35 103.5 89t40.5 107q0 72 -45 72q-10 0 -39 -10.5t-43 -10.5q-57 0 -87 47.5t-30 104.5z" />
<glyph unicode="&#x2022;" horiz-adv-x="808" d="M90 559q0 129 88 207t228 78q147 0 229 -68.5t82 -185.5q0 -137 -82 -223t-229 -86q-143 0 -229.5 80.5t-86.5 197.5z" />
<glyph unicode="&#x2026;" horiz-adv-x="1605" d="M100 152q0 84 51.5 131t133.5 47q182 0 182 -170q0 -80 -48 -132.5t-134 -52.5t-135.5 49.5t-49.5 127.5zM618 152q0 84 50.5 131t132.5 47q182 0 182 -170q0 -80 -48 -132.5t-134 -52.5t-134.5 49.5t-48.5 127.5zM1139 152q0 84 51 131t131 47q182 0 182 -170 q0 -80 -48 -132.5t-134 -52.5t-134 49.5t-48 127.5z" />
<glyph unicode="&#x202f;" horiz-adv-x="362" />
<glyph unicode="&#x2039;" horiz-adv-x="604" d="M43 481q0 31 68.5 111t253.5 268q25 25 67 25q31 0 55.5 -15.5t24.5 -42.5q0 -16 -16 -43q-160 -250 -160 -307q0 -16 7 -37.5t23.5 -55.5t32 -60.5t46 -80t49.5 -87.5q6 -12 6 -27q0 -27 -27 -43t-61 -16q-47 0 -68 26q-301 315 -301 385z" />
<glyph unicode="&#x203a;" horiz-adv-x="604" d="M92 827q0 27 23.5 42.5t56.5 15.5q43 0 68 -25q184 -188 252.5 -268t68.5 -111q0 -70 -301 -385q-20 -27 -67 -26q-35 0 -63 16t-28 43q0 6 9 27q18 35 48.5 88t46 79.5t32 60.5t23.5 55.5t7 37.5q0 61 -162 307q-14 23 -14 43z" />
<glyph unicode="&#x205f;" horiz-adv-x="452" />
<glyph unicode="&#x20ac;" horiz-adv-x="1310" d="M53 573q0 35 11.5 51.5t31.5 12.5q25 -4 43 -4q33 0 31 35v49q0 33 -29 33h-45q-43 0 -43 59q0 37 12.5 54.5t30.5 13.5q41 -2 59.5 -4.5t28 11t15.5 36.5q43 219 207.5 358t441.5 139q150 0 262.5 -46t116.5 -107q6 -88 -53 -308q-6 -33 -38 -41t-62 10.5t-27 47.5 q12 147 -50.5 225t-181.5 78q-127 0 -211 -101.5t-112 -263.5q-6 -23 2 -32t28 -11q129 -4 391 0q25 2 33 -16t8 -45t-9 -44.5t-30 -14.5q-178 6 -417 2q-25 -2 -25 -39q0 -33 4 -49q6 -33 41 -33h295q39 0 39 -64q0 -25 -10.5 -42t-24.5 -15q-51 2 -272 2q-41 -2 -25 -43 q49 -141 149.5 -221t223.5 -80q29 0 54.5 2t48 8t38 11.5t34.5 14.5t26.5 13t25.5 14l19 13q27 18 50 -4.5t23 -61.5q0 -31 -20 -57q-18 -20 -49 -46t-122 -63t-196 -37q-248 0 -409.5 126t-216.5 362q-16 49 -54 49h-49q-43 -4 -43 63z" />
<glyph unicode="&#x2122;" horiz-adv-x="1595" d="M66 1104v170q-2 14 11 25.5t25 9.5q221 -12 461 -8t369 10q25 2 35 -27q47 -152 86 -211q10 -18 25.5 -17t23.5 21q33 68 80 195q12 35 47 37h241q33 0 33 -39q0 -16 -8 -30.5t-16 -12.5q-20 2 -32.5 1t-19 -8.5t-6.5 -21.5q-6 -119 2 -283q2 -23 45 -22q27 0 27 -41 q0 -14 -6 -24.5t-16 -8.5q-27 2 -115 3t-164 -3q-12 -2 -19.5 10.5t-7.5 26.5q0 35 27 35q33 0 41 8t10 37l4 172q0 16 -5 22.5t-13 0t-12 -20.5l-115 -287q-2 -8 -61.5 -8t-61.5 8q-90 180 -131 287q-10 23 -21.5 21.5t-11.5 -23.5q-2 -106 2 -186q2 -25 10.5 -29t51.5 -4 q23 0 22 -39q0 -31 -18 -31q-4 0 -53.5 3t-100.5 3t-88 -6q-10 -2 -16 9.5t-6 25.5q0 37 22.5 37t32.5 1t19.5 8t9.5 24q8 137 0 241q-8 49 -37 52q-59 4 -142 -3q-39 -2 -43 -55q-10 -135 2 -237q2 -29 64 -29q23 0 22 -35q0 -39 -22 -39q-51 6 -149.5 7t-168.5 -7 q-23 0 -22 37q0 33 18 37h23.5t32 3t12.5 11q4 23 4 256q0 49 -33 49h-63q-27 0 -39 -17t-13 -39.5t-5.5 -42t-16.5 -23.5q-63 -8 -63 14z" />
<glyph unicode="&#x25fc;" horiz-adv-x="952" d="M0 0v952h952v-952h-952z" />
</font>
</defs>
</svg>
